<svg width="505" height="506" viewBox="0 0 505 506" fill="none" xmlns="http://www.w3.org/2000/svg">
<mask id="mask0_87_1298" style="mask-type:luminance" maskUnits="userSpaceOnUse" x="150" y="14" width="340" height="292">
<path d="M150.719 305.68L489.971 14.6465L180.269 227.491L150.719 305.68Z" fill="white"/>
</mask>
<g mask="url(#mask0_87_1298)">
<path d="M489.971 14.6653H150.719V305.681H489.971V14.6653Z" fill="#FF0000"/>
<path d="M148.84 267.994V120.853H137.456C160.656 75.6362 194.226 34.9075 235.706 0.675964V12.75H491.85V307.558H148.84V267.994Z" fill="#FF0000"/>
<path d="M148.84 267.994V121.979H140.631C163.643 77.1008 196.988 36.6726 238.11 2.74152V12.7687H491.85V307.577H148.84V267.994Z" fill="#FF0000"/>
<path d="M148.84 267.994V123.106H143.862C166.705 78.5655 199.75 38.4565 240.59 4.80707V12.8063H491.85V307.615H148.84V267.994Z" fill="#FF0000"/>
<path d="M148.84 267.994V124.233H147.074C169.749 80.0301 202.549 40.2404 243.07 6.81622V12.7687H491.85V307.577H148.84V267.994Z" fill="#FF0000"/>
<path d="M148.84 267.994V141.996H142.34C144.845 136.375 147.5 130.823 150.305 125.34C172.848 81.4947 205.329 42.0242 245.53 8.91931V12.8251H491.85V307.633H148.84V267.994Z" fill="#FF0000"/>
<path d="M148.84 267.994V159.872H138.696C143.012 148.471 147.961 137.319 153.518 126.467C175.835 82.9782 208.128 43.8457 248.01 10.891V12.7688H491.85V307.577H148.84V267.994Z" fill="#FF0000"/>
<path d="M148.84 267.994V160.736H142.04C146.319 149.423 151.23 138.358 156.749 127.594C178.879 84.4053 210.908 45.5732 250.49 12.9377C255.424 8.85673 260.49 4.87588 265.688 0.995178V12.7687H491.85V307.577H148.84V267.994Z" fill="#781780"/>
<path d="M148.84 267.994V161.6H145.383C149.631 150.374 154.511 139.396 159.999 128.72C181.959 85.9075 213.726 47.3571 252.988 14.9845C257.898 10.9286 262.907 6.97901 268.017 3.13586V12.7688H491.85V307.577H148.84V267.994Z" fill="#781780"/>
<path d="M148.84 267.994V196.47H138.113C143.886 173.374 152.301 151.019 163.192 129.847C184.984 87.3721 216.488 49.1034 255.431 17.0125C260.29 12.9941 265.299 9.0758 270.459 5.25769V12.7687H491.85V307.577H148.84V267.994Z" fill="#791881"/>
<path d="M148.84 267.994V197.052H141.551C147.269 174.136 155.616 151.957 166.423 130.955C188.027 88.8368 219.287 50.9061 257.91 19.0593C262.77 15.0784 267.704 11.1915 272.714 7.39838V12.7688H491.85V307.577H148.84V267.994Z" fill="#7A1881"/>
<path d="M136.366 267.994C136.366 171.571 183.763 84.2927 260.353 21.1061C265.137 17.1377 270.04 13.2821 275.062 9.53906V12.7688H491.85V307.577H148.84V267.994H136.366Z" fill="#7A1981"/>
<path d="M139.879 267.994C139.879 172.378 186.844 85.8512 262.851 23.134C272.357 15.2975 282.301 7.84901 292.683 0.788635V12.7687H491.812V307.577H148.84V267.994H139.879Z" fill="#7B1981"/>
<path d="M143.373 267.994C143.373 173.167 189.981 87.3158 265.331 25.1808C274.761 17.4068 284.617 10.021 294.9 3.02319V12.7688H491.85V307.577H148.84V267.994H143.373Z" fill="#FF0000"/>
<path d="M146.849 267.994C146.849 173.974 193.062 88.8368 267.792 27.2275C277.134 19.5162 286.909 12.1867 297.116 5.23895V12.75H491.85V307.558H151.639V319.858C150.587 314.224 149.71 308.541 149.009 302.808C147.578 291.258 146.856 279.632 146.849 267.994Z" fill="#FF0000"/>
<path d="M150.38 267.994C150.38 174.763 196.199 90.3578 270.29 29.2555C279.558 21.6318 289.245 14.3711 299.352 7.47345V12.7687H491.85V307.577H155.096V319.426C154.062 313.792 153.217 308.159 152.484 302.526C151.082 291.069 150.379 279.537 150.38 267.994Z" fill="#FF0000"/>
<path d="M153.875 267.994C153.875 175.571 199.299 91.8787 272.751 31.3961C281.944 23.8851 291.556 16.6807 301.587 9.78308V12.8626H491.85V307.671H158.552V319.088C157.525 313.555 156.661 307.971 155.96 302.338C154.568 290.943 153.872 279.474 153.875 267.994Z" fill="#FF0000"/>
<path d="M157.369 267.994C157.369 176.359 202.455 93.3622 275.231 33.2739C284.348 25.7628 293.873 18.6211 303.804 11.8486V12.6936H491.85V307.502H162.009V318.487C160.994 312.985 160.13 307.446 159.454 301.869C158.069 290.63 157.373 279.317 157.369 267.994Z" fill="#FF0000"/>
<path d="M160.863 267.994C160.863 177.148 205.517 94.9208 277.711 35.377C286.728 27.9411 296.171 20.8682 306.039 14.1583C310.961 10.7909 315.971 7.52982 321.068 4.37518V12.7688H491.812V307.577H165.465V318.111C164.451 312.666 163.606 307.183 162.929 301.662C161.548 290.493 160.858 279.248 160.863 267.994Z" fill="#FF0000"/>
<path d="M164.376 267.994C164.376 177.955 208.616 96.423 280.172 37.4238C289.126 30.0379 298.488 23.0213 308.256 16.3741C313.141 13.0442 318.119 9.82069 323.191 6.70361V12.7688H491.85V307.577H168.922V317.679C167.926 312.271 167.043 306.845 166.405 301.362C165.045 290.291 164.368 279.148 164.376 267.994Z" fill="#FF0000"/>
<path d="M167.87 267.994C167.87 178.744 211.735 97.9439 282.651 39.4705C300.757 24.602 320.173 11.4038 340.662 0.0375366V12.8063H491.85V307.615H172.379V317.266C171.383 311.933 170.5 306.526 169.899 301.099C168.538 290.116 167.861 279.06 167.87 267.994Z" fill="#FF0000"/>
<path d="M171.364 267.994C171.364 179.551 214.834 99.4649 285.131 41.4985C303.073 26.7593 322.313 13.6742 342.615 2.4035V12.7875H491.85V307.596H175.835V316.816C174.858 311.52 174.038 306.175 173.374 300.78C172.03 289.903 171.358 278.953 171.364 267.994Z" fill="#FF0000"/>
<path d="M174.858 267.994C174.858 180.34 217.953 100.986 287.573 43.5452C305.345 28.9272 324.41 15.9548 344.532 4.78827V12.7687H491.812V307.577H179.292V316.365C178.334 311.107 177.507 305.812 176.85 300.479C175.522 289.702 174.857 278.853 174.858 267.994Z" fill="#FF0000"/>
<path d="M199 243.327C199 156.48 259.552 109.334 328.572 52.419C346.189 37.9345 365.083 25.0756 385.023 14V19.6333H530.35V314.442H221.267V322.816C220.29 317.621 219.476 312.376 218.825 307.081C217.516 296.377 198.993 254.11 199 243.327Z" fill="#FF0000"/>
<path d="M181.865 267.994C181.865 181.936 224.171 104.028 292.551 47.62C310.002 33.2715 328.72 20.538 348.477 9.57654V12.7687H491.85V307.577H186.299V315.482C185.347 310.312 184.546 305.111 183.894 299.878C182.563 289.302 181.886 278.654 181.865 267.994Z" fill="#FF0000"/>
<path d="M185.36 267.994C185.36 182.744 227.271 105.549 295.031 49.6667C312.318 35.4481 330.86 22.8278 350.43 11.9613V12.7687H491.85V307.577H189.68V315.088C188.729 309.981 187.933 304.836 187.295 299.653C186.002 289.149 185.356 278.577 185.36 267.994Z" fill="url(#paint0_linear_87_1298)"/>
<path d="M188.854 267.994C188.854 183.495 230.37 107.051 297.492 51.7135C314.631 37.6286 333.01 25.1218 352.403 14.3461C357.325 11.6045 362.334 8.95689 367.432 6.40314V12.7687H491.831V307.577H193.137V314.6C192.198 309.53 191.409 304.441 190.77 299.296C189.495 288.911 188.856 278.457 188.854 267.994Z" fill="url(#paint1_linear_87_1298)"/>
<path d="M192.367 267.994C192.367 184.321 233.489 108.572 299.972 53.7414C316.944 39.7922 335.146 27.4108 354.357 16.7496C364.125 11.3041 374.219 6.24663 384.639 1.57727V12.8438H491.85V307.652H196.594V314.112C195.673 309.098 194.884 304.028 194.264 298.939C192.998 288.673 192.365 278.338 192.367 267.994Z" fill="url(#paint2_linear_87_1298)"/>
<path d="M195.861 267.994C195.861 185.128 236.588 110.093 302.451 55.807C319.259 41.9811 337.286 29.7066 356.31 19.1344C365.979 13.7515 375.998 8.74411 386.368 4.1123V12.7688H491.906V307.577H200.05V313.717C199.123 308.71 198.353 303.703 197.739 298.695C196.487 288.509 195.859 278.256 195.861 267.994Z" fill="url(#paint3_linear_87_1298)"/>
<path d="M199.449 267.994C199.449 185.917 239.801 111.614 305.025 57.835C321.669 44.1495 339.519 32.0007 358.358 21.5379C367.939 16.1926 377.845 11.229 388.077 6.64728V12.7688H491.944V307.577H203.507V313.21C202.605 308.291 201.841 303.333 201.215 298.339C200.012 288.269 199.422 278.135 199.449 267.994Z" fill="url(#paint4_linear_87_1298)"/>
<path d="M202.868 267.994C202.868 186.724 242.807 113.135 307.392 59.863C323.882 46.3173 341.562 34.2884 360.218 23.9227C369.705 18.6462 379.53 13.7077 389.655 9.18225V12.7688H491.85V307.577H206.963V312.835C206.062 307.971 205.31 303.052 204.709 298.113C203.479 288.121 202.864 278.062 202.868 267.994Z" fill="url(#paint5_linear_87_1298)"/>
<path d="M206.362 267.994C206.362 187.513 245.925 114.656 309.872 61.9097C326.19 48.4612 343.695 36.5198 362.172 26.2323C371.577 20.9996 381.289 16.1299 391.308 11.6233V12.6748H491.85V307.483H210.439V312.309C209.537 307.477 208.785 302.614 208.184 297.719C206.974 287.857 206.365 277.93 206.362 267.994Z" fill="url(#paint6_linear_87_1298)"/>
<path d="M209.856 267.994C209.856 188.321 249.025 116.177 312.352 63.9565C345.478 36.9371 383.13 15.9959 423.564 2.10309V12.7688H491.85V307.577H213.82V311.971C212.943 307.189 212.198 302.376 211.585 297.531C210.411 287.729 209.834 277.866 209.856 267.994Z" fill="url(#paint7_linear_87_1298)"/>
<path d="M213.35 267.994C213.35 189.128 252.124 117.679 314.794 65.9844C347.592 39.2533 384.861 18.5293 424.878 4.76947V12.7687H491.794V307.577H217.352V311.52C216.469 306.788 215.736 302.038 215.154 297.231C213.955 287.531 213.353 277.767 213.35 267.994Z" fill="#8C2983"/>
<path d="M216.863 267.994C216.863 189.898 255.243 119.2 317.292 68.0312C349.75 41.5598 386.638 21.0387 426.25 7.41711V12.7687H491.812V307.577H220.808V311.088C219.944 306.413 219.212 301.7 218.629 296.93C217.452 287.33 216.862 277.666 216.863 267.994Z" fill="#8D2A83"/>
<path d="M220.357 267.994C220.357 190.705 258.342 120.721 319.772 70.0779C351.906 43.8663 388.433 23.5541 427.659 10.0835V12.7687H491.85V307.577H224.265V310.638C223.401 306.018 222.681 301.349 222.105 296.63C220.934 287.129 220.35 277.566 220.357 267.994Z" fill="#8E2A84"/>
<path d="M223.87 267.994C223.87 191.494 261.442 122.242 322.271 72.106C354.064 46.1743 390.203 26.0784 429.011 12.75H491.85V307.558H227.722V310.187C226.87 305.605 226.156 300.986 225.58 296.329C224.432 286.928 223.861 277.465 223.87 267.994Z" fill="#8F2B84"/>
<path d="M227.346 267.994C227.346 192.301 264.561 123.763 324.713 74.1527C356.191 48.4875 391.966 28.5955 430.383 15.3976C440.327 11.9175 450.509 8.84421 460.929 6.1778V12.7687H491.85V307.577H231.178V309.774C230.352 305.23 229.638 300.648 229.074 296.048C227.919 286.741 227.342 277.372 227.346 267.994Z" fill="#8F2C84"/>
<path d="M230.859 267.994C230.859 193.09 267.66 125.284 327.193 76.1995C358.329 50.7797 393.723 31.0719 431.736 17.9889C451.836 10.9872 472.492 5.69808 493.484 2.17816L491.85 12.6936V307.502H234.635V309.248C233.808 304.767 233.113 300.241 232.55 295.672C231.419 286.489 230.855 277.246 230.859 267.994Z" fill="#902D84"/>
<path d="M234.353 267.994C234.353 193.898 270.779 126.805 329.672 78.2275C360.485 53.1055 395.504 33.6332 433.107 20.7117C452.996 13.7988 473.432 8.57272 494.198 5.08875L491.85 12.7688V307.577H238.11V308.892C237.284 304.435 236.589 299.96 236.025 295.466C234.908 286.351 234.35 277.177 234.353 267.994Z" fill="#912E84"/>
<path d="M237.847 267.994C237.847 194.761 273.878 128.307 332.133 80.2179C362.615 55.3647 397.259 36.102 434.459 23.3217C454.133 16.4744 474.349 11.2985 494.893 7.849L491.85 12.7124V307.521H241.567V308.478C240.74 304.084 240.058 299.659 239.519 295.203C238.4 286.176 237.842 277.089 237.847 267.994Z" fill="#922F84"/>
<path d="M241.341 267.994C241.341 195.494 277.034 129.828 334.613 82.321C364.755 57.709 399.025 38.636 435.831 25.9882C455.289 19.2126 475.286 14.0931 495.607 10.6844L491.85 12.7124V307.521H245.023V307.953C244.216 303.615 243.539 299.221 242.994 294.808C241.895 285.912 241.343 276.957 241.341 267.994Z" fill="#932F84"/>
<path d="M244.854 267.994C244.854 196.282 280.096 131.349 337.093 84.3489C366.912 60.0425 400.797 41.1999 437.183 28.6921C456.419 22.006 476.182 16.9434 496.265 13.5574H491.812V307.558H251.241V320.346C246.995 303.219 244.85 285.639 244.854 267.994Z" fill="#943085"/>
<path d="M248.292 267.994C248.292 197.071 283.158 132.795 339.497 86.3958C368.987 62.3503 402.505 43.7167 438.498 31.3586C457.529 24.7183 477.085 19.6931 496.96 16.3365H491.794V307.558H254.679V319.745C250.454 302.818 248.309 285.44 248.292 267.994Z" fill="#953185"/>
<path d="M251.843 267.994C251.843 197.878 286.314 134.391 342.014 88.4425C371.168 64.6594 404.304 46.2232 439.888 33.9874C458.719 27.4884 478.061 22.5765 497.711 19.3033H491.85V307.558H258.098V319.182C253.943 302.436 251.842 285.247 251.843 267.994Z" fill="#963285"/>
<path d="M255.355 267.994C255.355 198.667 289.414 135.912 344.513 90.4705C373.342 66.9748 406.102 48.7616 441.279 36.6727C459.883 30.2014 478.999 25.3082 498.425 22.0449H491.85V307.558H261.536V318.6C257.426 302.045 255.35 285.051 255.355 267.994Z" fill="#973385"/>
<path d="M258.85 267.994C258.85 199.474 292.533 137.433 346.993 92.5172C375.477 69.2801 407.858 51.2753 442.631 39.3391C461.025 32.9676 479.921 28.1499 499.12 24.9366H491.85V307.558H264.955V318.017C260.897 301.652 258.847 284.854 258.85 267.994Z" fill="#983485"/>
<path d="M262.344 267.994C262.344 200.263 295.632 138.935 349.454 94.5639C377.62 71.6005 409.63 53.8003 444.002 41.9867C462.179 35.6676 480.856 30.8876 499.834 27.6969H491.85V307.483H268.393V317.36C264.379 301.211 262.348 284.634 262.344 267.994Z" fill="#993585"/>
<path d="M265.838 267.994C265.838 201.071 298.751 140.456 351.933 96.592C379.764 73.9049 411.392 56.3208 445.355 44.6531C463.317 38.4164 481.774 33.7053 500.529 30.5699H491.85V307.558H271.812V316.853C267.845 300.869 265.839 284.462 265.838 267.994Z" fill="#9A3585"/>
<path d="M269.351 267.994C269.351 201.859 301.85 141.977 354.413 98.6387C381.913 76.2168 413.166 58.8361 446.726 47.3008C464.464 41.1378 482.688 36.4709 501.205 33.349H491.812V307.502H275.25V316.215C271.331 300.44 269.35 284.247 269.351 267.994Z" fill="#9B3685"/>
<path d="M272.845 267.994C272.845 202.648 304.95 143.498 356.874 100.686C384.042 78.5341 414.92 61.369 448.079 49.986C465.601 43.8896 483.605 39.279 501.901 36.2032H491.794V307.558H278.669V315.689C274.8 300.086 272.844 284.07 272.845 267.994Z" fill="#9C3786"/>
<path d="M276.339 267.994C276.339 203.455 308.069 145.019 359.354 102.751C386.212 80.8597 416.742 63.9037 449.526 52.6711C466.845 46.6414 484.642 42.0811 502.727 39.0386H491.925V307.558H282.107V315.069C278.278 299.67 276.341 283.862 276.339 267.994Z" fill="#9D3886"/>
<path d="M279.833 267.994C279.833 204.244 311.168 146.54 361.834 104.76C388.338 83.1502 418.459 66.3989 450.803 55.2812C467.929 49.3341 485.524 44.8367 503.403 41.8364H491.888V307.558H285.526V314.525C281.748 299.303 279.836 283.677 279.833 267.994Z" fill="#9E3986"/>
<path d="M283.346 267.994C283.346 205.051 314.287 148.061 364.313 106.807C390.482 85.4676 420.229 68.9376 452.174 57.9852C469.067 52.1078 486.423 47.6606 504.061 44.6907H491.85V307.577H288.963V313.961C285.228 298.924 283.342 283.488 283.346 267.994Z" fill="#9F3A86"/>
<path d="M286.841 267.994C286.841 205.84 317.386 149.564 366.774 108.835C392.624 87.7781 421.993 71.4534 453.527 60.614C470.212 54.8084 487.355 50.4116 504.775 47.4697H491.85V307.539H292.382V313.342C288.703 298.506 286.842 283.279 286.841 267.994Z" fill="#A03B86"/>
<path d="M290.335 267.994C290.335 206.647 320.505 151.085 369.235 110.882C394.764 90.0737 423.78 73.9512 454.936 63.2617C462.989 60.4451 471.242 57.9414 479.696 55.7507C483.904 54.6616 488.162 53.6663 492.47 52.765H491.888V307.558H295.82V312.778C292.177 298.129 290.335 283.089 290.335 267.994Z" fill="#A13C86"/>
<path d="M293.829 267.994C293.829 207.436 323.604 152.606 371.734 112.929C396.92 92.4164 425.54 76.5232 456.27 65.9845C464.235 63.2054 472.375 60.7456 480.691 58.6049C484.862 57.5283 489.07 56.5394 493.315 55.6381H491.85V307.558H299.239V312.234C295.637 297.763 293.82 282.906 293.829 267.994Z" fill="#A23D87"/>
<path d="M297.342 267.994C297.342 208.225 326.704 154.127 374.195 114.956C399.046 94.6938 427.292 78.991 457.622 68.5758C465.475 65.8342 473.509 63.4119 481.725 61.3088C485.839 60.2385 489.99 59.2808 494.179 58.3795H491.85V307.558H302.771V311.614C299.185 297.35 297.362 282.701 297.342 267.994Z" fill="#A33E87"/>
<path d="M300.892 267.994C300.892 209.032 329.879 155.647 376.731 117.003C401.244 97.0089 429.108 81.5157 459.031 71.2422C466.784 68.5382 474.717 66.1409 482.833 64.0503C486.891 63.0113 490.986 62.0537 495.119 61.1774H491.906V307.558H306.096V311.032C302.614 296.951 300.867 282.498 300.892 267.994Z" fill="#A43F87"/>
<path d="M304.33 267.994C304.33 209.783 332.922 157.206 379.154 119.05C403.339 99.3244 430.828 84.0351 460.346 73.8898C467.998 71.2234 475.819 68.8637 483.81 66.8106C487.811 65.7967 491.85 64.9329 495.945 63.9752H491.85V307.558H309.628V310.45C306.133 296.568 304.353 282.309 304.33 267.994Z" fill="#A54087"/>
<path d="M307.843 267.994C307.843 210.628 336.022 158.69 381.634 121.078C405.484 101.631 432.591 86.5574 461.699 76.5563C469.213 73.9275 476.934 71.599 484.862 69.5711C488.807 68.5571 492.789 67.6244 496.809 66.7732H491.85V307.558H312.953V309.868C309.549 296.17 307.833 282.108 307.843 267.994Z" fill="#A64087"/>
<path d="M311.337 267.994C311.337 211.417 339.14 160.192 384.095 123.125C407.601 103.957 434.312 89.0944 462.995 79.2227C470.434 76.6314 478.042 74.3343 485.82 72.3314C489.715 71.3299 493.647 70.4098 497.617 69.571H491.775V307.558H316.372V309.286C313.021 295.778 311.331 281.911 311.337 267.994Z" fill="#A74187"/>
<path d="M314.831 267.994C314.831 212.224 342.24 161.713 386.574 125.172C409.77 106.257 436.132 91.5974 464.441 81.8704C471.749 79.3166 479.263 77.0445 486.984 75.0729C490.842 74.0964 494.718 73.1951 498.613 72.3689H491.906V307.558H319.81V308.704C316.497 295.387 314.826 281.716 314.831 267.994Z" fill="#A84287"/>
<path d="M318.325 267.994C318.325 213.013 345.358 163.234 389.054 127.162C411.912 108.522 437.894 94.078 465.794 84.4992C473.008 81.983 480.409 79.7296 487.98 77.7955C491.737 76.8441 495.557 75.9491 499.439 75.1104H491.925V307.558H323.229V308.122C319.97 294.994 318.324 281.519 318.325 267.994Z" fill="#A94388"/>
<path d="M321.838 267.994C321.838 213.821 348.458 164.717 391.515 129.246C414.047 110.868 439.66 96.6268 467.165 87.1844C474.266 84.7057 481.574 82.5088 489.013 80.5934C492.77 79.6421 496.528 78.7595 500.285 77.9458H491.831V307.558H329.315V317.041C328.338 313.899 327.455 310.732 326.666 307.54C323.451 294.603 321.83 281.323 321.838 267.994Z" fill="#AA4488"/>
<path d="M325.314 267.994C325.314 214.609 351.614 166.276 393.976 131.293C416.173 113.187 441.404 99.1562 468.499 89.8508C475.5 87.4097 482.682 85.244 490.046 83.3537C493.71 82.4149 497.41 81.476 501.168 80.7437H491.775V307.558H332.715V316.309C331.738 313.229 330.837 310.112 330.085 306.92C326.921 294.186 325.319 281.115 325.314 267.994Z" fill="#AB4588"/>
<path d="M328.827 267.994C328.827 215.417 354.676 167.797 396.456 133.321C418.356 115.493 443.244 101.685 469.964 92.536C476.865 90.1074 483.935 87.973 491.174 86.1328C494.78 85.1939 498.444 84.2551 502.126 83.5603H491.925V307.577H336.097V315.614C335.157 312.572 334.3 309.499 333.523 306.394C330.399 293.833 328.822 280.937 328.827 267.994Z" fill="#AC4688"/>
<path d="M332.321 267.994C332.321 216.205 357.795 169.318 398.954 135.368C420.489 117.809 444.962 104.198 471.242 95.1649C478.042 92.7989 485.006 90.6958 492.132 88.8556H491.85V307.558H339.497V314.882C338.558 311.877 337.706 308.848 336.942 305.793C333.872 293.428 332.32 280.734 332.321 267.994Z" fill="#AD4788"/>
<path d="M335.834 267.994C335.834 216.994 360.894 170.82 401.415 137.414C422.625 120.123 446.729 106.722 472.613 97.8313C479.301 95.4903 486.158 93.4185 493.184 91.6158H491.85V307.558H342.879V314.112C341.952 311.17 341.119 308.19 340.38 305.174C337.358 293.011 335.831 280.526 335.834 267.994Z" fill="#AE4888"/>
<path d="M339.328 267.994C339.328 217.801 363.994 172.341 403.895 139.442C424.769 122.423 448.492 109.232 473.966 100.479C480.554 98.1881 487.304 96.1538 494.217 94.3762H491.85V307.558H346.26V313.436C345.358 310.531 344.538 307.596 343.799 304.629C340.827 292.644 339.325 280.342 339.328 267.994Z" fill="#AF4988"/>
<path d="M342.822 267.994C342.822 218.59 367.112 173.862 406.375 141.489C426.917 124.738 450.265 111.756 475.337 103.145C481.812 100.867 488.456 98.864 495.269 97.1365H491.85V307.558H349.735V312.703C348.834 309.849 348.026 306.976 347.312 304.066C344.353 292.269 342.846 280.156 342.822 267.994Z" fill="#B04A89"/>
<path d="M346.316 267.994C346.316 219.397 370.212 175.383 408.836 143.536C429.044 127.05 452.018 114.277 476.69 105.812C483.077 103.584 489.615 101.606 496.302 99.8781H491.85V307.558H355.916V320.346C353.842 314.817 352.086 309.175 350.656 303.446C347.78 291.848 346.322 279.943 346.316 267.994Z" fill="#B24B89"/>
<path d="M349.829 267.994C349.829 220.186 373.33 176.904 411.315 145.564C431.199 129.355 453.796 116.793 478.061 108.459C484.323 106.281 490.748 104.341 497.336 102.638H491.85V307.558H359.26V319.482C353.049 303.026 349.867 285.582 349.867 267.994H349.829Z" fill="#B34C89"/>
<path d="M353.323 267.994C353.323 221.05 376.43 178.425 413.795 147.611C433.326 131.68 455.522 119.328 479.357 111.126C485.544 108.973 491.869 107.064 498.331 105.399H491.794V307.558H362.547V318.637C360.531 313.302 358.831 307.854 357.456 302.319C354.693 291.087 353.305 279.561 353.323 267.994Z" fill="#B44D89"/>
<path d="M356.818 267.994C356.818 221.782 379.53 179.946 416.275 149.695C435.485 134.014 457.327 121.864 480.785 113.811C486.853 111.708 493.071 109.811 499.421 108.178H491.906V307.558H366.041V317.867C364.065 312.623 362.397 307.269 361.044 301.831C358.26 290.767 356.841 279.403 356.818 267.994Z" fill="#B54E89"/>
<path d="M360.331 267.994C360.331 222.571 382.648 181.448 418.736 151.685C437.625 136.292 459.09 124.359 482.138 116.44C488.112 114.362 494.223 112.515 500.473 110.901H491.85V307.558H369.291V316.947C363.36 301.321 360.323 284.745 360.331 268.031V267.994Z" fill="#B64F89"/>
<path d="M363.825 267.994C363.825 223.378 385.748 182.969 421.215 153.732C439.769 138.6 460.86 126.877 483.509 119.106C489.37 117.053 495.369 115.238 501.506 113.661H491.85V307.558H372.635V315.989C366.818 300.636 363.833 284.355 363.825 267.938V267.994Z" fill="#B7508A"/>
<path d="M367.319 267.994C367.319 224.167 388.866 184.49 423.676 155.779C441.895 140.916 462.604 129.396 484.843 121.754C490.591 119.745 496.509 117.998 502.52 116.421H491.831V307.558H376.035V315.201C374.152 310.229 372.565 305.15 371.283 299.991C368.67 289.525 367.339 278.781 367.319 267.994Z" fill="#B8518A"/>
<path d="M370.813 267.994C370.813 224.974 391.966 186.011 426.156 157.807C444.062 143.213 464.415 131.909 486.271 124.42C491.906 122.543 497.711 120.665 503.629 119.181H491.888V307.558H379.361V314.337C377.513 309.426 375.958 304.41 374.702 299.315C372.14 289.071 370.834 278.553 370.813 267.994Z" fill="#B9528A"/>
<path d="M374.326 267.994C374.326 225.763 395.084 187.532 428.636 159.854C446.199 145.538 466.156 134.438 487.586 127.068C493.128 125.19 498.857 123.425 504.625 121.942H491.85V307.558H382.648V313.473C380.844 308.684 379.32 303.793 378.083 298.827C375.586 288.739 374.324 278.386 374.326 267.994Z" fill="#BA538A"/>
<path d="M377.914 267.994C377.914 226.57 398.278 189.128 431.209 161.9C448.437 147.846 468.02 136.955 489.051 129.734C491.756 128.777 494.518 127.857 497.298 127.049H491.944V307.558H385.992V312.628C384.222 307.925 382.729 303.122 381.521 298.245C379.094 288.345 377.882 278.186 377.914 267.994Z" fill="#BB548A"/>
<path d="M381.314 267.994C381.314 227.359 401.284 190.574 433.595 163.928C450.487 150.151 469.689 139.477 490.31 132.401C492.977 131.462 495.682 130.523 498.406 129.753H491.85V307.558H389.336V311.764C387.597 307.153 386.129 302.445 384.94 297.662C382.535 287.956 381.317 277.994 381.314 267.994Z" fill="#BD558A"/>
<path d="M384.809 267.994C384.809 228.148 404.402 192.076 436.056 165.975C452.627 152.467 471.459 141.996 491.681 135.048C494.292 134.147 496.941 133.283 499.609 132.476H491.85V307.558H392.68V310.901C387.5 297.187 384.833 282.653 384.809 267.994Z" fill="#BE568B"/>
<path d="M388.321 267.994C388.321 228.955 407.502 193.597 438.536 168.022C454.761 154.781 473.206 144.519 493.015 137.715H491.831V307.558H396.023V310.056C394.352 305.623 392.941 301.096 391.797 296.498C389.489 287.172 388.322 277.601 388.321 267.994Z" fill="#BF578B"/>
<path d="M391.815 267.994C391.815 229.744 410.601 195.118 441.015 170.05C456.918 157.09 474.986 147.04 494.386 140.363H491.831V307.483H399.367V309.117C397.727 304.778 396.347 300.344 395.234 295.841C392.961 286.733 391.812 277.381 391.815 267.994Z" fill="#C0588B"/>
<path d="M395.31 267.994C395.31 230.551 413.72 196.639 443.476 172.097C459.051 159.4 476.751 149.559 495.757 143.029H491.85V307.558H402.711V308.328C401.079 304.082 399.699 299.743 398.578 295.334C396.378 286.388 395.28 277.206 395.31 267.994Z" fill="#C1598B"/>
<path d="M398.804 267.994C398.804 231.34 416.838 198.16 445.956 174.106C461.192 161.667 478.519 152.034 497.129 145.658H491.85V307.521H411.465V319.745C403.166 303.754 398.825 286.008 398.804 267.994Z" fill="#C25A8B"/>
<path d="M402.335 267.994C402.335 232.147 419.957 199.681 448.455 176.171C463.364 164.018 480.307 154.597 498.5 148.343H491.869V307.558H414.678V318.543C406.587 302.919 402.355 285.587 402.335 267.994Z" fill="#C35B8B"/>
<path d="M405.811 267.994C405.811 232.936 423.038 201.202 450.897 178.218C465.48 166.329 482.054 157.117 499.853 151.009H491.85V307.558H417.909V317.417C409.985 302.145 405.836 285.198 405.811 267.994Z" fill="#C45C8C"/>
<path d="M409.305 267.994C409.305 233.725 426.212 202.704 453.377 180.265C467.627 168.649 483.819 159.641 501.205 153.657H491.812V307.633H421.121V316.365C413.365 301.419 409.313 284.831 409.305 267.994Z" fill="#C65D8C"/>
<path d="M412.818 267.994C412.818 234.532 429.255 204.15 455.856 182.293C469.78 170.971 485.597 162.198 502.576 156.38H491.85V307.615H424.352V315.238C416.788 300.637 412.833 284.437 412.818 267.994Z" fill="#C75E8C"/>
<path d="M416.312 267.994C416.312 235.321 432.374 205.746 458.336 184.34C471.913 173.259 487.35 164.676 503.929 158.99H491.85V307.558H427.584V314.112C420.2 299.858 416.335 284.045 416.312 267.994Z" fill="#C85F8C"/>
<path d="M419.807 267.994C419.807 236.072 435.474 207.267 460.797 186.386C467.243 181.069 474.16 176.348 481.462 172.284C485.219 170.219 489.064 168.291 492.996 166.501H491.794V307.558H430.815V312.929C423.61 299.043 419.835 283.636 419.807 267.994Z" fill="#C9608C"/>
<path d="M423.301 267.994C423.301 236.917 438.574 208.788 463.277 188.414C469.585 183.24 476.344 178.64 483.472 174.669C487.097 172.66 490.855 170.763 494.743 169.036H491.869V307.558H434.027V311.802C427.01 298.263 423.332 283.242 423.301 267.994Z" fill="#CA618C"/>
<path d="M426.757 267.994C426.757 237.724 441.636 210.309 465.7 190.461C471.857 185.401 478.459 180.907 485.425 177.035C488.976 175.064 492.62 173.28 496.396 171.533H491.85V307.521H437.259V310.638C430.404 297.464 426.803 282.842 426.757 267.994Z" fill="#CB628D"/>
<path d="M430.308 267.994C430.308 238.513 444.791 211.83 468.217 192.508C474.195 187.558 480.609 183.159 487.379 179.364C490.835 177.486 494.386 175.608 498.068 174.012H491.85V307.464H440.471V309.474C433.836 296.65 430.352 282.431 430.308 267.994Z" fill="#CC638D"/>
<path d="M433.802 267.994C433.802 239.321 447.91 213.332 470.697 194.536C476.523 189.761 482.766 185.519 489.351 181.861C492.695 179.983 496.152 178.25 499.721 176.66H491.85V307.558H443.664V308.478C437.191 295.964 433.809 282.082 433.802 267.994Z" fill="#CE648D"/>
<path d="M437.296 267.994C437.296 240.109 451.01 214.853 473.177 196.639C478.834 191.987 484.902 187.858 491.305 184.302C494.555 182.424 497.918 180.81 501.393 179.251H491.85V307.615H452.08V316.196C450.203 313.351 448.485 310.405 446.933 307.371C440.619 295.203 437.314 281.701 437.296 267.994Z" fill="#CF668D"/>
<path d="M440.809 267.994C440.809 240.898 454.128 216.374 475.657 198.629C481.141 194.101 487.034 190.091 493.259 186.649H491.85V307.558H455.161V314.769C453.339 311.999 451.665 309.135 450.146 306.187C444.031 294.383 440.83 281.287 440.809 267.994Z" fill="#D0678D"/>
<path d="M444.303 267.994C444.303 241.705 457.228 217.895 478.118 200.657C483.453 196.275 489.175 192.385 495.213 189.034H491.85V307.558H458.242V313.398C456.47 310.71 454.846 307.926 453.377 305.061C447.433 293.607 444.321 280.897 444.303 267.994Z" fill="#D1688D"/>
<path d="M447.797 267.994C447.797 242.494 460.327 219.416 480.597 202.704C485.769 198.456 491.314 194.685 497.166 191.438H491.85V307.577H466.921V319.651C462.931 314.803 459.473 309.54 456.608 303.953C450.837 292.843 447.816 280.512 447.797 267.994Z" fill="#D2698E"/>
<path d="M451.292 267.994C451.292 243.301 463.446 220.937 483.077 204.751C488.08 200.626 493.45 196.968 499.12 193.822H491.85V307.558H469.833V318.017C465.966 313.33 462.61 308.243 459.82 302.845C454.237 292.075 451.312 280.125 451.292 267.994Z" fill="#D36A8E"/>
<path d="M454.804 267.994C454.804 244.09 466.545 222.458 485.538 206.779C490.392 202.8 495.591 199.262 501.074 196.207H491.85V307.558H472.726V316.403C468.983 311.862 465.74 306.933 463.051 301.7C457.649 291.284 454.821 279.726 454.804 267.994Z" fill="#D56B8E"/>
<path d="M458.298 267.994C458.298 244.897 469.57 223.96 488.017 208.826C492.705 204.97 497.736 201.551 503.046 198.611H491.775V307.521H475.6V314.75C471.969 310.362 468.82 305.596 466.207 300.536C461.016 290.473 458.305 279.316 458.298 267.994Z" fill="#D66C8E"/>
<path d="M461.792 267.994C461.792 245.686 472.763 225.481 490.497 210.872C495.021 207.147 499.876 203.841 505 200.995H491.85V307.558H478.531V313.192C475.042 308.948 472.013 304.347 469.495 299.465C464.45 289.74 461.809 278.949 461.792 267.994Z" fill="#D76D8E"/>
<path d="M465.306 267.994C465.306 246.475 475.863 227.002 492.977 212.9H491.85V307.558H481.424V311.558C478.07 307.495 475.154 303.089 472.726 298.414C467.847 289.016 465.302 278.582 465.306 267.994Z" fill="#D86E8E"/>
<path d="M468.8 267.994C468.8 247.339 478.982 228.561 495.438 214.947H491.85V307.558H484.336V309.943C481.094 306.008 478.279 301.74 475.938 297.212C471.261 288.181 468.813 278.163 468.8 267.994Z" fill="#D96F8F"/>
<path d="M472.294 267.994C472.294 248.071 482.081 230.044 497.918 216.994H491.85V307.558L497.918 319.013C482.081 305.962 472.294 287.917 472.294 267.994Z" fill="#DB708F"/>
<path d="M475.788 267.994C475.788 248.878 485.181 231.565 500.398 219.022H491.85V307.558L500.398 316.947C485.2 304.441 475.788 287.128 475.788 267.994Z" fill="#DC718F"/>
<path d="M479.357 267.994C479.357 249.667 488.356 233.086 502.915 221.05H491.906V307.54L502.915 314.919C488.299 302.845 479.357 286.321 479.357 267.994Z" fill="#DD728F"/>
<path d="M482.795 267.994C482.814 259.393 484.888 250.921 488.844 243.283C490.821 239.448 493.202 235.835 495.945 232.504H491.85V303.502H495.945C493.197 300.169 490.816 296.549 488.844 292.705C484.885 285.068 482.811 276.595 482.795 267.994Z" fill="#DE748F"/>
<path d="M486.29 267.994C486.308 259.783 488.292 251.697 492.076 244.409H491.85V291.579H492.076C488.29 284.292 486.306 276.205 486.29 267.994Z" fill="#DF758F"/>
<path d="M489.784 267.994C489.793 260.151 491.68 252.425 495.288 245.461H491.85V290.396H495.288C491.701 283.471 489.814 275.792 489.784 267.994Z" fill="#E17690"/>
</g>
<path d="M489.971 14.6465L121.168 193.39L0 123.463L489.971 14.6465Z" fill="url(#paint8_linear_87_1298)"/>
<path d="M489.534 17.2281L179.85 230.072L301 300L489.534 17.2281Z" fill="url(#paint9_linear_87_1298)"/>
<path d="M180.287 227.491L489.971 14.6465L121.168 193.39L150.719 305.68L180.287 227.491Z" fill="url(#paint10_linear_87_1298)"/>
<path d="M115.777 190.273L489.971 14.6465L121.168 193.39L115.777 190.273Z" fill="#FCC29F"/>
<path d="M180.287 227.491L489.971 14.6465L185.115 230.288L180.287 227.491Z" fill="#FBA999"/>
<path opacity="0.8" d="M411.465 313.849L78.5059 387.776L157.181 433.181L160.844 435.302L204.822 432.129L226.031 472.914L283.346 506L411.465 313.849Z" fill="white"/>
<defs>
<linearGradient id="paint0_linear_87_1298" x1="338.605" y1="11.9613" x2="338.605" y2="315.088" gradientUnits="userSpaceOnUse">
<stop offset="0.619792" stop-color="#FF0000"/>
<stop offset="1" stop-color="#F06826"/>
</linearGradient>
<linearGradient id="paint1_linear_87_1298" x1="340.343" y1="6.40314" x2="340.343" y2="314.6" gradientUnits="userSpaceOnUse">
<stop offset="0.484375" stop-color="#F06826"/>
<stop offset="1" stop-color="#FF0000"/>
</linearGradient>
<linearGradient id="paint2_linear_87_1298" x1="342.108" y1="1.57727" x2="342.108" y2="314.112" gradientUnits="userSpaceOnUse">
<stop offset="0.651042" stop-color="#F06826"/>
<stop offset="1" stop-color="#FF0000"/>
</linearGradient>
<linearGradient id="paint3_linear_87_1298" x1="343.884" y1="4.1123" x2="343.884" y2="313.717" gradientUnits="userSpaceOnUse">
<stop offset="0.526042" stop-color="#F06826"/>
<stop offset="1" stop-color="#FF0000"/>
</linearGradient>
<linearGradient id="paint4_linear_87_1298" x1="345.696" y1="6.64728" x2="345.696" y2="313.21" gradientUnits="userSpaceOnUse">
<stop offset="0.59375" stop-color="#F06826"/>
<stop offset="1" stop-color="#FF0000"/>
</linearGradient>
<linearGradient id="paint5_linear_87_1298" x1="347.359" y1="9.18225" x2="347.359" y2="312.835" gradientUnits="userSpaceOnUse">
<stop offset="0.598958" stop-color="#F06826"/>
<stop offset="1" stop-color="#FF0000"/>
</linearGradient>
<linearGradient id="paint6_linear_87_1298" x1="349.106" y1="11.6233" x2="349.106" y2="312.309" gradientUnits="userSpaceOnUse">
<stop offset="0.651042" stop-color="#F06826"/>
<stop offset="1" stop-color="#FF0000"/>
</linearGradient>
<linearGradient id="paint7_linear_87_1298" x1="350.853" y1="2.10309" x2="350.853" y2="311.971" gradientUnits="userSpaceOnUse">
<stop offset="0.723958" stop-color="#F06826"/>
<stop offset="1" stop-color="#FF0000"/>
</linearGradient>
<linearGradient id="paint8_linear_87_1298" x1="291.909" y1="132.212" x2="175.086" y2="-155.988" gradientUnits="userSpaceOnUse">
<stop stop-color="#F06826"/>
<stop offset="0.421875" stop-color="#FF0000"/>
</linearGradient>
<linearGradient id="paint9_linear_87_1298" x1="444.116" y1="181.912" x2="354.712" y2="24.5444" gradientUnits="userSpaceOnUse">
<stop stop-color="#F06826"/>
<stop offset="1" stop-color="#FF0000"/>
</linearGradient>
<linearGradient id="paint10_linear_87_1298" x1="410.729" y1="287.382" x2="347.37" y2="19.8275" gradientUnits="userSpaceOnUse">
<stop offset="0.145833" stop-color="#12203C"/>
<stop offset="0.385417" stop-color="#214181"/>
<stop offset="0.645833" stop-color="#CA4A0D"/>
<stop offset="0.75" stop-color="#F95E13"/>
<stop offset="0.885417" stop-color="#C44A0E"/>
<stop offset="1" stop-color="#250D02"/>
</linearGradient>
</defs>
</svg>
