<svg width="507" height="495" viewBox="0 0 507 495" fill="none" xmlns="http://www.w3.org/2000/svg">
<g clip-path="url(#clip0_87_1123)">
<path d="M282.718 462.272L83.756 347.265C78.1172 344.084 78.832 338.328 85.3444 334.543L220.819 256.254C227.315 252.501 237.147 252.088 242.786 255.348L441.733 370.451C447.356 373.711 446.657 379.388 440.144 383.173L304.654 461.461C298.174 465.119 288.341 465.533 282.718 462.272Z" fill="url(#paint0_linear_87_1123)"/>
<path d="M449.087 144.157L246.836 27.3525C245.836 26.6653 244.688 26.2224 243.485 26.0595C242.282 25.8966 241.058 26.018 239.911 26.4142L239.577 26.5573H239.498L232.906 29.6583L240.086 33.3159C240.077 33.4483 240.077 33.5811 240.086 33.7135V200.023C240.086 208.34 245.248 218.056 251.586 221.714L448.436 335.418L449.563 344.689L456.743 341.254C459.11 339.87 460.619 336.722 460.619 332.237V165.928C460.571 157.531 455.44 147.815 449.087 144.157Z" fill="#F06826"/>
<path d="M449.087 144.157L246.836 27.3525C245.836 26.6653 244.688 26.2224 243.485 26.0595C242.282 25.8966 241.058 26.018 239.911 26.4142L239.577 26.5573H239.498L232.906 29.6583L240.086 33.3159C240.078 33.4483 240.078 33.5811 240.086 33.7135V143.314L332.133 216.132L457.108 153.158C455.293 149.489 452.521 146.38 449.087 144.157Z" fill="#FF0000"/>
<path d="M452.47 146.765L432.647 155.114L447.61 166.659L460.11 161.332C459.014 155.842 456.362 150.785 452.47 146.765Z" fill="white"/>
<path d="M442.511 343.75L240.261 226.93C233.907 223.272 228.777 213.556 228.761 205.239V38.9295C228.761 30.5966 233.907 26.8277 240.245 30.4853L442.495 147.29C448.849 150.963 453.979 160.68 453.995 168.997V335.306C453.995 343.639 448.849 347.408 442.511 343.75Z" fill="url(#paint1_linear_87_1123)"/>
<path d="M435.776 331.378L246.948 222.334C241.15 218.979 236.433 210.089 236.433 202.472V50.284C236.433 42.6667 241.198 39.1522 246.932 42.5712L435.824 151.599C441.622 154.955 446.339 163.844 446.339 171.462V323.65C446.291 331.267 441.59 334.734 435.776 331.378Z" fill="white"/>
<path d="M435.776 331.378L246.948 222.334C241.15 218.979 236.433 210.089 236.433 202.472V50.284C236.433 42.6667 241.198 39.1522 246.932 42.5712L435.824 151.599C441.622 154.955 446.339 163.844 446.339 171.462V323.65C446.291 331.267 441.59 334.734 435.776 331.378Z" fill="white"/>
<path d="M445.497 348.903L418.304 345.309L242.771 243.834C237.132 240.654 227.3 240.988 220.803 244.741L96.3999 316.621L79.96 314.458V323.793C79.9683 325.017 80.3294 326.213 81 327.237C81.6706 328.261 82.6221 329.069 83.7404 329.565L282.703 444.573C288.326 447.833 298.158 447.419 304.654 443.666L440.145 365.378C443.798 363.263 445.609 360.607 445.513 357.983L445.497 348.903Z" fill="#F06826"/>
<path d="M313.661 284.784L301.192 277.58H164.002L96.3999 316.621L79.96 314.458V323.793C79.9683 325.017 80.3294 326.213 81 327.237C81.6706 328.261 82.6221 329.069 83.7404 329.565L282.703 444.573C286.199 446.345 290.127 447.084 294.028 446.704L313.661 284.784Z" fill="#FF0000"/>
<path d="M87.2507 315.412L79.96 314.458V323.793C79.9683 325.017 80.3294 326.213 81 327.237C81.6706 328.261 82.6221 329.069 83.7404 329.565L87.2348 331.601L87.2507 315.412Z" fill="url(#paint2_linear_87_1123)"/>
<path d="M284.72 445.511C290.864 447.497 297.532 447.082 303.383 444.35V423.518H284.72V445.511Z" fill="white"/>
<path d="M282.718 435.238L83.756 320.231C78.1172 317.05 78.832 311.309 85.3444 307.508L220.819 229.22C227.315 225.467 237.147 225.069 242.786 228.314L441.733 343.416C447.356 346.677 446.657 352.354 440.144 356.139L304.654 434.427C298.174 438.085 288.341 438.498 282.718 435.238Z" fill="url(#paint3_linear_87_1123)"/>
<path d="M440.16 352.64L304.67 430.881C298.174 434.634 288.341 435.031 282.718 431.787L83.756 316.827C82.1628 316.015 80.9162 314.654 80.2456 312.995C79.372 315.667 80.4998 318.354 83.756 320.231L282.718 435.238C288.341 438.498 298.174 438.085 304.67 434.332L440.16 356.043C444.528 353.531 446.26 350.127 445.227 347.185C444.252 349.557 442.452 351.495 440.16 352.64Z" fill="white"/>
<path d="M168.37 282.16L159.364 276.96C158.649 276.546 158.744 275.815 159.57 275.369L170.197 269.215C170.627 268.979 171.107 268.846 171.597 268.827C172.088 268.807 172.576 268.902 173.024 269.104L182.014 274.304C182.745 274.717 182.65 275.449 181.824 275.894L171.197 282.032C170.768 282.271 170.289 282.407 169.799 282.429C169.308 282.451 168.819 282.359 168.37 282.16Z" fill="#F06826"/>
<path d="M182.268 290.206L173.278 284.99C172.547 284.577 172.643 283.845 173.469 283.4L184.095 277.262C184.524 277.023 185.003 276.888 185.494 276.865C185.984 276.843 186.473 276.935 186.922 277.134L195.929 282.335C196.643 282.764 196.548 283.496 195.722 283.925L185.096 290.063C184.668 290.304 184.189 290.443 183.699 290.468C183.208 290.492 182.719 290.403 182.268 290.206Z" fill="#F06826"/>
<path d="M196.119 298.237L187.113 293.037C186.382 292.608 186.478 291.892 187.319 291.447L197.946 285.308C198.374 285.075 198.851 284.943 199.339 284.924C199.826 284.905 200.312 284.998 200.757 285.197L209.763 290.397C210.478 290.811 210.399 291.542 209.557 291.987L198.931 298.142C198.501 298.373 198.024 298.501 197.536 298.518C197.048 298.535 196.564 298.438 196.119 298.237Z" fill="#F06826"/>
<path d="M215.402 291.606L206.396 286.39C205.681 285.976 205.777 285.245 206.603 284.8L215.529 279.647C215.957 279.411 216.433 279.277 216.92 279.255C217.408 279.233 217.894 279.323 218.341 279.52L227.347 284.72C228.062 285.149 227.982 285.881 227.141 286.31L218.23 291.463C217.802 291.704 217.323 291.842 216.833 291.867C216.342 291.892 215.853 291.802 215.402 291.606Z" fill="#F06826"/>
<path d="M229.301 299.637L220.31 294.436C219.58 294.007 219.675 293.291 220.501 292.846L229.428 287.694C229.856 287.46 230.333 287.329 230.82 287.309C231.308 287.29 231.793 287.384 232.239 287.582L241.245 292.783C241.976 293.196 241.881 293.928 241.039 294.373L232.128 299.541C231.696 299.775 231.216 299.905 230.725 299.921C230.235 299.938 229.747 299.84 229.301 299.637Z" fill="#F06826"/>
<path d="M243.215 307.667L234.241 302.467C233.51 302.054 233.606 301.322 234.447 300.877L243.358 295.709C243.789 295.473 244.268 295.34 244.759 295.321C245.249 295.301 245.738 295.396 246.186 295.597L255.176 300.798C255.907 301.211 255.811 301.943 254.985 302.388L246.059 307.54C245.627 307.781 245.146 307.918 244.652 307.94C244.158 307.963 243.666 307.869 243.215 307.667Z" fill="#F06826"/>
<path d="M257.114 315.714L248.107 310.498C247.393 310.085 247.472 309.353 248.314 308.908L257.225 303.755C257.654 303.517 258.133 303.381 258.624 303.359C259.114 303.337 259.603 303.429 260.052 303.628L269.058 308.828C269.773 309.258 269.694 309.989 268.852 310.419L259.925 315.571C259.499 315.81 259.024 315.947 258.536 315.971C258.049 315.996 257.562 315.908 257.114 315.714Z" fill="#F06826"/>
<path d="M271.012 323.745L262.006 318.545C261.291 318.115 261.386 317.384 262.212 316.955L271.139 311.802C271.562 311.556 272.035 311.411 272.523 311.378C273.01 311.344 273.499 311.424 273.951 311.611L282.957 316.811C283.672 317.225 283.592 317.956 282.75 318.402L273.839 323.57C273.414 323.816 272.937 323.96 272.446 323.99C271.956 324.021 271.465 323.937 271.012 323.745Z" fill="#F06826"/>
<path d="M284.91 331.776L275.92 326.576C275.189 326.162 275.285 325.431 276.111 324.985L285.038 319.833C285.466 319.599 285.943 319.468 286.43 319.449C286.918 319.429 287.403 319.523 287.849 319.722L296.855 324.922C297.586 325.335 297.491 326.067 296.649 326.512L287.738 331.664C287.307 331.9 286.828 332.033 286.337 332.053C285.847 332.072 285.358 331.977 284.91 331.776Z" fill="#F06826"/>
<path d="M298.825 339.822L289.835 334.606C289.104 334.193 289.199 333.461 290.041 333.016L298.952 327.864C299.381 327.625 299.86 327.49 300.351 327.468C300.841 327.445 301.33 327.538 301.779 327.737L310.77 332.937C311.5 333.366 311.405 334.098 310.579 334.527L301.652 339.679C301.224 339.92 300.746 340.059 300.255 340.084C299.765 340.109 299.275 340.019 298.825 339.822Z" fill="#F06826"/>
<path d="M312.723 347.853L303.717 342.653C303.002 342.224 303.082 341.492 303.923 341.063L312.834 335.91C313.265 335.674 313.744 335.542 314.235 335.522C314.725 335.503 315.214 335.598 315.662 335.799L324.668 340.999C325.383 341.413 325.287 342.144 324.461 342.59L315.535 347.742C315.106 347.975 314.629 348.107 314.142 348.126C313.654 348.146 313.169 348.052 312.723 347.853Z" fill="#F06826"/>
<path d="M326.622 355.884L317.615 350.684C316.901 350.271 316.996 349.539 317.822 349.094L326.749 343.941C327.177 343.708 327.654 343.576 328.141 343.557C328.629 343.538 329.114 343.631 329.56 343.83L338.566 349.03C339.281 349.444 339.202 350.175 338.36 350.62L329.449 355.773C329.018 356.009 328.539 356.142 328.048 356.161C327.558 356.18 327.069 356.086 326.622 355.884Z" fill="#F06826"/>
<path d="M340.52 363.915L331.53 358.715C330.799 358.301 330.895 357.57 331.721 357.125L340.647 351.972C341.075 351.736 341.551 351.602 342.038 351.58C342.526 351.558 343.012 351.648 343.459 351.845L352.465 357.045C353.196 357.474 353.1 358.206 352.259 358.635L343.348 363.788C342.918 364.026 342.439 364.162 341.949 364.184C341.458 364.206 340.969 364.114 340.52 363.915Z" fill="#F06826"/>
<path d="M235.829 287.757L226.823 282.557C226.092 282.144 226.188 281.412 227.029 280.967L235.94 275.799C236.371 275.563 236.85 275.43 237.341 275.41C237.832 275.391 238.32 275.486 238.768 275.687L247.774 280.888C248.489 281.317 248.393 282.032 247.567 282.478L238.704 287.757C238.259 287.984 237.766 288.102 237.267 288.102C236.767 288.102 236.275 287.984 235.829 287.757Z" fill="#FF0000"/>
<path d="M221.772 279.631L212.781 274.431C212.051 274.018 212.146 273.286 212.972 272.841L221.899 267.688C222.328 267.45 222.807 267.314 223.298 267.292C223.788 267.27 224.277 267.362 224.726 267.561L233.717 272.761C234.447 273.191 234.352 273.922 233.526 274.352L224.599 279.504C224.17 279.743 223.691 279.878 223.2 279.9C222.71 279.922 222.221 279.83 221.772 279.631Z" fill="#FF0000"/>
<path d="M207.651 271.473L188.256 260.341C187.542 259.928 187.621 259.196 188.463 258.751L197.374 253.583C197.804 253.347 198.284 253.214 198.774 253.195C199.265 253.175 199.753 253.27 200.201 253.471L219.595 264.603C220.31 265.017 220.215 265.748 219.389 266.194L210.415 271.346C209.993 271.574 209.526 271.705 209.047 271.727C208.569 271.749 208.091 271.662 207.651 271.473Z" fill="#F06826"/>
<path d="M217.531 261.534L201.79 252.438C201.075 252.024 201.154 251.293 201.996 250.848L210.907 245.679C211.338 245.443 211.817 245.31 212.308 245.291C212.798 245.272 213.287 245.366 213.734 245.568L229.459 254.664C230.19 255.078 230.095 255.809 229.269 256.254L220.342 261.423C219.913 261.656 219.437 261.788 218.949 261.807C218.462 261.826 217.976 261.733 217.531 261.534Z" fill="#F06826"/>
<path d="M249.791 295.836L240.785 290.62C240.07 290.206 240.149 289.475 240.991 289.03L249.918 283.877C250.345 283.641 250.821 283.507 251.309 283.485C251.796 283.463 252.283 283.554 252.729 283.75L261.736 288.966C262.45 289.38 262.371 290.111 261.529 290.556L252.618 295.709C252.189 295.947 251.71 296.083 251.22 296.105C250.729 296.127 250.24 296.035 249.791 295.836Z" fill="#FF0000"/>
<path d="M263.689 303.867L254.683 298.667C253.968 298.237 254.064 297.522 254.89 297.076L263.816 291.924C264.245 291.69 264.722 291.559 265.209 291.54C265.697 291.52 266.182 291.614 266.628 291.813L275.634 297.013C276.365 297.426 276.269 298.158 275.428 298.603L266.517 303.771C266.085 304.005 265.605 304.135 265.114 304.151C264.624 304.168 264.136 304.071 263.689 303.867Z" fill="#F06826"/>
<path d="M277.588 311.898L268.598 306.697C267.867 306.284 267.962 305.552 268.788 305.107L277.715 299.939C278.146 299.703 278.625 299.57 279.116 299.551C279.606 299.531 280.095 299.626 280.543 299.827L289.533 305.028C290.264 305.441 290.168 306.173 289.342 306.618L280.416 311.77C279.986 312.009 279.507 312.144 279.017 312.167C278.526 312.189 278.037 312.097 277.588 311.898Z" fill="#F06826"/>
<path d="M291.502 319.944L282.496 314.792C281.766 314.378 281.861 313.647 282.703 313.202L291.614 308.049C292.043 307.811 292.522 307.675 293.012 307.653C293.503 307.631 293.992 307.723 294.441 307.922L303.447 313.138C304.162 313.551 304.067 314.283 303.241 314.728L294.314 319.881C293.882 320.107 293.403 320.23 292.916 320.241C292.428 320.252 291.944 320.15 291.502 319.944Z" fill="#F06826"/>
<path d="M305.401 327.975L296.395 322.743C295.68 322.314 295.759 321.598 296.601 321.153L305.528 316C305.956 315.767 306.433 315.635 306.921 315.616C307.408 315.597 307.894 315.69 308.339 315.889L317.346 321.089C318.06 321.503 317.981 322.234 317.139 322.68L308.228 327.848C307.799 328.086 307.32 328.222 306.829 328.244C306.339 328.266 305.85 328.174 305.401 327.975Z" fill="#F06826"/>
<path d="M319.299 336.006L310.293 330.806C309.578 330.392 309.674 329.661 310.5 329.216L319.426 324.047C319.855 323.814 320.332 323.682 320.819 323.663C321.307 323.644 321.792 323.737 322.238 323.936L331.244 329.136C331.975 329.549 331.879 330.281 331.037 330.726L322.127 335.879C321.697 336.117 321.218 336.253 320.728 336.275C320.237 336.297 319.748 336.205 319.299 336.006Z" fill="#F06826"/>
<path d="M333.197 344.053L324.207 338.837C323.477 338.423 323.572 337.692 324.398 337.246L333.325 332.094C333.754 331.855 334.233 331.72 334.723 331.698C335.214 331.676 335.703 331.768 336.152 331.967L345.142 337.183C345.873 337.596 345.778 338.328 344.952 338.773L336.025 343.925C335.595 344.164 335.117 344.3 334.626 344.322C334.136 344.344 333.647 344.252 333.197 344.053Z" fill="#F06826"/>
<path d="M347.112 352.083L338.106 346.883C337.375 346.454 337.471 345.738 338.313 345.293L347.224 340.141C347.654 339.905 348.134 339.772 348.624 339.752C349.115 339.733 349.603 339.828 350.051 340.029L359.057 345.229C359.772 345.643 359.677 346.374 358.851 346.82L349.924 351.988C349.494 352.219 349.017 352.348 348.529 352.364C348.042 352.381 347.557 352.285 347.112 352.083Z" fill="#F06826"/>
<path d="M361.011 360.114L352.004 354.914C351.29 354.501 351.369 353.769 352.211 353.324L361.138 348.155C361.566 347.922 362.043 347.79 362.53 347.771C363.018 347.752 363.503 347.845 363.949 348.044L372.955 353.244C373.67 353.658 373.591 354.389 372.749 354.835L363.822 359.987C363.395 360.223 362.919 360.357 362.431 360.379C361.944 360.401 361.458 360.311 361.011 360.114Z" fill="#F06826"/>
<path d="M385.726 374.411L366.078 363.056C365.363 362.627 365.458 361.895 366.284 361.466L375.211 356.314C375.64 356.08 376.116 355.949 376.604 355.929C377.091 355.91 377.577 356.003 378.022 356.202L397.671 367.557C398.386 367.97 398.306 368.702 397.464 369.147L388.538 374.299C388.109 374.533 387.632 374.664 387.145 374.684C386.657 374.703 386.172 374.61 385.726 374.411Z" fill="#F06826"/>
<path d="M412.792 358.762L396.21 349.221C395.495 348.807 395.574 348.076 396.416 347.631L405.327 342.462C405.758 342.226 406.237 342.093 406.728 342.074C407.218 342.055 407.706 342.15 408.154 342.351L424.737 351.893C425.452 352.306 425.372 353.038 424.531 353.483L415.604 358.635C415.176 358.871 414.701 359.006 414.213 359.028C413.725 359.05 413.239 358.959 412.792 358.762Z" fill="#F06826"/>
<path d="M274.141 294.262L265.135 289.061C264.404 288.632 264.5 287.901 265.341 287.471L274.252 282.319C274.682 282.08 275.16 281.945 275.651 281.923C276.142 281.9 276.631 281.993 277.08 282.192L286.086 287.408C286.801 287.821 286.705 288.553 285.879 288.998L276.953 294.118C276.526 294.357 276.051 294.494 275.564 294.519C275.076 294.544 274.589 294.456 274.141 294.262Z" fill="#F06826"/>
<path d="M259.893 286.024L250.887 280.824C250.156 280.395 250.252 279.679 251.093 279.234L260.004 274.081C260.435 273.845 260.914 273.712 261.405 273.693C261.895 273.674 262.384 273.768 262.832 273.97L271.838 279.17C272.553 279.584 272.457 280.315 271.631 280.76L262.705 285.929C262.275 286.16 261.797 286.288 261.31 286.305C260.822 286.321 260.338 286.225 259.893 286.024Z" fill="#F06826"/>
<path d="M245.646 277.787L236.639 272.586C235.909 272.173 236.004 271.441 236.846 270.996L245.757 265.844C246.187 265.608 246.667 265.475 247.157 265.455C247.648 265.436 248.136 265.531 248.584 265.732L257.59 270.933C258.305 271.346 258.21 272.077 257.384 272.523L248.536 277.675C248.098 277.922 247.607 278.06 247.104 278.079C246.602 278.099 246.102 277.998 245.646 277.787Z" fill="#FF0000"/>
<path d="M231.397 269.549L222.391 264.349C221.661 263.935 221.756 263.204 222.598 262.759L231.509 257.606C231.939 257.37 232.419 257.237 232.909 257.218C233.4 257.199 233.888 257.293 234.336 257.495L243.342 262.695C244.057 263.108 243.962 263.84 243.136 264.285L234.241 269.438C233.808 269.676 233.326 269.81 232.832 269.83C232.339 269.849 231.847 269.753 231.397 269.549Z" fill="#F06826"/>
<path d="M288.039 302.292L279.033 297.092C278.319 296.679 278.398 295.947 279.24 295.502L288.246 290.302C288.675 290.068 289.151 289.937 289.639 289.918C290.126 289.898 290.612 289.992 291.057 290.19L300.064 295.391C300.778 295.804 300.699 296.536 299.857 296.981L290.946 302.133C290.509 302.39 290.018 302.538 289.512 302.566C289.006 302.593 288.502 302.5 288.039 302.292Z" fill="#F06826"/>
<path d="M301.938 310.323L293.011 305.123C292.297 304.71 292.392 303.978 293.218 303.533L302.145 298.364C302.573 298.131 303.05 298 303.537 297.98C304.025 297.961 304.51 298.054 304.956 298.253L313.962 303.453C314.693 303.883 314.598 304.614 313.756 305.044L304.845 310.196C304.406 310.447 303.913 310.59 303.407 310.612C302.901 310.635 302.398 310.535 301.938 310.323Z" fill="#F06826"/>
<path d="M315.837 318.37L306.846 313.202C306.116 312.772 306.211 312.041 307.037 311.611L315.964 306.459C316.393 306.22 316.872 306.085 317.363 306.063C317.853 306.041 318.342 306.133 318.791 306.332L327.781 311.548C328.512 311.961 328.417 312.693 327.591 313.138L318.664 318.29C318.231 318.521 317.75 318.649 317.26 318.663C316.769 318.676 316.282 318.576 315.837 318.37Z" fill="#F06826"/>
<path d="M329.751 326.401L320.745 321.153C320.014 320.739 320.109 320.008 320.951 319.563L329.862 314.41C330.293 314.174 330.772 314.041 331.263 314.022C331.753 314.003 332.242 314.097 332.69 314.299L341.696 319.499C342.411 319.913 342.315 320.644 341.489 321.089L332.562 326.242C332.138 326.483 331.663 326.623 331.175 326.65C330.688 326.678 330.2 326.592 329.751 326.401Z" fill="#F06826"/>
<path d="M343.649 334.432L334.643 329.231C333.928 328.818 334.008 328.086 334.85 327.641L343.776 322.473C344.205 322.239 344.682 322.108 345.169 322.089C345.657 322.069 346.142 322.163 346.588 322.361L355.594 327.514C356.309 327.943 356.229 328.659 355.388 329.104L346.461 334.257C346.037 334.5 345.563 334.643 345.075 334.673C344.588 334.703 344.1 334.621 343.649 334.432Z" fill="#F06826"/>
<path d="M357.548 342.478L348.605 337.278C347.89 336.849 347.986 336.117 348.812 335.688L357.738 330.535C358.166 330.299 358.642 330.165 359.129 330.143C359.617 330.121 360.103 330.212 360.55 330.408L369.556 335.624C370.287 336.038 370.191 336.769 369.35 337.215L360.439 342.367C360 342.613 359.509 342.752 359.007 342.771C358.504 342.791 358.004 342.69 357.548 342.478Z" fill="#F06826"/>
<path d="M371.447 350.509L362.456 345.309C361.726 344.895 361.821 344.164 362.647 343.719L371.574 338.566C372.004 338.33 372.484 338.197 372.974 338.178C373.465 338.159 373.953 338.253 374.401 338.455L383.391 343.655C384.122 344.069 384.027 344.8 383.201 345.245L374.274 350.414C373.842 350.647 373.362 350.777 372.871 350.794C372.381 350.81 371.893 350.713 371.447 350.509Z" fill="#F06826"/>
<path d="M385.361 358.54L376.355 353.34C375.624 352.926 375.719 352.195 376.561 351.749L385.472 346.581C385.903 346.345 386.382 346.212 386.873 346.193C387.363 346.174 387.852 346.268 388.299 346.47L397.306 351.67C398.02 352.099 397.925 352.815 397.099 353.26L388.172 358.413C387.745 358.649 387.269 358.783 386.781 358.805C386.294 358.827 385.808 358.736 385.361 358.54Z" fill="#F06826"/>
<path d="M399.259 366.587L390.253 361.37C389.538 360.957 389.618 360.226 390.459 359.78L399.434 354.548C399.863 354.31 400.342 354.174 400.833 354.152C401.323 354.13 401.812 354.222 402.261 354.421L411.267 359.637C411.982 360.051 411.903 360.782 411.061 361.227L402.134 366.38C401.705 366.639 401.221 366.792 400.721 366.828C400.222 366.864 399.721 366.781 399.259 366.587Z" fill="#F06826"/>
<path d="M266.819 274.383L257.813 269.183C257.098 268.754 257.177 268.038 258.019 267.593L266.93 262.44C267.361 262.204 267.84 262.072 268.331 262.052C268.821 262.033 269.309 262.128 269.757 262.329L278.763 267.529C279.478 267.943 279.399 268.674 278.557 269.12L269.63 274.288C269.2 274.519 268.723 274.648 268.236 274.664C267.748 274.681 267.263 274.585 266.819 274.383Z" fill="#F06826"/>
<path d="M252.984 266.384L243.978 261.184C243.263 260.771 243.342 260.039 244.184 259.594L253.111 254.441C253.539 254.208 254.016 254.076 254.504 254.057C254.991 254.038 255.477 254.131 255.922 254.33L264.929 259.53C265.643 259.944 265.564 260.675 264.722 261.121L255.811 266.273C255.38 266.509 254.901 266.642 254.411 266.661C253.92 266.681 253.432 266.586 252.984 266.384Z" fill="#F06826"/>
<path d="M239.149 258.385L230.143 253.185C229.428 252.772 229.523 252.04 230.349 251.595L239.276 246.427C239.705 246.193 240.181 246.062 240.669 246.042C241.156 246.023 241.642 246.116 242.087 246.315L251.094 251.515C251.808 251.929 251.729 252.66 250.887 253.106L241.976 258.258C241.547 258.497 241.068 258.632 240.577 258.654C240.087 258.676 239.598 258.584 239.149 258.385Z" fill="#F06826"/>
<path d="M225.314 250.386L216.308 245.186C215.593 244.773 215.688 244.041 216.514 243.596L225.441 238.443C225.868 238.207 226.344 238.073 226.832 238.051C227.319 238.029 227.806 238.12 228.252 238.316L237.259 243.516C237.989 243.946 237.894 244.677 237.052 245.107L228.141 250.259C227.712 250.498 227.233 250.633 226.743 250.655C226.252 250.677 225.763 250.585 225.314 250.386Z" fill="#F06826"/>
<path d="M239.546 242.165L230.54 236.965C229.809 236.551 229.904 235.82 230.746 235.374L233.685 233.673C234.114 233.434 234.593 233.299 235.083 233.276C235.574 233.254 236.063 233.346 236.512 233.545L245.518 238.746C246.233 239.175 246.138 239.907 245.312 240.336L242.357 242.037C241.93 242.273 241.454 242.408 240.966 242.43C240.479 242.452 239.993 242.361 239.546 242.165Z" fill="#F06826"/>
<path d="M257.59 252.613L248.536 247.397C247.821 246.983 247.917 246.252 248.743 245.806L251.697 244.105C252.124 243.869 252.6 243.735 253.088 243.712C253.576 243.69 254.062 243.781 254.509 243.978L263.515 249.194C264.245 249.607 264.15 250.339 263.308 250.784L260.37 252.485C259.946 252.716 259.476 252.848 258.995 252.87C258.513 252.892 258.033 252.804 257.59 252.613Z" fill="#F06826"/>
<path d="M271.378 260.564L262.371 255.364C261.641 254.95 261.736 254.219 262.562 253.774L265.516 252.056C265.947 251.82 266.426 251.687 266.917 251.668C267.407 251.649 267.896 251.743 268.344 251.945L277.334 257.145C278.065 257.574 277.969 258.29 277.143 258.735L274.189 260.437C273.762 260.673 273.286 260.807 272.798 260.829C272.311 260.851 271.824 260.76 271.378 260.564Z" fill="#F06826"/>
<path d="M285.149 268.531L276.143 263.331C275.412 262.918 275.507 262.186 276.349 261.741L279.288 260.039C279.718 259.803 280.198 259.67 280.688 259.651C281.179 259.632 281.667 259.726 282.115 259.928L291.121 265.128C291.836 265.542 291.741 266.273 290.915 266.718L287.96 268.436C287.531 268.667 287.053 268.795 286.566 268.812C286.078 268.829 285.593 268.733 285.149 268.531Z" fill="#F06826"/>
<path d="M298.92 276.498L289.914 271.298C289.199 270.869 289.279 270.137 290.121 269.708L293.075 268.006C293.502 267.77 293.978 267.636 294.466 267.614C294.953 267.592 295.44 267.683 295.887 267.879L304.893 273.095C305.608 273.509 305.528 274.24 304.686 274.685L301.748 276.387C301.317 276.623 300.838 276.756 300.347 276.775C299.857 276.795 299.368 276.7 298.92 276.498Z" fill="#F06826"/>
<path d="M375.83 320.946L366.824 315.746C366.109 315.333 366.189 314.601 367.031 314.156L369.969 312.454C370.4 312.218 370.879 312.085 371.37 312.066C371.86 312.047 372.349 312.141 372.797 312.343L381.803 317.543C382.518 317.956 382.438 318.688 381.596 319.133L378.642 320.835C378.213 321.068 377.737 321.2 377.249 321.219C376.762 321.238 376.276 321.145 375.83 320.946Z" fill="#F06826"/>
<path d="M389.601 328.913L380.595 323.713C379.881 323.284 379.976 322.552 380.802 322.123L383.756 320.421C384.185 320.188 384.661 320.056 385.149 320.037C385.637 320.018 386.122 320.111 386.568 320.31L395.574 325.51C396.305 325.924 396.209 326.655 395.367 327.1L392.429 328.818C391.997 329.051 391.517 329.182 391.026 329.198C390.536 329.215 390.048 329.117 389.601 328.913Z" fill="#F06826"/>
<path d="M403.373 336.881L394.383 331.664C393.652 331.251 393.748 330.52 394.574 330.074L397.528 328.373C397.957 328.134 398.436 327.998 398.927 327.976C399.417 327.954 399.906 328.046 400.355 328.245L409.346 333.461C410.076 333.875 409.981 334.606 409.155 335.052L406.201 336.753C405.771 336.992 405.292 337.127 404.802 337.15C404.311 337.172 403.822 337.08 403.373 336.881Z" fill="#F06826"/>
<path d="M417.16 344.832L408.154 339.632C407.423 339.218 407.519 338.487 408.36 338.041L411.299 336.324C411.73 336.088 412.209 335.955 412.7 335.936C413.19 335.916 413.679 336.011 414.126 336.213L423.133 341.413C423.847 341.842 423.752 342.558 422.926 343.003L419.972 344.705C419.544 344.941 419.068 345.075 418.581 345.097C418.093 345.119 417.607 345.028 417.16 344.832Z" fill="#F06826"/>
<path d="M280.717 282.414L271.711 277.214C270.996 276.8 271.092 276.069 271.918 275.624L280.844 270.455C281.273 270.222 281.749 270.09 282.237 270.071C282.725 270.052 283.21 270.145 283.656 270.344L292.662 275.544C293.377 275.958 293.297 276.689 292.455 277.134L283.481 282.303C283.059 282.529 282.591 282.656 282.112 282.675C281.633 282.695 281.157 282.605 280.717 282.414Z" fill="#F06826"/>
<path d="M294.6 290.461L285.61 285.245C284.879 284.831 284.974 284.1 285.8 283.655L294.727 278.502C295.154 278.266 295.63 278.132 296.118 278.11C296.605 278.088 297.092 278.178 297.538 278.375L306.545 283.575C307.275 284.004 307.18 284.736 306.338 285.165L297.427 290.318C296.999 290.559 296.521 290.697 296.03 290.722C295.54 290.747 295.05 290.657 294.6 290.461Z" fill="#F06826"/>
<path d="M308.53 298.492L299.524 293.292C298.793 292.862 298.888 292.131 299.73 291.701L308.641 286.549C309.072 286.313 309.551 286.18 310.042 286.161C310.532 286.141 311.021 286.236 311.468 286.438L320.459 291.638C321.189 292.051 321.094 292.783 320.268 293.228L311.341 298.396C310.911 298.627 310.434 298.756 309.947 298.773C309.459 298.789 308.974 298.693 308.53 298.492Z" fill="#F06826"/>
<path d="M322.429 306.522L313.422 301.322C312.708 300.909 312.787 300.177 313.629 299.732L322.54 294.58C322.97 294.344 323.45 294.211 323.94 294.191C324.431 294.172 324.919 294.267 325.367 294.468L334.373 299.668C335.088 300.082 334.993 300.813 334.167 301.259L325.24 306.411C324.811 306.645 324.335 306.776 323.847 306.795C323.36 306.815 322.874 306.721 322.429 306.522Z" fill="#F06826"/>
<path d="M336.327 314.569L327.321 309.353C326.606 308.94 326.701 308.208 327.527 307.763L336.454 302.61C336.882 302.374 337.357 302.24 337.845 302.218C338.333 302.196 338.819 302.287 339.266 302.483L348.272 307.683C348.987 308.113 348.907 308.844 348.065 309.274L339.154 314.426C338.726 314.667 338.248 314.805 337.758 314.83C337.267 314.855 336.777 314.766 336.327 314.569Z" fill="#F06826"/>
<path d="M350.194 322.6L341.203 317.4C340.473 316.97 340.568 316.239 341.394 315.81L350.321 310.657C350.749 310.424 351.226 310.292 351.713 310.273C352.201 310.254 352.686 310.347 353.132 310.546L362.138 315.746C362.869 316.159 362.774 316.891 361.932 317.336L353.021 322.489C352.59 322.725 352.111 322.858 351.62 322.877C351.13 322.896 350.641 322.801 350.194 322.6Z" fill="#F06826"/>
<path d="M364.14 330.694L355.133 325.494C354.403 325.081 354.498 324.349 355.34 323.904L364.251 318.752C364.682 318.516 365.161 318.383 365.651 318.363C366.142 318.344 366.63 318.439 367.078 318.64L376.069 323.84C376.799 324.254 376.704 324.985 375.878 325.431L366.951 330.583C366.523 330.817 366.046 330.948 365.558 330.967C365.071 330.987 364.585 330.893 364.14 330.694Z" fill="#F06826"/>
<path d="M378.038 338.646L369.032 333.446C368.317 333.032 368.396 332.301 369.238 331.855L378.149 326.703C378.579 326.464 379.057 326.329 379.548 326.307C380.039 326.285 380.528 326.377 380.977 326.576L389.983 331.776C390.698 332.205 390.602 332.937 389.776 333.366L380.849 338.519C380.422 338.755 379.946 338.889 379.459 338.911C378.971 338.933 378.485 338.842 378.038 338.646Z" fill="#F06826"/>
<path d="M391.936 346.708L382.93 341.508C382.215 341.079 382.311 340.347 383.137 339.918L392.064 334.766C392.492 334.532 392.969 334.401 393.456 334.381C393.944 334.362 394.429 334.455 394.875 334.654L403.881 339.854C404.596 340.268 404.517 340.999 403.675 341.445L394.764 346.597C394.333 346.833 393.854 346.966 393.363 346.985C392.873 347.005 392.384 346.91 391.936 346.708Z" fill="#F06826"/>
<path d="M201.234 283.416L174.724 268.086C174.009 267.672 174.088 266.941 174.93 266.496L183.841 261.343C184.272 261.107 184.751 260.974 185.242 260.955C185.732 260.936 186.221 261.03 186.668 261.232L213.179 276.562C213.909 276.975 213.814 277.707 212.972 278.152L204.061 283.289C203.632 283.527 203.153 283.663 202.663 283.685C202.172 283.707 201.683 283.615 201.234 283.416Z" fill="#F06826"/>
<path d="M372.034 382.139L345.524 366.809C344.793 366.396 344.888 365.664 345.714 365.219L354.641 360.067C355.07 359.833 355.546 359.702 356.034 359.682C356.521 359.663 357.007 359.756 357.452 359.955L383.979 375.285C384.693 375.699 384.598 376.43 383.772 376.876L374.845 382.028C374.417 382.262 373.94 382.393 373.453 382.412C372.965 382.432 372.48 382.338 372.034 382.139Z" fill="#F06826"/>
<path d="M316.44 367.747L307.434 362.5C306.703 362.07 306.798 361.355 307.64 360.909L318.267 354.771C318.695 354.537 319.172 354.406 319.659 354.387C320.147 354.367 320.632 354.461 321.078 354.66L330.084 359.86C330.799 360.273 330.72 361.005 329.878 361.45L319.251 367.604C318.825 367.843 318.35 367.98 317.862 368.005C317.375 368.03 316.888 367.941 316.44 367.747Z" fill="#F06826"/>
<path d="M215.482 309.385L201.075 301.068C200.36 300.654 200.439 299.923 201.281 299.478L211.908 293.339C212.336 293.106 212.813 292.974 213.3 292.955C213.788 292.936 214.273 293.029 214.719 293.228L229.126 301.545C229.841 301.958 229.761 302.69 228.919 303.135L218.357 309.274C217.92 309.517 217.432 309.655 216.932 309.674C216.433 309.693 215.936 309.594 215.482 309.385Z" fill="#F06826"/>
<path d="M303.034 360.003L288.643 351.686C287.913 351.272 288.008 350.541 288.85 350.096L299.476 343.957C299.905 343.724 300.381 343.592 300.869 343.573C301.356 343.554 301.842 343.647 302.288 343.846L316.678 352.163C317.409 352.576 317.314 353.308 316.488 353.753L305.861 359.892C305.431 360.128 304.951 360.261 304.461 360.28C303.97 360.299 303.482 360.204 303.034 360.003Z" fill="#F06826"/>
<path d="M235.527 320.978L221.136 312.661C220.406 312.247 220.501 311.516 221.343 311.071L231.969 304.916C232.398 304.683 232.874 304.551 233.362 304.532C233.85 304.513 234.335 304.606 234.781 304.805L249.187 313.122C249.902 313.551 249.807 314.267 248.981 314.712L238.355 320.851C237.925 321.089 237.446 321.225 236.956 321.247C236.465 321.269 235.976 321.177 235.527 320.978Z" fill="#F06826"/>
<path d="M234.876 304.837L297.475 341.015C297.633 341.08 297.768 341.19 297.863 341.331C297.958 341.473 298.009 341.64 298.009 341.81C298.009 341.981 297.958 342.148 297.863 342.289C297.768 342.431 297.633 342.541 297.475 342.605L286.658 348.903C286.221 349.119 285.74 349.231 285.252 349.231C284.765 349.231 284.284 349.119 283.847 348.903L221.232 312.724L234.876 304.837Z" fill="#F06826"/>
<path d="M355.292 382.314L365.315 388.119C365.903 388.453 365.839 389.057 365.156 389.455L360.804 391.967C360.451 392.161 360.058 392.271 359.656 392.288C359.253 392.304 358.853 392.227 358.485 392.063L348.462 386.258C347.875 385.924 347.938 385.32 348.637 384.922L352.973 382.41C353.326 382.215 353.719 382.106 354.122 382.089C354.524 382.073 354.925 382.15 355.292 382.314Z" fill="#F06826"/>
<path d="M341.267 374.22L351.305 379.992C351.893 380.342 351.814 380.931 351.131 381.328L346.779 383.841C346.43 384.039 346.039 384.15 345.638 384.167C345.238 384.184 344.839 384.105 344.475 383.936L334.453 378.148C333.849 377.798 333.928 377.21 334.611 376.812L338.964 374.299C339.314 374.104 339.705 373.995 340.106 373.981C340.506 373.967 340.904 374.049 341.267 374.22Z" fill="#F06826"/>
<path d="M327.369 366.173L337.391 371.978C337.995 372.312 337.916 372.916 337.232 373.313L332.88 375.826C332.53 376.02 332.14 376.13 331.74 376.146C331.34 376.163 330.942 376.086 330.577 375.921L320.538 370.117C319.951 369.783 320.03 369.179 320.713 368.781L325.05 366.269C325.404 366.078 325.796 365.97 326.198 365.953C326.6 365.937 327 366.012 327.369 366.173Z" fill="#F06826"/>
<path d="M348.954 369.783L358.977 375.572C359.565 375.921 359.486 376.51 358.803 376.907L354.466 379.42C354.115 379.618 353.721 379.73 353.318 379.746C352.915 379.763 352.514 379.684 352.147 379.515L342.124 373.727C341.537 373.377 341.6 372.789 342.283 372.391L346.635 369.878C346.987 369.681 347.38 369.569 347.783 369.552C348.187 369.536 348.588 369.615 348.954 369.783Z" fill="#F06826"/>
<path opacity="0.4" d="M328.449 181.417L262.451 143.251C261.557 142.61 260.826 141.768 260.315 140.793C259.805 139.818 259.53 138.737 259.512 137.637V85.6355C259.512 83.4727 260.831 82.455 262.451 83.425L328.449 121.591C329.342 122.232 330.074 123.074 330.584 124.049C331.094 125.023 331.369 126.104 331.387 127.205V179.19C331.387 181.353 330.069 182.355 328.449 181.417Z" fill="url(#paint4_linear_87_1123)"/>
<path d="M282.417 146.304L281.94 146.034C280.979 145.36 280.191 144.469 279.639 143.433C279.087 142.396 278.787 141.244 278.764 140.07V115.294C278.764 113.004 280.161 111.954 281.94 112.94L282.417 113.211C283.376 113.886 284.164 114.777 284.715 115.813C285.267 116.849 285.568 118 285.594 119.174V143.95C285.53 146.224 284.132 147.306 282.417 146.304Z" fill="white"/>
<path d="M295.68 153.969L295.219 153.714C294.261 153.038 293.474 152.147 292.923 151.111C292.371 150.075 292.069 148.925 292.042 147.751V133.248C292.042 130.958 293.44 129.892 295.219 130.894L295.68 131.165C296.642 131.834 297.431 132.722 297.983 133.756C298.536 134.79 298.835 135.94 298.857 137.112V151.615C298.793 153.921 297.411 154.971 295.68 153.969Z" fill="white"/>
<path d="M308.895 161.65L308.435 161.38C307.472 160.708 306.682 159.817 306.129 158.781C305.577 157.744 305.278 156.591 305.258 155.416V120.907C305.258 118.602 306.64 117.552 308.435 118.554L308.895 118.808C309.854 119.484 310.64 120.376 311.192 121.412C311.744 122.447 312.045 123.598 312.072 124.772V159.296C312.072 161.586 310.674 162.636 308.895 161.65Z" fill="#FF0000"/>
<path d="M391.381 167.438L350.368 143.728C349.532 143.125 348.848 142.336 348.371 141.422C347.894 140.508 347.637 139.495 347.621 138.464C347.621 136.444 348.86 135.506 350.368 136.381L391.381 160.091C392.22 160.691 392.906 161.48 393.383 162.395C393.861 163.309 394.116 164.323 394.129 165.355C394.129 167.375 392.906 168.313 391.381 167.438Z" fill="white"/>
<path d="M364.998 166.627L350.368 158.167C349.532 157.565 348.848 156.775 348.371 155.861C347.894 154.947 347.637 153.935 347.621 152.903C347.621 150.868 348.86 149.946 350.368 150.82L364.998 159.28C365.839 159.879 366.527 160.668 367.007 161.582C367.487 162.496 367.746 163.511 367.761 164.544C367.761 166.58 366.523 167.502 364.998 166.627Z" fill="white"/>
<path d="M389.554 180.812L374.925 172.352C374.084 171.754 373.396 170.965 372.916 170.051C372.435 169.136 372.177 168.122 372.161 167.089C372.161 165.069 373.4 164.131 374.925 165.005L389.554 173.466C390.389 174.069 391.073 174.858 391.55 175.772C392.027 176.686 392.284 177.698 392.302 178.729C392.302 180.765 391.063 181.687 389.554 180.812Z" fill="#FF0000"/>
<path d="M420.401 198.703L399.434 186.553C398.601 185.948 397.919 185.158 397.442 184.245C396.965 183.332 396.706 182.32 396.686 181.29C396.686 179.254 397.925 178.316 399.434 179.206L420.369 191.356C421.205 191.958 421.889 192.748 422.366 193.662C422.843 194.576 423.1 195.589 423.117 196.62C423.149 198.703 421.91 199.578 420.401 198.703Z" fill="white"/>
<path d="M401.61 202.217L350.368 172.607C349.532 172.005 348.848 171.215 348.371 170.301C347.894 169.387 347.637 168.374 347.621 167.343C347.621 165.307 348.86 164.385 350.368 165.26L401.61 194.87C402.448 195.471 403.133 196.26 403.611 197.174C404.088 198.089 404.344 199.103 404.358 200.134C404.358 202.17 403.135 203.108 401.61 202.217Z" fill="white"/>
<path d="M423.149 228.918L350.368 187.014C349.533 186.411 348.85 185.622 348.373 184.708C347.896 183.794 347.638 182.782 347.621 181.751C347.621 179.715 348.86 178.793 350.368 179.667L423.149 221.571C423.988 222.17 424.674 222.959 425.151 223.874C425.628 224.788 425.884 225.803 425.897 226.835C425.897 228.918 424.674 229.824 423.149 228.918Z" fill="#FF0000"/>
<path d="M429.296 189.289L402.706 173.974C401.865 173.376 401.177 172.587 400.697 171.673C400.217 170.758 399.958 169.744 399.942 168.711C399.942 166.675 401.181 165.753 402.706 166.627L429.296 181.942C430.136 182.541 430.824 183.33 431.304 184.244C431.784 185.158 432.043 186.173 432.06 187.205C432.06 189.241 430.821 190.163 429.296 189.289Z" fill="white"/>
<path d="M272.283 190.386L259.337 182.912V197.876L272.283 205.35V190.386Z" fill="#FF0000"/>
<path d="M292.741 189.845L279.796 182.371V209.692L292.741 217.182V189.845Z" fill="url(#paint5_linear_87_1123)"/>
<path d="M313.184 209.485L300.238 201.995V221.523L313.184 228.997V209.485Z" fill="url(#paint6_linear_87_1123)"/>
<path d="M333.643 215.671L320.697 208.181V233.339L333.643 240.829V215.671Z" fill="url(#paint7_linear_87_1123)"/>
<path d="M354.085 228.997L341.14 221.523V245.154L354.085 252.644V228.997Z" fill="#FF0000"/>
<path d="M374.544 234.865L361.598 227.391V256.986L374.544 264.46V234.865Z" fill="#F06826"/>
<path d="M394.986 243.532L382.041 236.058V268.802L394.986 276.292V243.532Z" fill="url(#paint8_linear_87_1123)"/>
<path d="M415.445 247.365L402.5 239.891V280.617L415.445 288.107V247.365Z" fill="#FF0000"/>
<path d="M506.152 185.275L505.427 182.44L497.195 184.552L497.92 187.386L506.152 185.275Z" fill="url(#paint9_linear_87_1123)"/>
<path d="M501.948 189.367L501.222 186.532L492.99 188.644L493.715 191.478L501.948 189.367Z" fill="url(#paint10_linear_87_1123)"/>
<path d="M497.763 193.49L497.038 190.656L488.806 192.767L489.531 195.602L497.763 193.49Z" fill="url(#paint11_linear_87_1123)"/>
<path d="M493.67 197.59L492.944 194.755L484.713 196.868L485.439 199.703L493.67 197.59Z" fill="url(#paint12_linear_87_1123)"/>
<path d="M333.007 357.125L306.925 342.049L280.828 357.125L306.925 372.2L333.007 357.125Z" fill="white"/>
<path d="M250.776 359.749L224.695 344.673L198.597 359.749L224.695 374.84L250.776 359.749Z" fill="white"/>
<path d="M195.563 328.086L169.482 313.011L143.4 328.086L169.482 343.162L195.563 328.086Z" fill="white"/>
<path d="M224.694 359.748V279.329L250.776 264.253V344.673L224.694 359.748Z" fill="white"/>
<path d="M250.776 264.253L224.695 249.178L198.597 264.253L224.695 279.329L250.776 264.253Z" fill="#D5D6DA"/>
<path d="M224.695 279.329L198.597 264.253V344.673L224.695 359.748V279.329Z" fill="url(#paint13_linear_87_1123)"/>
<path d="M224.694 359.748V279.329L250.776 264.253V344.673L224.694 359.748Z" fill="#FF0000"/>
<path d="M250.776 264.253L224.695 249.178L198.597 264.253L224.695 279.329L250.776 264.253Z" fill="url(#paint14_linear_87_1123)"/>
<path d="M280.066 392.19V346.947L306.147 331.871V377.114L280.066 392.19Z" fill="#F06826"/>
<path d="M280.066 346.947L253.984 331.871V377.114L280.066 392.19V346.947Z" fill="#FF0000"/>
<path d="M306.147 331.871L280.066 316.796L253.984 331.871L280.066 346.947L306.147 331.871Z" fill="url(#paint15_linear_87_1123)"/>
<path d="M169.482 328.086V217.516L195.563 202.424V313.011L169.482 328.086Z" fill="url(#paint16_linear_87_1123)"/>
<path d="M169.482 217.516L143.4 202.424V313.011L169.482 328.086V217.516Z" fill="#FF0000"/>
<path d="M195.563 202.424L169.482 187.348L143.4 202.424L169.482 217.516L195.563 202.424Z" fill="url(#paint17_linear_87_1123)"/>
<path d="M141.812 440.74C120.321 428.32 85.5034 428.32 63.9807 440.74C42.4579 453.16 42.5055 473.277 63.9807 485.697C85.4558 498.117 120.289 498.101 141.812 485.697C163.335 473.293 163.287 453.144 141.812 440.74ZM120.798 473.547C110.918 479.256 94.9226 479.256 85.0428 473.547C75.163 467.838 75.1789 458.583 85.0428 452.874C94.9067 447.165 110.918 447.181 120.798 452.874C130.677 458.567 130.661 467.838 120.798 473.547Z" fill="url(#paint18_linear_87_1123)"/>
<path d="M55.9272 433.378L75.5439 433.68C77.2528 431.557 79.3565 429.785 81.7386 428.464C92.5238 422.23 109.488 421.753 121.242 427.016L132.885 416.044L150.834 416.314C149.96 415.742 149.039 415.169 148.086 414.612C123.132 400.189 82.6917 400.189 57.7539 414.612C53.5973 416.953 49.8123 419.901 46.5239 423.359L55.9272 433.378Z" fill="#F06826"/>
<path d="M150.834 387.801V416.314L132.885 416.028V387.514L150.834 387.801Z" fill="url(#paint19_linear_87_1123)"/>
<path d="M121.227 398.487V427.016L132.885 416.028V387.514L121.227 398.487Z" fill="#F06826"/>
<path d="M75.5439 405.166V433.68L101.339 412.64L121.242 426.953V398.503L102.912 389.534C102.912 389.534 77.7041 397.263 76.3857 397.597C75.0673 397.931 75.5439 405.166 75.5439 405.166Z" fill="#F06826"/>
<path d="M55.9116 404.848V433.378L75.5283 433.68V405.166L55.9116 404.848Z" fill="#F06826"/>
<path d="M46.5239 394.845V423.359L55.9113 433.377V404.848L46.5239 394.845Z" fill="url(#paint20_linear_87_1123)"/>
<path d="M55.9272 404.864L75.5439 405.166C77.2488 403.039 79.3533 401.267 81.7386 399.95C92.5238 393.716 109.488 393.239 121.242 398.503L132.885 387.514L150.834 387.801C149.96 387.212 149.039 386.64 148.086 386.099C123.132 371.675 82.6917 371.675 57.7539 386.099C53.5934 388.44 49.8078 391.394 46.5239 394.861L55.9272 404.864Z" fill="url(#paint21_linear_87_1123)"/>
<path d="M127.151 402.002V428.225L144.131 424.154C144.131 424.154 143.13 408.808 142.765 408.394C142.4 407.981 127.151 402.002 127.151 402.002Z" fill="url(#paint22_linear_87_1123)"/>
<path d="M114.301 428.225V456.738L116.127 458.694L128.104 451.793C128.104 451.793 126.246 430.022 126.023 429.529C125.801 429.036 114.301 428.225 114.301 428.225Z" fill="#F06826"/>
<path d="M137.348 420.862L127.087 430.531C135.633 437.305 134.616 446.847 124.038 452.97C120.969 454.692 117.668 455.961 114.237 456.738L124.848 468.061L115.508 476.998C126.935 475.86 138.016 472.425 148.086 466.9C169.529 454.512 172.516 435.493 157.092 421.244L137.348 420.862Z" fill="#FF0000"/>
<path d="M115.492 448.389V476.903L138.778 467.902L166.766 441.17L166.67 410.875L137.047 434.379L115.492 448.389Z" fill="#FF0000"/>
<path d="M137.348 392.333L127.087 402.002C135.633 408.776 134.616 418.334 124.038 424.44C120.973 426.174 117.671 427.449 114.237 428.225L124.848 439.548L115.508 448.374C126.933 447.233 138.011 443.804 148.086 438.291C169.529 425.887 172.516 406.884 157.092 392.635L137.348 392.333Z" fill="url(#paint23_linear_87_1123)"/>
<path d="M115.429 467.918L106.073 457.915C97.4004 458.456 88.3942 456.786 81.7388 452.954C75.0834 449.121 72.0337 443.555 73.225 438.387L50.9875 438.037L42.426 428.909C34.9447 441.774 40.0434 456.548 57.7858 466.805C70.8265 474.343 88.0924 477.937 105.168 477.587L115.429 467.918Z" fill="#FF0000"/>
<path d="M105.12 449.073V477.603L39.0586 440.947V412.402L48.7002 416.314L105.12 449.073Z" fill="#FF0000"/>
<path d="M115.413 439.389V467.902L105.12 477.603V449.073L115.413 439.389Z" fill="#F06826"/>
<path d="M115.429 439.389L106.073 429.418C97.4004 429.942 88.3942 428.289 81.7388 424.44C75.0834 420.592 72.0337 415.042 73.225 409.873L50.9875 409.524L42.426 400.395C34.9447 413.261 40.0434 428.05 57.7858 438.307C70.8265 445.829 88.0924 449.439 105.168 449.089L115.429 439.389Z" fill="url(#paint24_linear_87_1123)"/>
<path d="M154.011 53.1942L155.71 50.2999C156.625 50.7595 157.676 50.867 158.665 50.6021C159.387 50.3028 160.042 49.8594 160.588 49.299C161.134 48.7385 161.561 48.0727 161.842 47.342C162.704 45.1917 164.281 43.4051 166.307 42.2839C168.333 41.1627 170.683 40.7755 172.96 41.1877L172.166 44.3682L172.563 42.778L172.182 44.3682C171.69 44.2569 167.417 43.43 164.796 48.7097C164.346 49.8859 163.647 50.951 162.748 51.8321C161.849 52.7131 160.77 53.3893 159.586 53.8144C157.717 54.3344 155.72 54.1122 154.011 53.1942Z" fill="url(#paint25_linear_87_1123)"/>
<path d="M100.815 163.049C97.7837 163.049 94.8202 162.149 92.2995 160.463C89.7788 158.777 87.8142 156.38 86.6541 153.576C85.4939 150.772 85.1904 147.686 85.7818 144.709C86.3733 141.733 87.8331 138.998 89.9768 136.852C92.1204 134.706 94.8516 133.244 97.825 132.652C100.798 132.06 103.88 132.364 106.681 133.525C109.482 134.687 111.876 136.654 113.56 139.177C115.244 141.701 116.143 144.668 116.143 147.703C116.139 151.772 114.523 155.673 111.649 158.55C108.776 161.427 104.879 163.045 100.815 163.049ZM100.815 135.697C98.4434 135.697 96.1249 136.401 94.1527 137.72C92.1806 139.04 90.6435 140.915 89.7358 143.109C88.8281 145.303 88.5906 147.717 89.0533 150.046C89.5161 152.375 90.6583 154.514 92.3354 156.193C94.0126 157.872 96.1494 159.016 98.4757 159.479C100.802 159.942 103.213 159.705 105.405 158.796C107.596 157.887 109.469 156.348 110.787 154.374C112.104 152.399 112.808 150.078 112.808 147.703C112.808 146.127 112.497 144.565 111.895 143.109C111.292 141.652 110.409 140.328 109.295 139.213C108.182 138.099 106.86 137.214 105.405 136.611C103.95 136.007 102.39 135.697 100.815 135.697Z" fill="url(#paint26_linear_87_1123)"/>
<path d="M10.8803 375.094C8.72766 375.098 6.62246 374.461 4.83108 373.266C3.0397 372.071 1.64264 370.371 0.81668 368.381C-0.0092757 366.391 -0.227005 364.2 0.191027 362.086C0.609058 359.972 1.64407 358.029 3.1651 356.504C4.68613 354.979 6.62483 353.94 8.73587 353.518C10.8469 353.097 13.0354 353.312 15.0245 354.136C17.0136 354.96 18.7138 356.356 19.9101 358.148C21.1064 359.939 21.7449 362.046 21.7449 364.201C21.7449 367.088 20.6008 369.856 18.5637 371.898C16.5267 373.941 13.7632 375.09 10.8803 375.094ZM10.8803 356.663C9.3912 356.663 7.93554 357.105 6.6974 357.934C5.45926 358.762 4.49425 359.939 3.9244 361.317C3.35454 362.694 3.20545 364.21 3.49596 365.672C3.78647 367.134 4.50354 368.477 5.55649 369.531C6.60944 370.585 7.95097 371.303 9.41146 371.594C10.8719 371.885 12.3858 371.736 13.7615 371.165C15.1373 370.595 16.3131 369.629 17.1404 368.389C17.9677 367.149 18.4093 365.692 18.4093 364.201C18.4051 362.203 17.6105 360.288 16.1995 358.876C14.7884 357.463 12.8758 356.668 10.8803 356.663Z" fill="url(#paint27_linear_87_1123)"/>
<path d="M78.3875 252.851L71.0015 237.823L86.0118 230.429L93.3978 245.457L78.3875 252.851ZM75.4807 239.35L79.9123 248.367L88.9186 243.93L84.4869 234.913L75.4807 239.35Z" fill="url(#paint28_linear_87_1123)"/>
<path d="M448.118 88.2068L441.219 91.6025L444.611 98.5098L451.51 95.114L448.118 88.2068Z" fill="url(#paint29_linear_87_1123)"/>
<path d="M314.073 -0.00490228L302.841 11.2399L305.2 13.6013L316.432 2.35651L314.073 -0.00490228Z" fill="url(#paint30_linear_87_1123)"/>
<path d="M305.216 -0.00488474L302.857 2.35654L314.089 13.6014L316.448 11.2399L305.216 -0.00488474Z" fill="url(#paint31_linear_87_1123)"/>
<path d="M429.248 12.4358C429.248 14.0084 428.782 15.5457 427.91 16.8533C427.037 18.1609 425.797 19.1801 424.346 19.7819C422.894 20.3837 421.297 20.5411 419.757 20.2343C418.216 19.9275 416.801 19.1702 415.69 18.0582C414.58 16.9462 413.823 15.5294 413.517 13.987C413.21 12.4446 413.368 10.8459 413.969 9.39299C414.57 7.94008 415.588 6.69826 416.894 5.82456C418.2 4.95086 419.735 4.48453 421.306 4.48453C423.413 4.48453 425.433 5.32225 426.922 6.81341C428.412 8.30457 429.248 10.327 429.248 12.4358Z" fill="url(#paint32_linear_87_1123)"/>
<path d="M216.88 454.973C216.88 455.882 216.61 456.771 216.106 457.527C215.602 458.282 214.885 458.871 214.046 459.219C213.207 459.567 212.284 459.658 211.394 459.481C210.503 459.303 209.685 458.866 209.043 458.223C208.401 457.58 207.964 456.761 207.787 455.87C207.61 454.978 207.701 454.054 208.048 453.214C208.396 452.375 208.984 451.657 209.739 451.152C210.494 450.647 211.381 450.377 212.289 450.377C213.507 450.377 214.674 450.862 215.535 451.723C216.396 452.585 216.88 453.754 216.88 454.973Z" fill="url(#paint33_linear_87_1123)"/>
<path d="M393.128 463.831C398.321 463.831 402.531 459.616 402.531 454.417C402.531 449.217 398.321 445.002 393.128 445.002C387.935 445.002 383.725 449.217 383.725 454.417C383.725 459.616 387.935 463.831 393.128 463.831Z" fill="url(#paint34_linear_87_1123)"/>
<path d="M64.9815 275.322L31.4028 255.952C31.1524 255.778 30.8604 255.673 30.5564 255.648C30.2523 255.622 29.947 255.678 29.6714 255.809L26.4946 257.686L28.7819 258.528V282.987C28.7966 284 29.0486 284.995 29.5176 285.893C29.9866 286.79 30.6595 287.565 31.4822 288.155L63.5678 306.713V309.576L66.8717 307.683C67.1952 307.43 67.4495 307.099 67.6106 306.721C67.7717 306.343 67.8344 305.93 67.7929 305.521V280.49C67.7656 279.467 67.4966 278.466 67.0079 277.567C66.5192 276.669 65.8247 275.899 64.9815 275.322Z" fill="#FF0000"/>
<path d="M61.6618 309.449L28.0831 290.031C27.2595 289.443 26.5859 288.668 26.1168 287.77C25.6477 286.872 25.3962 285.876 25.3828 284.863V259.88C25.3828 257.876 26.59 256.97 28.0831 257.829L61.6618 277.246C62.4841 277.832 63.1571 278.604 63.6262 279.499C64.0953 280.394 64.3474 281.387 64.362 282.398V307.397C64.362 309.401 63.1549 310.307 61.6618 309.449Z" fill="#12203C"/>
<path d="M39.3765 281.396C39.3765 282.844 38.36 283.432 37.1052 282.7C36.4482 282.268 35.9019 281.688 35.5101 281.005C35.1183 280.323 34.8921 279.558 34.8496 278.772C34.8496 277.325 35.8662 276.737 37.1052 277.468C37.7668 277.897 38.3175 278.476 38.7124 279.159C39.1072 279.842 39.3348 280.609 39.3765 281.396Z" fill="white"/>
<path d="M46.2384 285.388C46.2384 286.835 45.2218 287.423 43.9669 286.708C43.3109 286.275 42.7652 285.694 42.3736 285.012C41.9819 284.33 41.7552 283.565 41.7114 282.78C41.7114 281.333 42.728 280.744 43.9669 281.46C44.6268 281.89 45.1762 282.47 45.5708 283.153C45.9654 283.835 46.1941 284.601 46.2384 285.388Z" fill="white"/>
<path d="M53.1637 289.348C53.1637 290.795 52.1471 291.383 50.9081 290.652C50.2465 290.223 49.6957 289.644 49.3009 288.961C48.9061 288.278 48.6785 287.512 48.6367 286.724C48.6367 285.277 49.6533 284.688 50.9081 285.42C51.565 285.852 52.1114 286.433 52.5031 287.115C52.8949 287.797 53.1212 288.562 53.1637 289.348Z" fill="white"/>
<path d="M386.997 45.6882L353.37 26.2711C353.121 26.0945 352.827 25.9893 352.522 25.9669C352.217 25.9444 351.912 26.0056 351.639 26.1439L348.383 28.0363L350.67 28.8632V53.3532C350.687 54.3657 350.94 55.3601 351.409 56.2574C351.878 57.1547 352.55 57.93 353.37 58.5216L385.456 77.064V79.9106L388.744 78.0181C389.069 77.7695 389.324 77.4414 389.485 77.0654C389.646 76.6894 389.709 76.2782 389.665 75.8713V50.8088C389.647 49.8067 389.396 48.8226 388.933 47.934C388.47 47.0453 387.807 46.2766 386.997 45.6882Z" fill="url(#paint35_linear_87_1123)"/>
<path d="M383.677 79.8151L350.098 60.3503C349.276 59.7605 348.603 58.9856 348.134 58.088C347.665 57.1903 347.413 56.1949 347.398 55.182V30.2308C347.398 28.243 348.605 27.3206 350.098 28.1953L383.677 47.6283C384.5 48.2181 385.173 48.993 385.642 49.8906C386.11 50.7883 386.363 51.7837 386.377 52.7966V77.8432C386.377 79.7515 385.138 80.6739 383.677 79.8151Z" fill="url(#paint36_linear_87_1123)"/>
<path d="M361.392 51.7789C361.392 53.226 360.375 53.8144 359.12 53.0988C358.469 52.6723 357.926 52.0994 357.534 51.4258C357.142 50.7522 356.913 49.9964 356.865 49.2185C356.865 47.7714 357.865 47.183 359.12 47.8986C359.774 48.3243 360.319 48.8966 360.714 49.5701C361.108 50.2437 361.34 50.9999 361.392 51.7789Z" fill="white"/>
<path d="M368.253 55.7545C368.253 57.2016 367.237 57.79 365.982 57.0585C365.325 56.6263 364.779 56.0457 364.387 55.3635C363.995 54.6812 363.769 53.9164 363.727 53.1306C363.727 51.6834 364.743 51.095 365.982 51.8265C366.644 52.2551 367.194 52.8345 367.589 53.5172C367.984 54.2 368.212 54.9667 368.253 55.7545Z" fill="white"/>
<path d="M375.115 59.7143C375.115 61.1614 374.099 61.7498 372.844 61.0342C372.196 60.6074 371.656 60.0367 371.264 59.3664C370.873 58.6961 370.642 57.9444 370.588 57.1698C370.588 55.7227 371.605 55.1343 372.844 55.8499C373.496 56.274 374.04 56.8438 374.434 57.5144C374.828 58.185 375.061 58.938 375.115 59.7143Z" fill="white"/>
<path d="M384.011 465.994L403.739 454.591L423.435 465.994L403.739 477.38L384.011 465.994Z" fill="url(#paint37_linear_87_1123)"/>
<path d="M425.865 441.488L445.577 430.086L465.289 441.488L445.577 452.874L425.865 441.488Z" fill="url(#paint38_linear_87_1123)"/>
<path d="M467.576 417.554L487.288 406.168L507 417.554L487.288 428.956L467.576 417.554Z" fill="url(#paint39_linear_87_1123)"/>
<path d="M445.577 441.488V380.708L425.865 369.322V430.086L445.577 441.488Z" fill="white"/>
<path d="M445.577 380.708L465.289 369.322V430.086L445.577 441.488V380.708Z" fill="#FF0000"/>
<path d="M445.577 441.488V380.708L425.865 369.322V430.086L445.577 441.488Z" fill="#12203C"/>
<path d="M403.739 465.994V431.803L384.011 420.417V454.592L403.739 465.994Z" fill="#12203C"/>
<path d="M403.738 431.803L423.434 420.417V454.592L403.738 465.994V431.803Z" fill="#FF0000"/>
<path d="M384.011 420.417L403.739 409.015L423.435 420.417L403.739 431.803L384.011 420.417Z" fill="#12203C"/>
<path d="M487.288 417.554V334.002L467.576 322.6V406.168L487.288 417.554Z" fill="#12203C"/>
<path d="M487.288 334.002L507 322.6V406.168L487.288 417.554V334.002Z" fill="#FF0000"/>
<path d="M467.576 322.6L487.288 311.198L507 322.6L487.288 334.002L467.576 322.6Z" fill="#12203C"/>
<path d="M425.865 369.322L445.577 357.92L465.289 369.322L445.577 380.708L425.865 369.322Z" fill="#12203C"/>
</g>
<defs>
<linearGradient id="paint0_linear_87_1123" x1="262.741" y1="253.148" x2="262.741" y2="464.481" gradientUnits="userSpaceOnUse">
<stop offset="0.572917" stop-color="#12203C"/>
<stop offset="1" stop-color="#FF0000"/>
</linearGradient>
<linearGradient id="paint1_linear_87_1123" x1="341.378" y1="29.0881" x2="341.378" y2="345.148" gradientUnits="userSpaceOnUse">
<stop offset="0.572917" stop-color="#12203C"/>
<stop offset="1" stop-color="#FF0000"/>
</linearGradient>
<linearGradient id="paint2_linear_87_1123" x1="83.6053" y1="314.458" x2="83.6053" y2="331.601" gradientUnits="userSpaceOnUse">
<stop offset="0.348958" stop-color="#F06826"/>
<stop offset="1" stop-color="white"/>
</linearGradient>
<linearGradient id="paint3_linear_87_1123" x1="262.741" y1="226.12" x2="262.741" y2="437.447" gradientUnits="userSpaceOnUse">
<stop offset="0.572917" stop-color="#12203C"/>
<stop offset="1" stop-color="#FF0000"/>
</linearGradient>
<linearGradient id="paint4_linear_87_1123" x1="295.45" y1="83.0567" x2="295.45" y2="181.769" gradientUnits="userSpaceOnUse">
<stop offset="0.572917" stop-color="#12203C"/>
<stop offset="1" stop-color="#FF0000"/>
</linearGradient>
<linearGradient id="paint5_linear_87_1123" x1="286.269" y1="182.371" x2="286.269" y2="217.182" gradientUnits="userSpaceOnUse">
<stop offset="0.572917" stop-color="#12203C"/>
<stop offset="1" stop-color="#FF0000"/>
</linearGradient>
<linearGradient id="paint6_linear_87_1123" x1="306.711" y1="201.995" x2="306.711" y2="228.997" gradientUnits="userSpaceOnUse">
<stop offset="0.572917" stop-color="#12203C"/>
<stop offset="1" stop-color="#FF0000"/>
</linearGradient>
<linearGradient id="paint7_linear_87_1123" x1="327.17" y1="208.181" x2="327.17" y2="240.829" gradientUnits="userSpaceOnUse">
<stop offset="0.572917" stop-color="#12203C"/>
<stop offset="1" stop-color="#FF0000"/>
</linearGradient>
<linearGradient id="paint8_linear_87_1123" x1="388.514" y1="236.058" x2="388.514" y2="276.292" gradientUnits="userSpaceOnUse">
<stop offset="0.572917" stop-color="#12203C"/>
<stop offset="1" stop-color="#FF0000"/>
</linearGradient>
<linearGradient id="paint9_linear_87_1123" x1="505.789" y1="183.857" x2="497.556" y2="185.964" gradientUnits="userSpaceOnUse">
<stop offset="0.348958" stop-color="#F06826"/>
<stop offset="1" stop-color="white"/>
</linearGradient>
<linearGradient id="paint10_linear_87_1123" x1="501.585" y1="187.95" x2="493.352" y2="190.056" gradientUnits="userSpaceOnUse">
<stop offset="0.348958" stop-color="#F06826"/>
<stop offset="1" stop-color="white"/>
</linearGradient>
<linearGradient id="paint11_linear_87_1123" x1="497.4" y1="192.073" x2="489.167" y2="194.18" gradientUnits="userSpaceOnUse">
<stop offset="0.348958" stop-color="#F06826"/>
<stop offset="1" stop-color="white"/>
</linearGradient>
<linearGradient id="paint12_linear_87_1123" x1="493.307" y1="196.173" x2="485.074" y2="198.281" gradientUnits="userSpaceOnUse">
<stop offset="0.348958" stop-color="#F06826"/>
<stop offset="1" stop-color="white"/>
</linearGradient>
<linearGradient id="paint13_linear_87_1123" x1="211.646" y1="264.253" x2="211.646" y2="359.748" gradientUnits="userSpaceOnUse">
<stop offset="0.348958" stop-color="#F06826"/>
<stop offset="1" stop-color="white"/>
</linearGradient>
<linearGradient id="paint14_linear_87_1123" x1="224.687" y1="249.178" x2="224.687" y2="279.329" gradientUnits="userSpaceOnUse">
<stop offset="0.572917" stop-color="#12203C"/>
<stop offset="1" stop-color="#FF0000"/>
</linearGradient>
<linearGradient id="paint15_linear_87_1123" x1="280.066" y1="316.796" x2="280.066" y2="346.947" gradientUnits="userSpaceOnUse">
<stop offset="0.572917" stop-color="#12203C"/>
<stop offset="1" stop-color="#FF0000"/>
</linearGradient>
<linearGradient id="paint16_linear_87_1123" x1="182.523" y1="202.424" x2="182.523" y2="328.086" gradientUnits="userSpaceOnUse">
<stop offset="0.572917" stop-color="#12203C"/>
<stop offset="1" stop-color="#FF0000"/>
</linearGradient>
<linearGradient id="paint17_linear_87_1123" x1="169.482" y1="187.348" x2="169.482" y2="217.516" gradientUnits="userSpaceOnUse">
<stop offset="0.348958" stop-color="#F06826"/>
<stop offset="1" stop-color="white"/>
</linearGradient>
<linearGradient id="paint18_linear_87_1123" x1="102.896" y1="431.425" x2="102.896" y2="495.006" gradientUnits="userSpaceOnUse">
<stop offset="0.572917" stop-color="#12203C"/>
<stop offset="1" stop-color="#FF0000"/>
</linearGradient>
<linearGradient id="paint19_linear_87_1123" x1="141.86" y1="387.514" x2="141.86" y2="416.314" gradientUnits="userSpaceOnUse">
<stop offset="0.348958" stop-color="#F06826"/>
<stop offset="1" stop-color="white"/>
</linearGradient>
<linearGradient id="paint20_linear_87_1123" x1="51.2176" y1="394.845" x2="51.2176" y2="433.377" gradientUnits="userSpaceOnUse">
<stop offset="0.348958" stop-color="#F06826"/>
<stop offset="1" stop-color="white"/>
</linearGradient>
<linearGradient id="paint21_linear_87_1123" x1="98.6789" y1="375.281" x2="98.6789" y2="405.166" gradientUnits="userSpaceOnUse">
<stop offset="0.572917" stop-color="#12203C"/>
<stop offset="1" stop-color="#FF0000"/>
</linearGradient>
<linearGradient id="paint22_linear_87_1123" x1="135.641" y1="402.002" x2="135.641" y2="428.225" gradientUnits="userSpaceOnUse">
<stop offset="0.348958" stop-color="#F06826"/>
<stop offset="1" stop-color="white"/>
</linearGradient>
<linearGradient id="paint23_linear_87_1123" x1="140.509" y1="392.333" x2="140.509" y2="448.374" gradientUnits="userSpaceOnUse">
<stop offset="0.572917" stop-color="#12203C"/>
<stop offset="1" stop-color="#FF0000"/>
</linearGradient>
<linearGradient id="paint24_linear_87_1123" x1="77.2598" y1="400.395" x2="77.2598" y2="449.112" gradientUnits="userSpaceOnUse">
<stop offset="0.348958" stop-color="#F06826"/>
<stop offset="1" stop-color="white"/>
</linearGradient>
<linearGradient id="paint25_linear_87_1123" x1="163.486" y1="41.0272" x2="163.486" y2="54.0897" gradientUnits="userSpaceOnUse">
<stop offset="0.348958" stop-color="#F06826"/>
<stop offset="1" stop-color="white"/>
</linearGradient>
<linearGradient id="paint26_linear_87_1123" x1="100.815" y1="132.357" x2="100.815" y2="163.049" gradientUnits="userSpaceOnUse">
<stop offset="0.572917" stop-color="#12203C"/>
<stop offset="1" stop-color="#FF0000"/>
</linearGradient>
<linearGradient id="paint27_linear_87_1123" x1="10.8644" y1="353.308" x2="10.8644" y2="375.095" gradientUnits="userSpaceOnUse">
<stop offset="0.348958" stop-color="#F06826"/>
<stop offset="1" stop-color="white"/>
</linearGradient>
<linearGradient id="paint28_linear_87_1123" x1="82.1996" y1="230.429" x2="82.1996" y2="252.851" gradientUnits="userSpaceOnUse">
<stop offset="0.348958" stop-color="#F06826"/>
<stop offset="1" stop-color="white"/>
</linearGradient>
<linearGradient id="paint29_linear_87_1123" x1="444.669" y1="89.9047" x2="448.067" y2="96.8088" gradientUnits="userSpaceOnUse">
<stop offset="0.348958" stop-color="#F06826"/>
<stop offset="1" stop-color="white"/>
</linearGradient>
<linearGradient id="paint30_linear_87_1123" x1="308.457" y1="5.61751" x2="310.819" y2="7.97616" gradientUnits="userSpaceOnUse">
<stop offset="0.572917" stop-color="#12203C"/>
<stop offset="1" stop-color="#FF0000"/>
</linearGradient>
<linearGradient id="paint31_linear_87_1123" x1="304.037" y1="1.17583" x2="315.282" y2="12.4075" gradientUnits="userSpaceOnUse">
<stop offset="0.572917" stop-color="#12203C"/>
<stop offset="1" stop-color="#FF0000"/>
</linearGradient>
<linearGradient id="paint32_linear_87_1123" x1="421.306" y1="4.48453" x2="421.306" y2="20.3871" gradientUnits="userSpaceOnUse">
<stop offset="0.572917" stop-color="#12203C"/>
<stop offset="1" stop-color="#FF0000"/>
</linearGradient>
<linearGradient id="paint33_linear_87_1123" x1="212.289" y1="450.377" x2="212.289" y2="459.569" gradientUnits="userSpaceOnUse">
<stop offset="0.572917" stop-color="#12203C"/>
<stop offset="1" stop-color="#FF0000"/>
</linearGradient>
<linearGradient id="paint34_linear_87_1123" x1="393.128" y1="445.002" x2="393.128" y2="463.831" gradientUnits="userSpaceOnUse">
<stop offset="0.572917" stop-color="#12203C"/>
<stop offset="1" stop-color="#FF0000"/>
</linearGradient>
<linearGradient id="paint35_linear_87_1123" x1="369.031" y1="25.9623" x2="369.031" y2="79.9105" gradientUnits="userSpaceOnUse">
<stop offset="0.348958" stop-color="#F06826"/>
<stop offset="1" stop-color="white"/>
</linearGradient>
<linearGradient id="paint36_linear_87_1123" x1="366.888" y1="27.8646" x2="366.888" y2="80.1378" gradientUnits="userSpaceOnUse">
<stop offset="0.572917" stop-color="#12203C"/>
<stop offset="1" stop-color="#FF0000"/>
</linearGradient>
<linearGradient id="paint37_linear_87_1123" x1="403.723" y1="454.591" x2="403.723" y2="477.38" gradientUnits="userSpaceOnUse">
<stop offset="0.572917" stop-color="#12203C"/>
<stop offset="1" stop-color="#FF0000"/>
</linearGradient>
<linearGradient id="paint38_linear_87_1123" x1="445.577" y1="430.086" x2="445.577" y2="452.874" gradientUnits="userSpaceOnUse">
<stop offset="0.572917" stop-color="#12203C"/>
<stop offset="1" stop-color="#FF0000"/>
</linearGradient>
<linearGradient id="paint39_linear_87_1123" x1="487.288" y1="406.168" x2="487.288" y2="428.956" gradientUnits="userSpaceOnUse">
<stop offset="0.572917" stop-color="#12203C"/>
<stop offset="1" stop-color="#FF0000"/>
</linearGradient>
<clipPath id="clip0_87_1123">
<rect width="507" height="495" fill="white"/>
</clipPath>
</defs>
</svg>
