<svg width="66" height="66" viewBox="0 0 66 66" fill="none" xmlns="http://www.w3.org/2000/svg">
<path d="M13.75 60.5C13.0207 60.5 12.3212 60.2103 11.8055 59.6945C11.2897 59.1788 11 58.4793 11 57.75V35.75C11 35.0207 11.2897 34.3212 11.8055 33.8055C12.3212 33.2897 13.0207 33 13.75 33C14.4793 33 15.1788 33.2897 15.6945 33.8055C16.2103 34.3212 16.5 35.0207 16.5 35.75V57.75C16.5 58.4793 16.2103 59.1788 15.6945 59.6945C15.1788 60.2103 14.4793 60.5 13.75 60.5ZM27.5 60.5C26.7707 60.5 26.0712 60.2103 25.5555 59.6945C25.0397 59.1788 24.75 58.4793 24.75 57.75V8.25C24.75 7.52065 25.0397 6.82118 25.5555 6.30546C26.0712 5.78973 26.7707 5.5 27.5 5.5C28.2293 5.5 28.9288 5.78973 29.4445 6.30546C29.9603 6.82118 30.25 7.52065 30.25 8.25V57.75C30.25 58.4793 29.9603 59.1788 29.4445 59.6945C28.9288 60.2103 28.2293 60.5 27.5 60.5ZM41.25 60.5C40.5207 60.5 39.8212 60.2103 39.3055 59.6945C38.7897 59.1788 38.5 58.4793 38.5 57.75V24.75C38.5 24.0207 38.7897 23.3212 39.3055 22.8055C39.8212 22.2897 40.5207 22 41.25 22C41.9793 22 42.6788 22.2897 43.1945 22.8055C43.7103 23.3212 44 24.0207 44 24.75V57.75C44 58.4793 43.7103 59.1788 43.1945 59.6945C42.6788 60.2103 41.9793 60.5 41.25 60.5ZM55 60.5C54.2707 60.5 53.5712 60.2103 53.0555 59.6945C52.5397 59.1788 52.25 58.4793 52.25 57.75V46.75C52.25 46.0207 52.5397 45.3212 53.0555 44.8055C53.5712 44.2897 54.2707 44 55 44C55.7293 44 56.4288 44.2897 56.9445 44.8055C57.4603 45.3212 57.75 46.0207 57.75 46.75V57.75C57.75 58.4793 57.4603 59.1788 56.9445 59.6945C56.4288 60.2103 55.7293 60.5 55 60.5Z" fill="#12203C"/>
</svg>
