<svg width="202" height="122" viewBox="0 0 202 122" fill="none" xmlns="http://www.w3.org/2000/svg">
<rect x="59" y="19" width="83" height="83" rx="41.5" fill="#F2F2F2"/>
<path d="M98.8863 76.5374C99.0176 76.3983 99.1792 76.2904 99.3589 76.222C99.5386 76.1536 99.7316 76.1264 99.9235 76.1426C100.278 76.1756 100.637 76.1957 101 76.1957C101.363 76.1957 101.722 76.1756 102.077 76.1426C102.268 76.1264 102.461 76.1536 102.641 76.222C102.821 76.2904 102.982 76.3983 103.114 76.5374L105.999 79.5487C106.199 79.7573 106.464 79.8933 106.752 79.9347C107.04 79.9761 107.333 79.9205 107.585 79.7768L112.002 77.2566C112.254 77.1129 112.45 76.8896 112.557 76.6226C112.665 76.3557 112.678 76.0607 112.595 75.7853L111.396 71.7995C111.341 71.6107 111.331 71.4122 111.364 71.2187C111.398 71.0252 111.476 70.8418 111.592 70.6821C111.988 70.1206 112.338 69.5285 112.638 68.9114C112.72 68.7342 112.842 68.5775 112.994 68.4529C113.146 68.3283 113.325 68.2389 113.516 68.1913L117.595 67.2282C117.877 67.1614 118.129 67.0024 118.309 66.7768C118.489 66.5513 118.587 66.2723 118.587 65.985V60.9445C118.587 60.6572 118.489 60.3782 118.309 60.1527C118.129 59.9271 117.877 59.7681 117.595 59.7013L113.516 58.7382C113.325 58.6906 113.146 58.6012 112.994 58.4766C112.842 58.352 112.72 58.1953 112.638 58.0181C112.338 57.401 111.988 56.8088 111.592 56.2473C111.476 56.0876 111.398 55.9042 111.364 55.7107C111.331 55.5172 111.341 55.3187 111.396 55.1299L112.595 51.1442C112.678 50.8688 112.665 50.5738 112.557 50.3069C112.45 50.0399 112.254 49.8166 112.002 49.6729L107.585 47.1526C107.333 47.009 107.04 46.9533 106.752 46.9947C106.464 47.0361 106.199 47.1721 105.999 47.3807L103.114 50.392C102.982 50.5312 102.821 50.6391 102.641 50.7074C102.461 50.7758 102.268 50.803 102.076 50.7868C101.722 50.7538 101.363 50.7337 101 50.7337C100.637 50.7337 100.278 50.7538 99.9235 50.7868C99.7316 50.8029 99.5386 50.7758 99.3589 50.7074C99.1792 50.639 99.0176 50.5312 98.8863 50.392L96.0007 47.3807C95.8008 47.1721 95.5356 47.0361 95.2478 46.9947C94.9601 46.9533 94.6666 47.009 94.4148 47.1526L89.9977 49.6729C89.7459 49.8166 89.5504 50.0399 89.4428 50.3069C89.3352 50.5738 89.3218 50.8688 89.4047 51.1442L90.6039 55.1299C90.6586 55.3186 90.6693 55.5172 90.6355 55.7107C90.6017 55.9041 90.5241 56.0876 90.4085 56.2473C90.012 56.8087 89.6621 57.4009 89.3622 58.0181C89.2795 58.1953 89.1576 58.352 89.0056 58.4766C88.8536 58.6012 88.6753 58.6906 88.4837 58.7382L84.4054 59.7013C84.1226 59.7681 83.8709 59.9271 83.6907 60.1526C83.5106 60.3782 83.4126 60.6571 83.4126 60.9445V65.9849C83.4126 66.2723 83.5106 66.5513 83.6907 66.7768C83.8709 67.0024 84.1226 67.1614 84.4054 67.2281L88.4837 68.1912C88.6753 68.2388 88.8536 68.3282 89.0056 68.4528C89.1577 68.5774 89.2795 68.7341 89.3622 68.9114C89.6621 69.5285 90.012 70.1207 90.4085 70.6821C90.5241 70.8419 90.6017 71.0253 90.6355 71.2188C90.6694 71.4123 90.6586 71.6108 90.6039 71.7996L89.4047 75.7853C89.3218 76.0607 89.3352 76.3557 89.4429 76.6226C89.5505 76.8896 89.746 77.1129 89.9978 77.2566L94.4148 79.7768C94.6666 79.9205 94.9601 79.9761 95.2478 79.9347C95.5356 79.8933 95.8008 79.7573 96.0007 79.5487L98.8863 76.5374ZM93.938 63.4647C93.938 62.0844 94.3522 60.7351 95.1281 59.5875C95.9041 58.4398 97.007 57.5453 98.2974 57.0171C99.5878 56.4888 101.008 56.3506 102.378 56.6199C103.748 56.8892 105.006 57.5538 105.993 58.5298C106.981 59.5058 107.654 60.7494 107.926 62.1031C108.199 63.4569 108.059 64.8601 107.524 66.1353C106.99 67.4106 106.085 68.5005 104.923 69.2674C103.762 70.0342 102.397 70.4435 101 70.4436C99.1277 70.4415 97.3327 69.7055 96.0088 68.3972C94.6848 67.0889 93.9401 65.315 93.938 63.4647Z" fill="black"/>
<path d="M132.226 52.0098L127.966 51.1312C125.764 45.9458 122.086 41.5036 117.379 38.3438C117.527 38.1282 117.629 37.8847 117.679 37.6286C117.729 37.3725 117.725 37.1091 117.667 36.8546C117.61 36.6001 117.5 36.3599 117.345 36.1488C117.19 35.9377 116.993 35.7602 116.767 35.6273C111.983 32.8632 106.541 31.4065 101 31.4065C95.4586 31.4065 90.017 32.8633 85.2334 35.6273C85.0064 35.7603 84.8094 35.9378 84.6545 36.1488C84.4996 36.3599 84.3901 36.6001 84.3327 36.8546C84.2754 37.1091 84.2713 37.3725 84.3209 37.6286C84.3705 37.8847 84.4726 38.128 84.621 38.3436C79.9137 41.5034 76.2358 45.9458 74.0338 51.1313L69.7744 52.0098C69.2391 52.1202 68.7587 52.4093 68.4138 52.8286C68.0689 53.2478 67.8806 53.7717 67.8806 54.312V64.8729C67.8806 65.4292 68.0801 65.9674 68.4437 66.3921C68.8073 66.8167 69.3115 67.1002 69.8666 67.1923L74.5604 67.9708C74.9015 68.0273 75.251 68.0098 75.5845 67.9193C75.918 67.8288 76.2275 67.6675 76.4915 67.4468C76.7556 67.226 76.9677 66.951 77.1132 66.6409C77.2588 66.3309 77.3342 65.9932 77.3342 65.6514V62.2433L77.3338 62.2412C77.3353 58.4196 78.2846 54.6566 80.0987 51.2815C81.9128 47.9065 84.5364 45.0223 87.7398 42.8815L87.8127 42.9875C88.0868 43.3831 88.5016 43.662 88.9746 43.7686C89.4475 43.8753 89.9438 43.8018 90.3643 43.5629C93.6124 41.7605 97.2749 40.8138 101 40.8138C104.725 40.8138 108.388 41.7605 111.636 43.5629C112.056 43.8018 112.552 43.8753 113.025 43.7687C113.498 43.662 113.913 43.3831 114.187 42.9875L114.26 42.8815C117.464 45.0226 120.087 47.9071 121.901 51.2825C123.716 54.6579 124.665 58.4213 124.666 62.2433V68.3529C123.505 72.7081 121.139 76.6576 117.835 79.759C114.53 82.8604 110.417 84.9911 105.956 85.9123C105.624 85.5438 105.217 85.2488 104.761 85.0465C104.306 84.8441 103.813 84.739 103.314 84.738H98.6862C97.7405 84.7396 96.8341 85.112 96.166 85.7734C95.4978 86.4348 95.1226 87.3312 95.1226 88.2658C95.1226 89.2003 95.4978 90.0967 96.166 90.7581C96.8341 91.4195 97.7405 91.7919 98.6862 91.7935H103.314C103.984 91.7922 104.639 91.6041 105.206 91.2509C105.772 90.8977 106.227 90.3936 106.516 89.7968C112.03 88.7085 117.095 86.033 121.074 82.107C125.052 78.1809 127.767 73.1796 128.877 67.7324L132.133 67.1923C132.688 67.1003 133.193 66.8167 133.556 66.3921C133.92 65.9674 134.119 65.4292 134.119 64.8729V54.312C134.119 53.7717 133.931 53.2478 133.586 52.8286C133.241 52.4093 132.761 52.1202 132.226 52.0098Z" fill="black"/>
</svg>
