<svg width="202" height="122" viewBox="0 0 202 122" fill="none" xmlns="http://www.w3.org/2000/svg">
<rect x="59" y="19" width="83" height="83" rx="41.5" fill="#12203C"/>
<path d="M81.6644 87.5494C81.6644 88.3939 81.0076 88.9569 80.257 88.9569H72V71.2231H80.257C81.1014 71.2231 81.6644 71.8799 81.6644 72.6306V87.5494ZM129.236 75.0701L107.186 88.1124C105.779 88.9569 104.09 89.2384 102.495 88.863L88.2325 85.6728C86.0744 85.2037 84.5731 85.3914 82.6965 85.2975V74.7887C85.6052 74.4133 86.1682 72.8182 87.951 71.9738C88.6078 71.5985 89.4522 71.4108 90.2967 71.4108H94.8943C96.3018 71.4108 97.6154 71.8799 98.6475 72.8182L98.7413 72.9121C100.055 74.1318 101.744 74.8825 103.433 74.8825H112.628C113.942 74.8825 114.974 75.9146 114.974 77.2282C114.974 78.448 113.942 79.5739 112.628 79.5739H101.838C101.556 79.5739 101.369 79.7616 101.369 80.0431C101.369 80.3246 101.556 80.5122 101.838 80.5122H112.628C113.942 80.5122 115.161 79.6678 115.631 78.5418C115.818 78.448 122.48 74.5072 125.952 72.4429C127.172 71.6923 128.673 71.9738 129.611 72.9121C130.174 73.5689 130.08 74.601 129.236 75.0701Z" fill="white"/>
<path d="M125.67 45.5139L121.166 44.388C120.885 43.262 120.416 42.1361 119.853 41.1978L122.199 37.257C122.292 37.0693 122.292 36.7878 122.105 36.694L118.258 32.847C118.07 32.6593 117.882 32.6593 117.695 32.7532L113.754 35.0989C112.722 34.5359 111.596 34.0668 110.564 33.7853L109.438 29.2815C109.438 29.1877 109.25 29 109.062 29H103.62C103.433 29 103.151 29.1877 103.151 29.3753L102.119 33.8791C100.993 34.1606 99.8672 34.6298 98.9289 35.1927L94.8943 32.7532C94.7066 32.6593 94.4251 32.6593 94.3313 32.847L90.4843 36.694C90.2966 36.8817 90.2966 37.0693 90.3905 37.257L92.83 41.1978C92.267 42.2299 91.7979 43.3559 91.5164 44.388L86.9188 45.5139C86.7311 45.6078 86.5435 45.7954 86.5435 45.9831V51.4252C86.5435 51.6128 86.7311 51.8005 86.9188 51.8943L91.4226 53.0203C91.7041 54.1462 92.1732 55.2722 92.7362 56.2105L90.2966 60.1513C90.2028 60.339 90.2028 60.6205 90.3905 60.7143L94.2375 64.5613C94.4251 64.7489 94.6128 64.7489 94.8004 64.6551L98.7413 62.3094C99.7734 62.8724 100.899 63.3415 101.931 63.623L102.964 68.1268C103.057 68.3144 103.245 68.5021 103.433 68.5021H108.875C109.062 68.5021 109.25 68.3144 109.344 68.1268L110.47 63.623C111.596 63.3415 112.722 62.8724 113.66 62.3094L117.601 64.6551C117.789 64.7489 118.07 64.7489 118.164 64.5613L122.011 60.7143C122.199 60.5266 122.199 60.339 122.105 60.1513L119.853 56.2105C120.416 55.1784 120.885 54.0524 121.166 53.0203L125.67 51.8943C125.858 51.8005 126.046 51.6128 126.046 51.4252V45.9831C126.046 45.7954 125.858 45.6078 125.67 45.5139ZM106.341 57.8056C101.368 57.8056 97.24 53.7709 97.24 48.7041C97.24 43.7312 101.275 39.6027 106.341 39.6027C111.408 39.6027 115.443 43.6374 115.443 48.7041C115.349 53.7709 111.314 57.8056 106.341 57.8056Z" fill="white"/>
<path d="M108.406 47.3905V47.2967C108.406 46.3584 107.843 45.6077 106.998 45.3263V45.2324C106.998 44.8571 106.717 44.5756 106.342 44.5756C105.966 44.5756 105.685 44.8571 105.685 45.2324V45.3263C104.277 45.7954 103.621 47.672 105.028 48.9856C105.403 49.3609 105.873 49.4547 106.342 49.4547C106.905 49.4547 107.28 49.9239 107.092 50.4869C106.998 50.7684 106.811 50.956 106.529 51.0498C105.966 51.1437 105.497 50.7684 105.497 50.2992V50.2054H104.184V50.2992C104.184 51.2375 104.747 51.9881 105.591 52.2696V52.3634C105.591 52.7388 105.873 53.0203 106.248 53.0203C106.623 53.0203 106.905 52.7388 106.905 52.3634V52.2696C108.312 51.8005 108.969 49.9239 107.561 48.6103C107.186 48.235 106.717 48.1411 106.248 48.1411C105.779 48.1411 105.31 47.672 105.497 47.109C105.591 46.8275 105.779 46.6399 106.06 46.546C106.623 46.4522 107.092 46.8275 107.092 47.2967V47.3905H108.406Z" fill="white"/>
</svg>
