<svg width="144" height="17" viewBox="0 0 144 17" fill="none" xmlns="http://www.w3.org/2000/svg">
<path d="M62.5451 8.51006C62.5451 13.0211 58.9409 16.6792 54.4962 16.6792C52.1234 16.6792 49.9909 15.6374 48.517 13.9781C48.1136 13.524 47.7602 13.0254 47.4655 12.4886C46.8174 11.3109 46.4473 9.95293 46.4473 8.50793C46.4473 7.3791 46.6731 6.30544 47.0808 5.32726C47.3108 4.77557 47.5993 4.25359 47.9379 3.77192C49.3972 1.69461 51.791 0.338742 54.4962 0.338742C58.9409 0.340864 62.5451 3.99897 62.5451 8.51006Z" fill="white"/>
<path d="M53.865 3.10141C53.6643 3.09293 53.4698 3.13537 53.3946 3.15234C52.8886 3.27329 52.5541 3.57035 52.389 3.7401C51.8914 3.81436 51.352 3.86953 50.7792 3.89711C49.736 3.94592 48.7827 3.88651 47.936 3.77405C47.5973 4.25571 47.3088 4.77769 47.0788 5.32937C48.0698 5.18084 49.3074 5.1087 50.706 5.27845C51.283 5.34847 51.8141 5.45245 52.297 5.57127C52.4684 5.75375 52.7883 6.04233 53.2691 6.1951C53.3548 6.22269 53.5409 6.27785 53.7332 6.28634C54.6009 6.32241 55.3326 5.63917 55.3702 4.7586C55.4057 3.88227 54.7326 3.13961 53.865 3.10141Z" fill="#0A1B30"/>
<path d="M58.3702 7.3303C58.1695 7.3303 57.9709 7.38123 57.8956 7.40244C57.4085 7.53824 57.0824 7.82045 56.9131 7.99445C55.8949 8.19815 54.6029 8.34031 53.1228 8.22361C52.5332 8.17692 51.9896 8.09417 51.4942 7.99445C51.3123 7.81621 50.9736 7.53612 50.4802 7.40244C50.3903 7.3791 50.2001 7.3303 50.0056 7.3303C49.1234 7.3303 48.4063 8.05598 48.4063 8.95353C48.4063 9.84896 49.1213 10.5768 50.0056 10.5768C50.2105 10.5768 50.4049 10.5258 50.4823 10.5025C50.9903 10.3582 51.3185 10.042 51.4795 9.86169C51.9834 9.76408 52.5269 9.68345 53.1081 9.63252C54.5716 9.50309 55.8719 9.58797 56.9465 9.74711C57.0489 9.90837 57.35 10.3306 57.8956 10.5025C57.9584 10.5216 58.1528 10.5746 58.3702 10.5746C59.2525 10.5746 59.9695 9.84896 59.9695 8.95141C59.9695 8.05598 59.2546 7.3303 58.3702 7.3303ZM58.4455 9.63252C58.0901 9.63252 57.7995 9.33971 57.7995 8.97687C57.7995 8.61615 58.088 8.32333 58.4455 8.32333C58.8009 8.32333 59.0915 8.61615 59.0915 8.97687C59.0915 9.33971 58.803 9.63252 58.4455 9.63252Z" fill="#0A1B30"/>
<path d="M53.8691 11.8881C53.6684 11.8796 53.474 11.922 53.3987 11.939C52.8928 12.0599 52.5583 12.357 52.3931 12.5268C51.8955 12.601 51.3562 12.6562 50.7833 12.6838C49.5394 12.7411 48.423 12.6456 47.4655 12.4907C47.7603 13.0275 48.1136 13.5262 48.5171 13.9802C49.1861 13.9527 49.922 13.9717 50.7102 14.0672C51.2872 14.1373 51.8182 14.2412 52.3011 14.3601C52.4726 14.5425 52.7924 14.8311 53.2733 14.9839C53.359 15.0115 53.545 15.0666 53.7374 15.0751C54.605 15.1112 55.3367 14.4279 55.3743 13.5474C55.4099 12.6689 54.7367 11.9241 53.8691 11.8881Z" fill="#0A1B30"/>
<path d="M11.7701 13.3543V16.0745C11.7701 16.1467 11.743 16.2103 11.6865 16.2676C11.6573 16.4692 11.5109 16.571 11.2496 16.571H0.46824C0.326077 16.571 0.213183 16.5328 0.127467 16.4564C0.0417516 16.3801 -6.10352e-05 16.2634 -6.10352e-05 16.1042V0.998646C-6.10352e-05 0.845871 0.0417523 0.72492 0.123287 0.635802C0.204821 0.544562 0.319806 0.500006 0.46824 0.500006H11.0468C11.2015 0.500006 11.3228 0.546688 11.4085 0.64005C11.4942 0.733412 11.536 0.860724 11.536 1.01774V3.69341C11.536 3.81648 11.4942 3.93319 11.4085 4.04565C11.3228 4.15598 11.1994 4.21115 11.0363 4.21115H4.12683V6.89531H9.45792C9.59172 6.89531 9.70461 6.92715 9.79242 6.99292C9.88232 7.0587 9.92622 7.16692 9.92622 7.31757V9.65586C9.92622 9.75559 9.8865 9.8532 9.80915 9.94656C9.73179 10.042 9.61681 10.0887 9.46837 10.0887H4.12683V12.8578H11.2914C11.6113 12.8578 11.7701 13.0233 11.7701 13.3543Z" fill="white"/>
<path d="M14.0218 0.964701C14.0218 0.835267 14.0636 0.722804 14.1493 0.629442C14.235 0.53608 14.3521 0.489398 14.5006 0.489398H17.6574C17.7787 0.489398 17.8874 0.531839 17.9877 0.618835C18.0881 0.705832 18.1403 0.820414 18.1466 0.964701V12.7389H24.0108C24.1383 12.7389 24.2491 12.7814 24.3411 12.8684C24.4331 12.9554 24.4791 13.0742 24.4791 13.2249V16.0703C24.4791 16.1933 24.4373 16.3037 24.3558 16.4055C24.2742 16.5074 24.1592 16.5604 24.0087 16.5668H14.488C14.1744 16.5668 14.0197 16.4077 14.0197 16.0915V0.964701H14.0218Z" fill="white"/>
<path d="M26.5927 0.964701C26.5927 0.835267 26.6345 0.722804 26.7203 0.629442C26.806 0.53608 26.923 0.489398 27.0715 0.489398H30.2283C30.3496 0.489398 30.4583 0.531839 30.5586 0.618835C30.659 0.705832 30.7113 0.820414 30.7175 0.964701V12.7389H36.5817C36.7093 12.7389 36.8201 12.7814 36.912 12.8684C37.004 12.9554 37.05 13.0742 37.05 13.2249V16.0703C37.05 16.1933 37.0082 16.3037 36.9267 16.4055C36.8451 16.5074 36.7302 16.5604 36.5796 16.5668H27.0589C26.7453 16.5668 26.5906 16.4077 26.5906 16.0915V0.964701H26.5927Z" fill="white"/>
<path d="M39.5797 0.975302C39.5797 0.845868 39.6194 0.733412 39.6967 0.64005C39.7741 0.546688 39.8932 0.500006 40.0479 0.500006H43.1818C43.2884 0.500006 43.4013 0.54244 43.5226 0.629437C43.6438 0.716433 43.7044 0.831015 43.7044 0.975302V16.0936C43.7044 16.4119 43.5309 16.5689 43.1818 16.5689H40.0479C39.7344 16.5689 39.5797 16.4098 39.5797 16.0936V0.975302Z" fill="white"/>
<path d="M66.649 11.3767C66.7703 11.4785 66.925 11.6122 67.1132 11.782C67.3013 11.9517 67.5166 12.1194 67.7571 12.2849C68.1187 12.531 68.4783 12.722 68.8337 12.8578C69.1891 12.9957 69.5613 13.0636 69.9522 13.0636C70.3139 13.0636 70.6191 13.0233 70.8637 12.9405C71.1083 12.8578 71.3028 12.7474 71.4449 12.6116C71.5871 12.4737 71.6874 12.3167 71.7481 12.1363C71.8087 11.956 71.838 11.765 71.838 11.5634C71.838 11.3406 71.7543 11.1391 71.5871 10.9629C71.4198 10.7868 71.215 10.6298 70.9745 10.4919C70.732 10.354 70.4812 10.2373 70.2177 10.1397C69.9543 10.042 69.7264 9.96142 69.5362 9.89564C68.6832 9.59221 67.9369 9.26756 67.2971 8.91746C66.6574 8.56735 66.1243 8.17905 65.6978 7.75043C65.2713 7.32181 64.9515 6.84864 64.7382 6.33515C64.525 5.81953 64.4183 5.2445 64.4183 4.61007C64.4183 3.93956 64.5521 3.33058 64.8177 2.78313C65.0832 2.23569 65.4637 1.76676 65.9591 1.37846C66.4525 0.990157 67.0483 0.688852 67.7445 0.476665C68.4407 0.264479 69.2184 0.158385 70.0797 0.158385C70.7258 0.158385 71.3467 0.232655 71.9404 0.381185C72.5341 0.529716 73.1195 0.765243 73.6944 1.08989C73.937 1.23418 74.1648 1.38483 74.3823 1.53972C74.5997 1.69462 74.7899 1.84527 74.953 1.98956C75.1161 2.13385 75.2457 2.27177 75.3419 2.4012C75.438 2.53064 75.4861 2.64309 75.4861 2.73645C75.4861 2.82982 75.4631 2.91681 75.4171 2.99532C75.3711 3.07383 75.3021 3.16508 75.2101 3.2648L73.5795 5.02807C73.4582 5.15114 73.3369 5.21268 73.2178 5.21268C73.1174 5.21268 73.0275 5.18297 72.946 5.12568C72.8645 5.06839 72.7746 4.99625 72.6742 4.90925L72.578 4.82225C72.4359 4.69918 72.277 4.57399 72.1035 4.44244C71.93 4.313 71.7418 4.1963 71.5432 4.09021C71.3446 3.98623 71.1334 3.89924 70.9139 3.83134C70.6944 3.76344 70.4686 3.72949 70.2428 3.72949C70.0087 3.72949 69.7871 3.74859 69.5822 3.7889C69.3752 3.82922 69.1954 3.89075 69.0386 3.97775C68.8818 4.06474 68.7585 4.17721 68.6644 4.31937C68.5724 4.45941 68.5264 4.63128 68.5264 4.83286C68.5264 5.03444 68.5766 5.21055 68.6749 5.35696C68.7752 5.50549 68.9236 5.64129 69.1222 5.7686C69.3209 5.89592 69.5675 6.01474 69.8623 6.12508C70.1571 6.23541 70.5 6.35849 70.8909 6.48792C71.6435 6.74042 72.3397 7.00566 72.9753 7.28362C73.6108 7.56159 74.1606 7.89047 74.6227 8.26816C75.0847 8.64798 75.4443 9.09994 75.7056 9.62616C75.9649 10.1524 76.0945 10.7911 76.0945 11.5422C76.0945 12.3358 75.9356 13.0551 75.6157 13.7001C75.2959 14.3452 74.8568 14.8948 74.2986 15.351C73.7404 15.805 73.084 16.1573 72.3313 16.4055C71.5787 16.6538 70.7676 16.779 69.9 16.779C69.0825 16.779 68.2797 16.6304 67.4895 16.3334C66.7013 16.0363 65.9654 15.6395 65.2818 15.1388C64.9974 14.9287 64.757 14.7229 64.5626 14.5192C64.3661 14.3155 64.2135 14.1542 64.0985 14.0312L64.0671 13.9993C64.0608 13.9845 64.0525 13.976 64.0462 13.9717C64.0399 13.9675 64.0316 13.9633 64.0253 13.9548C64.019 13.9399 64.0107 13.9314 64.0044 13.9272C63.9981 13.9229 63.9898 13.9187 63.9835 13.9102C63.8204 13.7299 63.7389 13.5856 63.7389 13.4752C63.7389 13.3522 63.8204 13.2142 63.9835 13.0636L65.8274 11.277C65.9759 11.1688 66.0971 11.1157 66.1891 11.1157C66.2539 11.1157 66.3208 11.1369 66.3919 11.1815C66.4651 11.2239 66.5508 11.2897 66.649 11.3767Z" fill="white"/>
<path d="M85.3288 0.998646C85.3288 0.847993 85.3685 0.727042 85.45 0.635802C85.5316 0.546683 85.6465 0.500006 85.795 0.500006H96.3735C96.5303 0.500006 96.6516 0.546688 96.7352 0.64005C96.8209 0.733412 96.8627 0.858602 96.8627 1.01774V3.69341C96.8627 3.81648 96.8209 3.93318 96.7352 4.04352C96.6495 4.15598 96.5261 4.21115 96.361 4.21115H89.4515V6.89531H94.7826C94.9185 6.89531 95.0293 6.92715 95.1191 6.99292C95.207 7.0587 95.253 7.16692 95.253 7.31757V9.65587C95.253 9.75772 95.2132 9.85532 95.1359 9.94868C95.0585 10.042 94.9435 10.0887 94.7951 10.0887H89.4536V12.8599H96.6181C96.938 12.8599 97.0969 13.0254 97.0969 13.3564V16.0766C97.0969 16.1488 97.0676 16.2124 97.0112 16.2718C96.9819 16.4734 96.8376 16.5732 96.5742 16.5732H85.7929C85.6507 16.5732 85.5378 16.535 85.4521 16.4586C85.3664 16.3822 85.3246 16.2655 85.3246 16.1063V0.998646H85.3288Z" fill="white"/>
<path d="M113.435 8.55038C113.435 9.31425 113.339 10.0421 113.147 10.7317C112.954 11.4213 112.68 12.0621 112.325 12.6583C111.97 13.2524 111.545 13.7935 111.052 14.2752C110.558 14.759 110.011 15.1706 109.411 15.508C108.811 15.8475 108.16 16.1085 107.464 16.2931C106.768 16.4777 106.047 16.5689 105.301 16.5689H100.045C99.9172 16.5689 99.8022 16.5392 99.7039 16.4819C99.6036 16.4246 99.5555 16.3016 99.5555 16.1148V0.996528C99.5555 0.845875 99.5973 0.722804 99.6788 0.629442C99.7604 0.53608 99.8837 0.489398 100.047 0.489398H105.303C106.049 0.489398 106.768 0.582764 107.462 0.77161C108.154 0.958334 108.802 1.22569 109.402 1.57155C110.002 1.91742 110.552 2.33331 111.05 2.81497C111.547 3.29876 111.972 3.83983 112.323 4.4382C112.674 5.03656 112.948 5.68374 113.145 6.37546C113.337 7.06932 113.435 7.79287 113.435 8.55038ZM103.678 4.37454V12.6965H104.573C104.736 12.6965 104.897 12.6901 105.052 12.6795C105.209 12.6689 105.365 12.6562 105.52 12.6413C106.053 12.5989 106.551 12.4673 107.013 12.2467C107.475 12.026 107.878 11.7374 108.223 11.3809C108.568 11.0245 108.838 10.6043 109.034 10.1206C109.229 9.63677 109.327 9.11055 109.327 8.53977C109.327 7.93291 109.214 7.37698 108.99 6.86773C108.767 6.35848 108.464 5.91926 108.079 5.54793C107.694 5.1766 107.245 4.88803 106.731 4.68221C106.216 4.47639 105.666 4.37454 105.083 4.37454H103.678Z" fill="white"/>
<path d="M126.209 5.03444C125.847 4.77557 125.458 4.57399 125.046 4.42758C124.635 4.2833 124.193 4.21115 123.725 4.21115C123.136 4.21115 122.594 4.32574 122.105 4.55278C121.614 4.77982 121.193 5.08749 120.842 5.47791C120.491 5.86833 120.215 6.32454 120.016 6.84652C119.818 7.3685 119.717 7.92654 119.717 8.51854C119.717 9.11055 119.818 9.66648 120.016 10.1842C120.215 10.7041 120.491 11.156 120.842 11.5422C121.193 11.9284 121.616 12.2339 122.105 12.4567C122.596 12.6795 123.136 12.792 123.725 12.792C123.974 12.792 124.221 12.775 124.465 12.7389C124.71 12.7029 124.971 12.6562 125.249 12.5989V9.76409C125.249 9.62616 125.289 9.5137 125.366 9.42246C125.444 9.33334 125.561 9.28667 125.717 9.28667H128.617C128.724 9.28667 128.837 9.3291 128.958 9.4161C129.079 9.50309 129.14 9.61768 129.14 9.76196V14.9987C129.14 15.1939 129.037 15.3531 128.83 15.474C128.496 15.7053 128.126 15.9027 127.722 16.0703C127.317 16.2358 126.894 16.3737 126.453 16.4819C126.012 16.5901 125.567 16.6708 125.115 16.7259C124.664 16.7811 124.225 16.8066 123.798 16.8066C123.046 16.8066 122.322 16.709 121.628 16.5137C120.934 16.3185 120.286 16.0406 119.682 15.6798C119.078 15.3191 118.528 14.8884 118.034 14.3876C117.541 13.8869 117.117 13.3309 116.761 12.722C116.406 12.113 116.132 11.4552 115.94 10.7529C115.747 10.0484 115.651 9.31637 115.651 8.55038C115.651 7.7865 115.747 7.05234 115.94 6.34788C116.132 5.64554 116.406 4.98351 116.761 4.36817C117.117 3.75071 117.541 3.19054 118.034 2.68553C118.528 2.18053 119.078 1.74979 119.682 1.39331C120.286 1.03684 120.934 0.758877 121.628 0.559422C122.32 0.359966 123.044 0.262362 123.798 0.262362C124.651 0.262362 125.456 0.383306 126.213 0.625199C126.97 0.867092 127.683 1.21507 128.352 1.66915C128.473 1.7413 128.565 1.83678 128.63 1.95561C128.695 2.07443 128.68 2.21023 128.588 2.36089L126.861 4.89227C126.769 5.00685 126.677 5.08536 126.583 5.12568C126.489 5.16599 126.363 5.13629 126.209 5.03444Z" fill="white"/>
<path d="M132.232 0.998646C132.232 0.847993 132.272 0.727042 132.353 0.635802C132.435 0.546683 132.55 0.500006 132.698 0.500006H143.277C143.433 0.500006 143.555 0.546688 143.638 0.64005C143.724 0.733412 143.766 0.858602 143.766 1.01774V3.69341C143.766 3.81648 143.724 3.93318 143.638 4.04352C143.553 4.15598 143.429 4.21115 143.264 4.21115H136.355V6.89531H141.686C141.822 6.89531 141.932 6.92715 142.022 6.99292C142.11 7.0587 142.156 7.16692 142.156 7.31757V9.65587C142.156 9.75772 142.116 9.85532 142.039 9.94868C141.962 10.042 141.847 10.0887 141.698 10.0887H136.357V12.8599H143.521C143.841 12.8599 144 13.0254 144 13.3564V16.0766C144 16.1488 143.971 16.2124 143.914 16.2718C143.885 16.4734 143.741 16.5732 143.477 16.5732H132.696C132.554 16.5732 132.441 16.535 132.355 16.4586C132.27 16.3822 132.228 16.2655 132.228 16.1063V0.998646H132.232Z" fill="white"/>
</svg>
