<svg width="144" height="17" viewBox="0 0 144 17" fill="none" xmlns="http://www.w3.org/2000/svg">
<path d="M62.5452 8.46658C62.5452 12.9777 58.941 16.6358 54.4963 16.6358C52.1234 16.6358 49.991 15.5939 48.5171 13.9346C48.1136 13.4805 47.7603 12.9819 47.4655 12.4451C46.8174 11.2674 46.4474 9.90945 46.4474 8.46445C46.4474 7.33562 46.6732 6.26196 47.0808 5.28378C47.3108 4.73209 47.5993 4.21011 47.938 3.72844C49.3973 1.65113 51.791 0.295261 54.4963 0.295261C58.941 0.297383 62.5452 3.95549 62.5452 8.46658Z" fill="white"/>
<path d="M53.865 3.05793C53.6643 3.04945 53.4699 3.09189 53.3946 3.10886C52.8887 3.22981 52.5542 3.52687 52.389 3.69662C51.8915 3.77088 51.3521 3.82605 50.7793 3.85363C49.736 3.90244 48.7827 3.84303 47.936 3.73057C47.5973 4.21223 47.3088 4.73421 47.0789 5.28589C48.0698 5.13736 49.3075 5.06522 50.7061 5.23497C51.2831 5.30499 51.8141 5.40897 52.2971 5.52779C52.4685 5.71027 52.7883 5.99885 53.2692 6.15162C53.3549 6.1792 53.541 6.23437 53.7333 6.24286C54.6009 6.27893 55.3326 5.59569 55.3703 4.71512C55.4058 3.83879 54.7326 3.09613 53.865 3.05793Z" fill="#0A1B30"/>
<path d="M58.3703 7.28682C58.1696 7.28682 57.971 7.33774 57.8957 7.35896C57.4086 7.49476 57.0825 7.77697 56.9131 7.95097C55.895 8.15466 54.603 8.29683 53.1228 8.18012C52.5333 8.13344 51.9897 8.05069 51.4942 7.95097C51.3123 7.77273 50.9737 7.49264 50.4803 7.35896C50.3904 7.33562 50.2001 7.28682 50.0057 7.28682C49.1235 7.28682 48.4064 8.0125 48.4064 8.91005C48.4064 9.80548 49.1214 10.5333 50.0057 10.5333C50.2106 10.5333 50.405 10.4823 50.4824 10.459C50.9904 10.3147 51.3186 9.99857 51.4796 9.81821C51.9834 9.7206 52.527 9.63997 53.1082 9.58904C54.5716 9.45961 55.872 9.54448 56.9466 9.70362C57.049 9.86489 57.3501 10.2871 57.8957 10.459C57.9584 10.4781 58.1529 10.5312 58.3703 10.5312C59.2525 10.5312 59.9696 9.80547 59.9696 8.90792C59.9696 8.01249 59.2546 7.28682 58.3703 7.28682ZM58.4455 9.58904C58.0901 9.58904 57.7995 9.29622 57.7995 8.93338C57.7995 8.57267 58.088 8.27985 58.4455 8.27985C58.8009 8.27985 59.0915 8.57267 59.0915 8.93338C59.0915 9.29622 58.803 9.58904 58.4455 9.58904Z" fill="#0A1B30"/>
<path d="M53.8692 11.8446C53.6685 11.8361 53.474 11.8785 53.3988 11.8955C52.8928 12.0165 52.5583 12.3135 52.3932 12.4833C51.8956 12.5575 51.3562 12.6127 50.7834 12.6403C49.5395 12.6976 48.4231 12.6021 47.4656 12.4472C47.7604 12.984 48.1137 13.4827 48.5172 13.9368C49.1862 13.9092 49.9221 13.9283 50.7102 14.0238C51.2872 14.0938 51.8182 14.1977 52.3012 14.3166C52.4726 14.4991 52.7925 14.7876 53.2733 14.9404C53.359 14.968 53.5451 15.0232 53.7374 15.0316C54.6051 15.0677 55.3368 14.3845 55.3744 13.5039C55.4099 12.6254 54.7368 11.8807 53.8692 11.8446Z" fill="#0A1B30"/>
<path d="M11.7702 13.3108V16.031C11.7702 16.1032 11.743 16.1668 11.6866 16.2241C11.6573 16.4257 11.511 16.5276 11.2496 16.5276H0.468301C0.326138 16.5276 0.213244 16.4894 0.127528 16.413C0.0418126 16.3366 0 16.2199 0 16.0607V0.955166C0 0.802392 0.0418133 0.68144 0.123348 0.592322C0.204882 0.501082 0.319867 0.456526 0.468301 0.456526H11.0469C11.2016 0.456526 11.3228 0.503208 11.4085 0.59657C11.4942 0.689932 11.5361 0.817244 11.5361 0.974262V3.64993C11.5361 3.773 11.4942 3.88971 11.4085 4.00217C11.3228 4.1125 11.1995 4.16767 11.0364 4.16767H4.12689V6.85183H9.45798C9.59178 6.85183 9.70468 6.88367 9.79248 6.94944C9.88238 7.01522 9.92628 7.12344 9.92628 7.27409V9.61238C9.92628 9.71211 9.88656 9.80972 9.80921 9.90308C9.73185 9.99856 9.61687 10.0452 9.46843 10.0452H4.12689V12.8143H11.2915C11.6113 12.8143 11.7702 12.9798 11.7702 13.3108Z" fill="white"/>
<path d="M14.0219 0.921222C14.0219 0.791788 14.0637 0.679325 14.1494 0.585963C14.2351 0.492601 14.3522 0.445919 14.5006 0.445919H17.6575C17.7787 0.445919 17.8874 0.48836 17.9878 0.575356C18.0881 0.662353 18.1404 0.776935 18.1467 0.921222V12.6955H24.0109C24.1384 12.6955 24.2492 12.7379 24.3412 12.8249C24.4332 12.9119 24.4792 13.0307 24.4792 13.1814V16.0268C24.4792 16.1499 24.4374 16.2602 24.3558 16.3621C24.2743 16.4639 24.1593 16.517 24.0088 16.5233H14.4881C14.1745 16.5233 14.0198 16.3642 14.0198 16.048V0.921222H14.0219Z" fill="white"/>
<path d="M26.5928 0.921222C26.5928 0.791788 26.6346 0.679325 26.7203 0.585963C26.806 0.492601 26.9231 0.445919 27.0715 0.445919H30.2284C30.3496 0.445919 30.4584 0.48836 30.5587 0.575356C30.6591 0.662353 30.7113 0.776935 30.7176 0.921222V12.6955H36.5818C36.7093 12.6955 36.8201 12.7379 36.9121 12.8249C37.0041 12.9119 37.0501 13.0307 37.0501 13.1814V16.0268C37.0501 16.1499 37.0083 16.2602 36.9267 16.3621C36.8452 16.4639 36.7302 16.517 36.5797 16.5233H27.059C26.7454 16.5233 26.5907 16.3642 26.5907 16.048V0.921222H26.5928Z" fill="white"/>
<path d="M39.5797 0.931822C39.5797 0.802388 39.6194 0.689932 39.6968 0.59657C39.7741 0.503208 39.8933 0.456526 40.048 0.456526H43.1819C43.2885 0.456526 43.4014 0.49896 43.5226 0.585957C43.6439 0.672953 43.7045 0.787535 43.7045 0.931822V16.0501C43.7045 16.3684 43.531 16.5254 43.1819 16.5254H40.048C39.7344 16.5254 39.5797 16.3663 39.5797 16.0501V0.931822Z" fill="white"/>
<path d="M66.6492 11.3332C66.7704 11.4351 66.9251 11.5687 67.1133 11.7385C67.3014 11.9082 67.5168 12.0759 67.7572 12.2414C68.1189 12.4875 68.4785 12.6785 68.8339 12.8143C69.1893 12.9522 69.5614 13.0201 69.9523 13.0201C70.314 13.0201 70.6193 12.9798 70.8639 12.897C71.1085 12.8143 71.3029 12.7039 71.445 12.5681C71.5872 12.4302 71.6876 12.2732 71.7482 12.0929C71.8088 11.9125 71.8381 11.7215 71.8381 11.5199C71.8381 11.2971 71.7545 11.0956 71.5872 10.9195C71.42 10.7433 71.2151 10.5863 70.9747 10.4484C70.7321 10.3105 70.4813 10.1938 70.2179 10.0962C69.9544 9.99857 69.7266 9.91794 69.5363 9.85216C68.6833 9.54873 67.937 9.22408 67.2973 8.87398C66.6575 8.52387 66.1244 8.13557 65.6979 7.70695C65.2714 7.27833 64.9516 6.80516 64.7383 6.29167C64.5251 5.77605 64.4185 5.20103 64.4185 4.56659C64.4185 3.89608 64.5523 3.2871 64.8178 2.73966C65.0833 2.19221 65.4638 1.72328 65.9593 1.33498C66.4526 0.946678 67.0485 0.645373 67.7446 0.433186C68.4408 0.221 69.2185 0.114906 70.0799 0.114906C70.7259 0.114906 71.3468 0.189176 71.9405 0.337706C72.5343 0.486237 73.1196 0.721764 73.6946 1.04641C73.9371 1.1907 74.165 1.34135 74.3824 1.49624C74.5998 1.65114 74.79 1.80179 74.9531 1.94608C75.1162 2.09037 75.2458 2.22829 75.342 2.35772C75.4381 2.48716 75.4862 2.59961 75.4862 2.69297C75.4862 2.78634 75.4632 2.87333 75.4172 2.95184C75.3712 3.03035 75.3023 3.1216 75.2103 3.22132L73.5796 4.9846C73.4583 5.10766 73.3371 5.1692 73.2179 5.1692C73.1176 5.1692 73.0276 5.13949 72.9461 5.0822C72.8646 5.02491 72.7747 4.95277 72.6743 4.86577L72.5782 4.77877C72.436 4.65571 72.2771 4.53051 72.1036 4.39896C71.9301 4.26952 71.7419 4.15282 71.5433 4.04673C71.3447 3.94276 71.1335 3.85576 70.914 3.78786C70.6945 3.71996 70.4687 3.68601 70.2429 3.68601C70.0088 3.68601 69.7872 3.70511 69.5823 3.74543C69.3753 3.78574 69.1955 3.84727 69.0387 3.93427C68.8819 4.02126 68.7586 4.13373 68.6645 4.27589C68.5725 4.41594 68.5265 4.5878 68.5265 4.78938C68.5265 4.99096 68.5767 5.16707 68.675 5.31348C68.7753 5.46201 68.9238 5.59781 69.1224 5.72513C69.321 5.85244 69.5677 5.97126 69.8624 6.0816C70.1572 6.19193 70.5001 6.31501 70.891 6.44444C71.6437 6.69694 72.3398 6.96218 72.9754 7.24014C73.6109 7.51811 74.1608 7.84699 74.6228 8.22469C75.0848 8.6045 75.4444 9.05646 75.7057 9.58268C75.965 10.1089 76.0946 10.7476 76.0946 11.4987C76.0946 12.2923 75.9357 13.0116 75.6158 13.6567C75.296 14.3017 74.8569 14.8513 74.2987 15.3075C73.7406 15.7616 73.0841 16.1138 72.3315 16.362C71.5788 16.6103 70.7677 16.7355 69.9001 16.7355C69.0826 16.7355 68.2798 16.587 67.4896 16.2899C66.7014 15.9928 65.9655 15.5961 65.2819 15.0953C64.9976 14.8852 64.7571 14.6794 64.5627 14.4757C64.3662 14.272 64.2136 14.1107 64.0986 13.9877L64.0672 13.9559C64.061 13.941 64.0526 13.9325 64.0463 13.9283C64.0401 13.924 64.0317 13.9198 64.0254 13.9113C64.0192 13.8964 64.0108 13.888 64.0045 13.8837C63.9982 13.8795 63.9899 13.8752 63.9836 13.8667C63.8205 13.6864 63.739 13.5421 63.739 13.4318C63.739 13.3087 63.8205 13.1708 63.9836 13.0201L65.8275 11.2335C65.976 11.1253 66.0972 11.0722 66.1892 11.0722C66.254 11.0722 66.3209 11.0935 66.392 11.138C66.4652 11.1804 66.5509 11.2462 66.6492 11.3332Z" fill="white"/>
<path d="M85.3289 0.955166C85.3289 0.804513 85.3686 0.683562 85.4501 0.592322C85.5317 0.503204 85.6467 0.456526 85.7951 0.456526H96.3736C96.5304 0.456526 96.6517 0.503208 96.7353 0.59657C96.821 0.689932 96.8629 0.815122 96.8629 0.974262V3.64993C96.8629 3.773 96.821 3.8897 96.7353 4.00004C96.6496 4.1125 96.5263 4.16767 96.3611 4.16767H89.4516V6.85183H94.7827C94.9186 6.85183 95.0294 6.88367 95.1193 6.94944C95.2071 7.01522 95.2531 7.12344 95.2531 7.27409V9.61239C95.2531 9.71424 95.2134 9.81184 95.136 9.9052C95.0586 9.99857 94.9437 10.0452 94.7952 10.0452H89.4537V12.8164H96.6183C96.9381 12.8164 97.097 12.9819 97.097 13.3129V16.0332C97.097 16.1053 97.0677 16.169 97.0113 16.2284C96.982 16.4299 96.8378 16.5297 96.5744 16.5297H85.793C85.6508 16.5297 85.5379 16.4915 85.4522 16.4151C85.3665 16.3387 85.3247 16.222 85.3247 16.0629V0.955166H85.3289Z" fill="white"/>
<path d="M113.435 8.5069C113.435 9.27077 113.339 9.99857 113.147 10.6882C112.954 11.3778 112.68 12.0186 112.325 12.6148C111.97 13.209 111.545 13.75 111.052 14.2317C110.558 14.7155 110.011 15.1271 109.411 15.4645C108.811 15.804 108.161 16.065 107.464 16.2496C106.768 16.4342 106.047 16.5254 105.301 16.5254H100.045C99.9172 16.5254 99.8022 16.4957 99.704 16.4384C99.6036 16.3812 99.5555 16.2581 99.5555 16.0714V0.953049C99.5555 0.802396 99.5973 0.679325 99.6789 0.585963C99.7604 0.492601 99.8838 0.445919 100.047 0.445919H105.303C106.049 0.445919 106.768 0.539285 107.462 0.728131C108.154 0.914855 108.802 1.18221 109.402 1.52807C110.002 1.87394 110.552 2.28983 111.05 2.77149C111.547 3.25528 111.972 3.79635 112.323 4.39472C112.674 4.99309 112.948 5.64026 113.145 6.33199C113.337 7.02584 113.435 7.74939 113.435 8.5069ZM103.678 4.33106V12.653H104.573C104.736 12.653 104.897 12.6467 105.052 12.6361C105.209 12.6254 105.365 12.6127 105.52 12.5979C106.053 12.5554 106.551 12.4239 107.013 12.2032C107.475 11.9825 107.878 11.6939 108.223 11.3375C108.568 10.981 108.838 10.5609 109.034 10.0771C109.229 9.5933 109.327 9.06707 109.327 8.49629C109.327 7.88943 109.214 7.3335 108.991 6.82425C108.767 6.31501 108.464 5.87578 108.079 5.50445C107.694 5.13312 107.245 4.84455 106.731 4.63873C106.216 4.43291 105.666 4.33106 105.083 4.33106H103.678Z" fill="white"/>
<path d="M126.209 4.99096C125.847 4.73209 125.458 4.53051 125.046 4.3841C124.635 4.23982 124.193 4.16767 123.725 4.16767C123.136 4.16767 122.594 4.28226 122.105 4.5093C121.614 4.73634 121.193 5.04401 120.842 5.43443C120.491 5.82485 120.215 6.28106 120.016 6.80304C119.818 7.32502 119.717 7.88306 119.717 8.47506C119.717 9.06707 119.818 9.623 120.016 10.1407C120.215 10.6606 120.491 11.1125 120.842 11.4987C121.193 11.8849 121.616 12.1905 122.105 12.4133C122.596 12.6361 123.136 12.7485 123.725 12.7485C123.974 12.7485 124.221 12.7315 124.465 12.6955C124.71 12.6594 124.971 12.6127 125.249 12.5554V9.72061C125.249 9.58268 125.289 9.47022 125.366 9.37898C125.444 9.28986 125.561 9.24319 125.717 9.24319H128.617C128.724 9.24319 128.837 9.28562 128.958 9.37262C129.079 9.45961 129.14 9.5742 129.14 9.71848V14.9553C129.14 15.1505 129.037 15.3096 128.83 15.4306C128.496 15.6618 128.126 15.8592 127.722 16.0268C127.317 16.1923 126.894 16.3302 126.453 16.4384C126.012 16.5467 125.567 16.6273 125.115 16.6825C124.664 16.7376 124.225 16.7631 123.798 16.7631C123.046 16.7631 122.322 16.6655 121.628 16.4703C120.934 16.2751 120.286 15.9971 119.682 15.6364C119.078 15.2757 118.528 14.8449 118.034 14.3442C117.541 13.8434 117.117 13.2875 116.761 12.6785C116.406 12.0695 116.132 11.4117 115.94 10.7094C115.747 10.0049 115.651 9.27289 115.651 8.5069C115.651 7.74302 115.747 7.00886 115.94 6.3044C116.132 5.60206 116.406 4.94003 116.761 4.32469C117.117 3.70723 117.541 3.14706 118.034 2.64205C118.528 2.13705 119.078 1.70631 119.682 1.34983C120.286 0.993361 120.934 0.715397 121.628 0.515942C122.32 0.316486 123.044 0.218882 123.798 0.218882C124.651 0.218882 125.456 0.339826 126.213 0.581719C126.97 0.823612 127.683 1.17159 128.352 1.62567C128.473 1.69782 128.565 1.7933 128.63 1.91213C128.695 2.03095 128.68 2.16675 128.588 2.31741L126.861 4.84879C126.769 4.96337 126.677 5.04188 126.583 5.0822C126.489 5.12251 126.363 5.09281 126.209 4.99096Z" fill="white"/>
<path d="M132.232 0.955166C132.232 0.804513 132.272 0.683562 132.353 0.592322C132.435 0.503204 132.55 0.456526 132.698 0.456526H143.277C143.434 0.456526 143.555 0.503208 143.638 0.59657C143.724 0.689932 143.766 0.815122 143.766 0.974262V3.64993C143.766 3.773 143.724 3.8897 143.638 4.00004C143.553 4.1125 143.429 4.16767 143.264 4.16767H136.355V6.85183H141.686C141.822 6.85183 141.932 6.88367 142.022 6.94944C142.11 7.01522 142.156 7.12344 142.156 7.27409V9.61239C142.156 9.71424 142.116 9.81184 142.039 9.9052C141.962 9.99857 141.847 10.0452 141.698 10.0452H136.357V12.8164H143.521C143.841 12.8164 144 12.9819 144 13.3129V16.0332C144 16.1053 143.971 16.169 143.914 16.2284C143.885 16.4299 143.741 16.5297 143.477 16.5297H132.696C132.554 16.5297 132.441 16.4915 132.355 16.4151C132.27 16.3387 132.228 16.222 132.228 16.0629V0.955166H132.232Z" fill="white"/>
</svg>
