<svg width="84" height="84" viewBox="0 0 84 84" fill="none" xmlns="http://www.w3.org/2000/svg">
<path d="M83.0582 41.7583C83.0582 64.796 64.6561 83.4731 41.9577 83.4731C29.8422 83.4731 18.9497 78.1515 11.4284 69.6852C9.37175 67.3715 7.56632 64.8213 6.05708 62.0803C2.74408 56.0663 0.857117 49.1352 0.857117 41.7583C0.857117 35.9993 2.00693 30.5105 4.08858 25.5199C5.26336 22.6995 6.73599 20.0379 8.46488 17.5755C15.9162 6.96273 28.1416 0.0434799 41.9577 0.0434799C64.6561 0.0434799 83.0582 18.7206 83.0582 41.7583Z" fill="white"/>
<path d="M38.7412 14.1404C37.7145 14.0965 36.7244 14.3126 36.3367 14.4055C33.7575 15.0253 32.0419 16.5402 31.2016 17.4066C28.6557 17.7866 25.9085 18.072 22.9815 18.2071C17.6584 18.452 12.7812 18.1514 8.46486 17.5755C6.73597 20.0379 5.26334 22.6995 4.08856 25.5199C9.15375 24.7667 15.4669 24.3917 22.6071 25.2649C25.5507 25.6263 28.2647 26.1532 30.7307 26.7646C31.606 27.6968 33.2433 29.1729 35.696 29.9548C36.1387 30.095 37.0871 30.3804 38.0656 30.421C42.4951 30.6101 46.2374 27.1192 46.4238 22.6235C46.6102 18.1278 43.1707 14.3295 38.7412 14.1404Z" fill="#12203C" stroke="#12203C" stroke-miterlimit="10"/>
<path d="M61.7474 35.7324C60.7241 35.7324 59.7057 35.9976 59.3213 36.104C56.837 36.7964 55.1714 38.2438 54.3061 39.1287C49.1028 40.1724 42.5084 40.8986 34.9539 40.2991C31.9487 40.061 29.1682 39.6421 26.6373 39.1287C25.7088 38.2201 23.9832 36.7913 21.4573 36.104C21.0013 35.9807 20.0246 35.7324 19.0312 35.7324C14.5218 35.7324 10.866 39.4429 10.866 44.018C10.866 48.5948 14.5218 52.3052 19.0312 52.3052C20.0762 52.3052 21.0729 52.0417 21.4639 51.9303C24.0564 51.1889 25.737 49.5743 26.5541 48.6573C29.1249 48.1607 31.9021 47.7503 34.8723 47.4869C42.3403 46.8215 48.983 47.2572 54.4708 48.0729C54.9983 48.9005 56.5258 51.0504 59.3213 51.9336C59.6375 52.0316 60.6309 52.3052 61.7474 52.3052C66.2569 52.3052 69.9126 48.5948 69.9126 44.018C69.9126 39.4429 66.2569 35.7324 61.7474 35.7324ZM62.1302 47.4869C60.3114 47.4869 58.8355 45.9906 58.8355 44.1429C58.8355 42.297 60.3114 40.8007 62.1302 40.8007C63.9489 40.8007 65.4249 42.297 65.4249 44.1429C65.4249 45.9906 63.9489 47.4869 62.1302 47.4869Z" fill="#12203C"/>
<path d="M38.7594 59.0049C37.7327 58.961 36.7426 59.1755 36.3549 59.27C33.7757 59.8899 32.0602 61.4048 31.2199 62.2712C28.674 62.6511 25.9284 62.9366 23.0014 63.0717C16.6533 63.3638 10.9441 62.8791 6.05701 62.0803C7.56625 64.8213 9.37167 67.3715 11.4284 69.6852C14.8495 69.5417 18.6068 69.6379 22.627 70.1294C25.5689 70.4908 28.2846 71.0177 30.7506 71.6291C31.6242 72.5614 33.2616 74.0357 35.716 74.8177C36.1586 74.9595 37.1071 75.2433 38.0838 75.2855C42.5134 75.4746 46.2557 71.9838 46.4437 67.488C46.6301 62.9923 43.1889 59.194 38.7594 59.0049Z" fill="#12203C" stroke="#12203C" stroke-miterlimit="10"/>
</svg>
