<svg width="84" height="84" viewBox="0 0 84 84" fill="none" xmlns="http://www.w3.org/2000/svg">
<path d="M83.0583 41.7148C83.0583 64.7525 64.6562 83.4296 41.9577 83.4296C29.8422 83.4296 18.9497 78.108 11.4285 69.6418C9.37181 67.328 7.56638 64.7779 6.05715 62.0368C2.74414 56.0228 0.857178 49.0917 0.857178 41.7148C0.857178 35.9558 2.00699 30.467 4.08865 25.4764C5.26342 22.656 6.73605 19.9944 8.46494 17.532C15.9163 6.91925 28.1416 0 41.9577 0C64.6562 0 83.0583 18.6771 83.0583 41.7148Z" fill="white"/>
<path d="M38.7412 14.0969C37.7145 14.053 36.7245 14.2691 36.3367 14.362C33.7576 14.9818 32.042 16.4968 31.2017 17.3631C28.6558 17.7431 25.9085 18.0285 22.9816 18.1637C17.6585 18.4085 12.7813 18.1079 8.46492 17.532C6.73603 19.9944 5.2634 22.656 4.08862 25.4764C9.15381 24.7232 15.467 24.3483 22.6072 25.2214C25.5508 25.5828 28.2647 26.1097 30.7308 26.7211C31.606 27.6534 33.2434 29.1294 35.6961 29.9114C36.1387 30.0515 37.0872 30.3369 38.0656 30.3775C42.4952 30.5666 46.2375 27.0758 46.4238 22.58C46.6102 18.0843 43.1708 14.286 38.7412 14.0969Z" fill="#12203C" stroke="#12203C" stroke-miterlimit="10"/>
<path d="M61.7476 35.6889C60.7242 35.6889 59.7058 35.9541 59.3215 36.0605C56.8371 36.7529 55.1715 38.2003 54.3062 39.0852C49.1029 40.129 42.5085 40.8552 34.954 40.2556C31.9488 40.0175 29.1683 39.5987 26.6374 39.0852C25.7089 38.1766 23.9833 36.7479 21.4574 36.0605C21.0014 35.9372 20.0247 35.6889 19.0313 35.6889C14.5219 35.6889 10.8661 39.3994 10.8661 43.9745C10.8661 48.5513 14.5219 52.2617 19.0313 52.2617C20.0763 52.2617 21.073 51.9983 21.464 51.8868C24.0565 51.1454 25.7372 49.5308 26.5542 48.6138C29.125 48.1173 31.9022 47.7069 34.8725 47.4434C42.3405 46.778 48.9831 47.2137 54.4709 48.0294C54.9984 48.857 56.526 51.0069 59.3215 51.8902C59.6376 51.9881 60.631 52.2617 61.7476 52.2617C66.257 52.2617 69.9128 48.5513 69.9128 43.9745C69.9128 39.3994 66.257 35.6889 61.7476 35.6889ZM62.1303 47.4434C60.3115 47.4434 58.8356 45.9471 58.8356 44.0995C58.8356 42.2535 60.3115 40.7572 62.1303 40.7572C63.949 40.7572 65.425 42.2535 65.425 44.0995C65.425 45.9471 63.949 47.4434 62.1303 47.4434Z" fill="#12203C"/>
<path d="M38.7595 58.9614C37.7328 58.9175 36.7428 59.132 36.355 59.2266C33.7759 59.8464 32.0603 61.3613 31.22 62.2277C28.6741 62.6077 25.9285 62.8931 23.0015 63.0282C16.6534 63.3204 10.9443 62.8357 6.05713 62.0368C7.56637 64.7778 9.3718 67.328 11.4285 69.6418C14.8496 69.4982 18.6069 69.5945 22.6271 70.0859C25.5691 70.4473 28.2847 70.9743 30.7507 71.5856C31.6243 72.5179 33.2617 73.9923 35.7161 74.7742C36.1587 74.9161 37.1072 75.1998 38.0839 75.242C42.5135 75.4312 46.2558 71.9403 46.4438 67.4445C46.6302 62.9488 43.1891 59.1506 38.7595 58.9614Z" fill="#12203C" stroke="#12203C" stroke-miterlimit="10"/>
</svg>
