<svg width="121" height="15" viewBox="0 0 121 15" fill="none" xmlns="http://www.w3.org/2000/svg">
<path d="M52.5552 7.19989C52.5552 11.089 49.5266 14.2427 45.7919 14.2427C43.798 14.2427 42.0062 13.3445 40.7677 11.914C40.4287 11.5225 40.1318 11.0926 39.8841 10.6298C39.3395 9.61456 39.0286 8.44381 39.0286 7.19806C39.0286 6.22487 39.2183 5.29925 39.5608 4.45595C39.7541 3.98033 39.9965 3.53032 40.2811 3.11507C41.5073 1.32419 43.5187 0.155273 45.7919 0.155273C49.5266 0.157103 52.5552 3.31081 52.5552 7.19989Z" fill="white"/>
<path d="M45.328 2.53709C45.1593 2.52977 44.996 2.56636 44.9327 2.581C44.5076 2.68527 44.2265 2.94137 44.0878 3.08771C43.6697 3.15173 43.2164 3.19929 42.7351 3.22308C41.8585 3.26515 41.0574 3.21393 40.346 3.11698C40.0614 3.53223 39.819 3.98223 39.6257 4.45785C40.4584 4.3298 41.4984 4.2676 42.6736 4.41395C43.1585 4.47431 43.6047 4.56395 44.0105 4.66639C44.1545 4.82371 44.4233 5.07249 44.8273 5.2042C44.8994 5.22798 45.0557 5.27555 45.2173 5.28286C45.9463 5.31396 46.5612 4.72493 46.5928 3.96577C46.6227 3.21028 46.057 2.57002 45.328 2.53709Z" fill="#333333"/>
<path d="M49.047 6.18262C48.8784 6.18262 48.7115 6.22652 48.6482 6.24481C48.2389 6.36189 47.9649 6.60519 47.8226 6.75519C46.9671 6.9308 45.8814 7.05336 44.6377 6.95275C44.1423 6.9125 43.6855 6.84116 43.2692 6.75519C43.1164 6.60153 42.8318 6.36006 42.4172 6.24481C42.3417 6.22469 42.1818 6.18262 42.0184 6.18262C41.2771 6.18262 40.6746 6.80823 40.6746 7.58203C40.6746 8.35399 41.2754 8.98144 42.0184 8.98144C42.1906 8.98144 42.354 8.93753 42.419 8.91741C42.8458 8.79302 43.1216 8.52045 43.2569 8.36496C43.6803 8.28082 44.137 8.2113 44.6254 8.1674C45.8551 8.05581 46.9477 8.12898 47.8507 8.26618C47.9368 8.40521 48.1897 8.76924 48.6482 8.91741C48.7009 8.93387 48.8643 8.9796 49.047 8.9796C49.7883 8.9796 50.3909 8.35399 50.3909 7.5802C50.3909 6.80823 49.7901 6.18262 49.047 6.18262ZM49.1102 8.1674C48.8116 8.1674 48.5674 7.91496 48.5674 7.60215C48.5674 7.29117 48.8098 7.03873 49.1102 7.03873C49.4089 7.03873 49.6531 7.29117 49.6531 7.60215C49.6531 7.91496 49.4106 8.1674 49.1102 8.1674Z" fill="#333333"/>
<path d="M45.071 10.001C44.9023 9.99364 44.7389 10.0302 44.6757 10.0449C44.2506 10.1491 43.9695 10.4052 43.8307 10.5516C43.4126 10.6156 42.9594 10.6632 42.4781 10.6869C41.4328 10.7363 40.4948 10.654 39.6902 10.5205C39.9379 10.9833 40.2348 11.4132 40.5738 11.8046C41.136 11.7809 41.7543 11.7973 42.4166 11.8796C42.9014 11.94 43.3476 12.0296 43.7534 12.1321C43.8975 12.2894 44.1663 12.5382 44.5703 12.6699C44.6423 12.6937 44.7987 12.7412 44.9603 12.7486C45.6893 12.7797 46.3042 12.1906 46.3358 11.4315C46.3657 10.6741 45.8 10.0321 45.071 10.001Z" fill="#333333"/>
<path d="M9.89024 11.3763V13.7215C9.89024 13.7837 9.8674 13.8385 9.81997 13.8879C9.79538 14.0617 9.67241 14.1495 9.45282 14.1495H0.393502C0.274047 14.1495 0.179184 14.1166 0.107159 14.0507C0.0351342 13.9849 0 13.8843 0 13.7471V0.724319C0 0.59261 0.0351348 0.488336 0.103646 0.411506C0.172158 0.332846 0.268777 0.294434 0.393502 0.294434H9.28242C9.41242 0.294434 9.5143 0.334679 9.58633 0.415168C9.65835 0.495657 9.69349 0.605414 9.69349 0.740782V3.04752C9.69349 3.15362 9.65835 3.25423 9.58633 3.35118C9.5143 3.44631 9.41066 3.49387 9.27364 3.49387H3.46773V5.80792H7.94733C8.05975 5.80792 8.15462 5.83537 8.2284 5.89208C8.30394 5.94878 8.34083 6.04208 8.34083 6.17196V8.18784C8.34083 8.27382 8.30745 8.35796 8.24245 8.43845C8.17745 8.52077 8.08083 8.56102 7.95611 8.56102H3.46773V10.9482H9.48795C9.75673 10.9482 9.89024 11.0909 9.89024 11.3763Z" fill="white"/>
<path d="M11.7823 0.694922C11.7823 0.583335 11.8174 0.486379 11.8894 0.40589C11.9615 0.325401 12.0598 0.285156 12.1846 0.285156H14.8372C14.9391 0.285156 15.0304 0.321745 15.1147 0.396746C15.1991 0.471747 15.243 0.57053 15.2482 0.694922V10.8457H20.1758C20.283 10.8457 20.3761 10.8823 20.4534 10.9573C20.5307 11.0323 20.5693 11.1347 20.5693 11.2646V13.7177C20.5693 13.8238 20.5342 13.9189 20.4657 14.0067C20.3971 14.0945 20.3005 14.1402 20.174 14.1457H12.174C11.9105 14.1457 11.7805 14.0085 11.7805 13.736V0.694922H11.7823Z" fill="white"/>
<path d="M22.3453 0.694922C22.3453 0.583335 22.3804 0.486379 22.4524 0.40589C22.5244 0.325401 22.6228 0.285156 22.7475 0.285156H25.4002C25.5021 0.285156 25.5934 0.321745 25.6777 0.396746C25.762 0.471747 25.806 0.57053 25.8112 0.694922V10.8457H30.7388C30.8459 10.8457 30.9391 10.8823 31.0163 10.9573C31.0936 11.0323 31.1323 11.1347 31.1323 11.2646V13.7177C31.1323 13.8238 31.0972 13.9189 31.0286 14.0067C30.9601 14.0945 30.8635 14.1402 30.737 14.1457H22.737C22.4735 14.1457 22.3435 14.0085 22.3435 13.736V0.694922H22.3453Z" fill="white"/>
<path d="M33.2578 0.704194C33.2578 0.592607 33.2912 0.495657 33.3562 0.415168C33.4212 0.334679 33.5213 0.294434 33.6513 0.294434H36.2846C36.3742 0.294434 36.4691 0.331017 36.571 0.406018C36.6728 0.481019 36.7238 0.579802 36.7238 0.704194V13.7379C36.7238 14.0123 36.578 14.1477 36.2846 14.1477H33.6513C33.3878 14.1477 33.2578 14.0105 33.2578 13.7379V0.704194Z" fill="white"/>
<path d="M56.0037 9.67148C56.1056 9.75928 56.2356 9.87453 56.3937 10.0209C56.5518 10.1672 56.7327 10.3117 56.9347 10.4544C57.2386 10.6666 57.5408 10.8313 57.8394 10.9483C58.1381 11.0672 58.4508 11.1258 58.7793 11.1258C59.0832 11.1258 59.3397 11.091 59.5452 11.0197C59.7507 10.9483 59.9141 10.8532 60.0336 10.7361C60.153 10.6172 60.2373 10.4819 60.2883 10.3264C60.3392 10.1709 60.3638 10.0062 60.3638 9.83246C60.3638 9.64038 60.2935 9.4666 60.153 9.31477C60.0125 9.16294 59.8403 9.02757 59.6383 8.90867C59.4345 8.78976 59.2237 8.68915 59.0024 8.605C58.781 8.52085 58.5895 8.45134 58.4297 8.39463C57.7129 8.13305 57.0858 7.85316 56.5483 7.55133C56.0107 7.24949 55.5627 6.91473 55.2044 6.54522C54.846 6.1757 54.5772 5.76777 54.3981 5.32508C54.2189 4.88056 54.1293 4.38482 54.1293 3.83786C54.1293 3.2598 54.2417 2.73479 54.4648 2.26284C54.6879 1.79088 55.0076 1.38661 55.424 1.05184C55.8385 0.717083 56.3392 0.457324 56.9242 0.274394C57.5092 0.0914647 58.1627 0 58.8864 0C59.4292 0 59.951 0.0640287 60.4499 0.192079C60.9488 0.32013 61.4407 0.523181 61.9238 0.803063C62.1275 0.927455 62.319 1.05733 62.5017 1.19087C62.6844 1.32441 62.8443 1.45429 62.9813 1.57868C63.1183 1.70307 63.2272 1.82198 63.3081 1.93357C63.3889 2.04515 63.4293 2.1421 63.4293 2.22259C63.4293 2.30308 63.4099 2.37808 63.3713 2.44577C63.3326 2.51345 63.2747 2.59211 63.1974 2.67809L61.8271 4.19823C61.7253 4.30433 61.6234 4.35738 61.5232 4.35738C61.4389 4.35738 61.3634 4.33177 61.2949 4.28238C61.2264 4.23299 61.1508 4.17079 61.0665 4.09579L60.9857 4.02079C60.8662 3.91469 60.7327 3.80676 60.5869 3.69335C60.4411 3.58176 60.283 3.48115 60.1161 3.38968C59.9492 3.30005 59.7718 3.22505 59.5874 3.16651C59.4029 3.10797 59.2132 3.07871 59.0234 3.07871C58.8267 3.07871 58.6405 3.09517 58.4683 3.12993C58.2944 3.16468 58.1433 3.21773 58.0116 3.29273C57.8798 3.36773 57.7762 3.46469 57.6971 3.58725C57.6198 3.70798 57.5812 3.85615 57.5812 4.02994C57.5812 4.20372 57.6234 4.35555 57.7059 4.48177C57.7902 4.60982 57.915 4.7269 58.0819 4.83665C58.2487 4.94641 58.456 5.04885 58.7037 5.14397C58.9514 5.2391 59.2395 5.3452 59.568 5.45679C60.2004 5.67447 60.7854 5.90314 61.3195 6.14277C61.8535 6.38241 62.3155 6.66595 62.7037 6.99156C63.092 7.31901 63.3941 7.70865 63.6137 8.16231C63.8315 8.61598 63.9405 9.16659 63.9405 9.81416C63.9405 10.4983 63.807 11.1185 63.5382 11.6746C63.2694 12.2307 62.9005 12.7045 62.4315 13.0977C61.9624 13.4892 61.4108 13.7929 60.7784 14.0069C60.146 14.2209 59.4644 14.3289 58.7354 14.3289C58.0485 14.3289 57.3739 14.2008 56.7099 13.9447C56.0476 13.6886 55.4292 13.3465 54.8548 12.9148C54.6159 12.7337 54.4139 12.5563 54.2505 12.3807C54.0854 12.2051 53.9571 12.066 53.8605 11.9599L53.8341 11.9325C53.8289 11.9197 53.8219 11.9124 53.8166 11.9087C53.8113 11.905 53.8043 11.9014 53.799 11.8941C53.7937 11.8813 53.7867 11.874 53.7814 11.8703C53.7762 11.8666 53.7692 11.863 53.7639 11.8557C53.6269 11.7002 53.5583 11.5758 53.5583 11.4807C53.5583 11.3746 53.6269 11.2556 53.7639 11.1258L55.3133 9.5855C55.438 9.49221 55.5399 9.44648 55.6172 9.44648C55.6717 9.44648 55.7279 9.46477 55.7876 9.50319C55.8491 9.53977 55.9211 9.59648 56.0037 9.67148Z" fill="white"/>
<path d="M71.6998 0.724319C71.6998 0.594439 71.7332 0.490165 71.8017 0.411506C71.8702 0.334675 71.9668 0.294434 72.0915 0.294434H80.9805C81.1122 0.294434 81.2141 0.334679 81.2844 0.415168C81.3564 0.495657 81.3915 0.603585 81.3915 0.740782V3.04752C81.3915 3.15362 81.3564 3.25423 81.2844 3.34935C81.2124 3.4463 81.1087 3.49387 80.9699 3.49387H75.164V5.80792H79.6436C79.7578 5.80792 79.8509 5.83537 79.9264 5.89208C80.0002 5.94878 80.0389 6.04208 80.0389 6.17196V8.18784C80.0389 8.27564 80.0055 8.35979 79.9405 8.44028C79.8755 8.52077 79.7789 8.56102 79.6541 8.56102H75.1658V10.9501H81.186C81.4548 10.9501 81.5883 11.0928 81.5883 11.3781V13.7233C81.5883 13.7855 81.5637 13.8404 81.5163 13.8916C81.4917 14.0654 81.3705 14.1513 81.1491 14.1513H72.0898C71.9703 14.1513 71.8755 14.1184 71.8034 14.0526C71.7314 13.9867 71.6963 13.8861 71.6963 13.7489V0.724319H71.6998Z" fill="white"/>
<path d="M95.3168 7.23465C95.3168 7.8932 95.236 8.52064 95.0744 9.11516C94.9128 9.70968 94.6826 10.2621 94.384 10.7762C94.0853 11.2884 93.7287 11.7548 93.3142 12.1701C92.8996 12.5872 92.4393 12.942 91.9351 13.2329C91.431 13.5256 90.8846 13.7506 90.2997 13.9097C89.7147 14.0689 89.1086 14.1475 88.4815 14.1475H84.0651C83.958 14.1475 83.8613 14.1219 83.7788 14.0726C83.6945 14.0232 83.6541 13.9171 83.6541 13.7561V0.72236C83.6541 0.59248 83.6892 0.486379 83.7577 0.40589C83.8262 0.325401 83.9299 0.285156 84.0669 0.285156H88.4832C89.1104 0.285156 89.7147 0.365648 90.2979 0.528456C90.8794 0.689433 91.4239 0.919923 91.9281 1.2181C92.4323 1.51627 92.8943 1.87482 93.3124 2.29007C93.7305 2.70715 94.0871 3.17362 94.3822 3.68948C94.6774 4.20534 94.9075 4.76327 95.0726 5.35962C95.2342 5.9578 95.3168 6.58159 95.3168 7.23465ZM87.1183 3.63459V10.8091H87.8701C88.0072 10.8091 88.1424 10.8036 88.2724 10.7945C88.4042 10.7853 88.5359 10.7743 88.6659 10.7615C89.1139 10.7249 89.532 10.6115 89.9202 10.4213C90.3084 10.231 90.6475 9.98225 90.9373 9.67493C91.2272 9.36761 91.4538 9.00541 91.6189 8.58833C91.7823 8.17125 91.8649 7.71758 91.8649 7.2255C91.8649 6.70232 91.77 6.22305 91.5821 5.78401C91.3941 5.34498 91.1394 4.96632 90.8161 4.64619C90.4929 4.32607 90.1152 4.07729 89.6831 3.89984C89.2509 3.7224 88.7889 3.63459 88.2988 3.63459H87.1183Z" fill="white"/>
<path d="M106.05 4.20393C105.746 3.98075 105.42 3.80697 105.074 3.68074C104.728 3.55635 104.357 3.49416 103.963 3.49416C103.468 3.49416 103.013 3.59294 102.602 3.78868C102.189 3.98441 101.836 4.24966 101.541 4.58625C101.246 4.92284 101.014 5.31614 100.847 5.76614C100.68 6.21615 100.596 6.69725 100.596 7.20762C100.596 7.718 100.68 8.19727 100.847 8.64362C101.014 9.0918 101.246 9.48144 101.541 9.81437C101.836 10.1473 102.191 10.4107 102.602 10.6028C103.015 10.7949 103.468 10.8918 103.963 10.8918C104.172 10.8918 104.38 10.8772 104.585 10.8461C104.791 10.815 105.01 10.7747 105.244 10.7254V8.28142C105.244 8.16252 105.277 8.06556 105.342 7.9869C105.407 7.91007 105.506 7.86983 105.637 7.86983H108.074C108.164 7.86983 108.258 7.90642 108.36 7.98142C108.462 8.05642 108.513 8.1552 108.513 8.27959V12.7943C108.513 12.9626 108.427 13.0998 108.253 13.2041C107.972 13.4034 107.661 13.5736 107.322 13.7181C106.981 13.8608 106.626 13.9797 106.256 14.073C105.885 14.1663 105.511 14.2358 105.132 14.2833C104.752 14.3309 104.383 14.3529 104.025 14.3529C103.392 14.3529 102.785 14.2687 102.201 14.1004C101.618 13.9321 101.074 13.6925 100.566 13.3815C100.058 13.0705 99.5962 12.6992 99.1816 12.2675C98.767 11.8357 98.4104 11.3565 98.1118 10.8315C97.8131 10.3065 97.583 9.73937 97.4214 9.13388C97.2598 8.52655 97.179 7.89544 97.179 7.23507C97.179 6.57652 97.2598 5.94358 97.4214 5.33626C97.583 4.73076 97.8131 4.16002 98.1118 3.62952C98.4104 3.0972 98.767 2.61427 99.1816 2.17889C99.5962 1.74352 100.058 1.37218 100.566 1.06486C101.074 0.757534 101.618 0.517898 102.201 0.345944C102.783 0.17399 103.391 0.0898438 104.025 0.0898438C104.742 0.0898438 105.418 0.194112 106.054 0.402652C106.69 0.611191 107.289 0.911192 107.851 1.30266C107.953 1.36486 108.03 1.44718 108.085 1.54962C108.139 1.65206 108.127 1.76913 108.049 1.89901L106.598 4.08136C106.521 4.18014 106.444 4.24783 106.365 4.28258C106.286 4.31734 106.18 4.29173 106.05 4.20393Z" fill="white"/>
<path d="M111.111 0.724319C111.111 0.594439 111.145 0.490165 111.213 0.411506C111.282 0.334675 111.378 0.294434 111.503 0.294434H120.392C120.524 0.294434 120.626 0.334679 120.696 0.415168C120.768 0.495657 120.803 0.603585 120.803 0.740782V3.04752C120.803 3.15362 120.768 3.25423 120.696 3.34935C120.624 3.4463 120.52 3.49387 120.382 3.49387H114.576V5.80792H119.055C119.169 5.80792 119.263 5.83537 119.338 5.89208C119.412 5.94878 119.45 6.04208 119.45 6.17196V8.18784C119.45 8.27564 119.417 8.35979 119.352 8.44028C119.287 8.52077 119.19 8.56102 119.066 8.56102H114.577V10.9501H120.598C120.866 10.9501 121 11.0928 121 11.3781V13.7233C121 13.7855 120.975 13.8404 120.928 13.8916C120.903 14.0654 120.782 14.1513 120.561 14.1513H111.501C111.382 14.1513 111.287 14.1184 111.215 14.0526C111.143 13.9867 111.108 13.8861 111.108 13.7489V0.724319H111.111Z" fill="white"/>
</svg>
