<svg width="75" height="75" viewBox="0 0 75 75" fill="none" xmlns="http://www.w3.org/2000/svg">
<path d="M75 37.5C75 58.21 58.21 75 37.5 75C26.4459 75 16.5076 70.2161 9.64524 62.6053C7.76872 60.5253 6.12146 58.2328 4.74443 55.7687C1.72166 50.3624 0 44.1316 0 37.5C0 32.3229 1.04909 27.3887 2.94838 22.9023C4.02024 20.3669 5.36387 17.9742 6.9413 15.7606C13.7399 6.22014 24.8942 0 37.5 0C58.21 0 75 16.79 75 37.5Z" fill="white"/>
<path d="M34.5653 12.6722C33.6285 12.6327 32.7252 12.8271 32.3714 12.9106C30.0182 13.4678 28.4529 14.8296 27.6862 15.6085C25.3633 15.9501 22.8568 16.2066 20.1862 16.3281C15.3294 16.5482 10.8795 16.278 6.94128 15.7603C5.36385 17.9738 4.02023 20.3666 2.94836 22.902C7.56982 22.2249 13.3299 21.8878 19.8446 22.6727C22.5303 22.9976 25.0066 23.4713 27.2566 24.0209C28.0551 24.859 29.5491 26.1859 31.7869 26.8888C32.1908 27.0148 33.0562 27.2714 33.9489 27.3078C37.9904 27.4779 41.4048 24.3397 41.5749 20.2982C41.7449 16.2567 38.6068 12.8423 34.5653 12.6722Z" fill="#333333" stroke="#333333" stroke-miterlimit="10"/>
<path d="M55.5562 32.083C54.6225 32.083 53.6933 32.3214 53.3426 32.417C51.0759 33.0395 49.5562 34.3406 48.7667 35.1361C44.0192 36.0744 38.0025 36.7272 31.1098 36.1883C28.3679 35.9742 25.831 35.5977 23.5218 35.1361C22.6746 34.3193 21.1002 33.0349 18.7955 32.417C18.3795 32.3062 17.4884 32.083 16.582 32.083C12.4676 32.083 9.13208 35.4185 9.13208 39.5314C9.13208 43.6458 12.4676 46.9813 16.582 46.9813C17.5354 46.9813 18.4448 46.7444 18.8016 46.6442C21.167 45.9777 22.7004 44.5263 23.4458 43.7019C25.7915 43.2556 28.3254 42.8867 31.0354 42.6498C37.8492 42.0516 43.9099 42.4433 48.917 43.1766C49.3983 43.9206 50.792 45.8533 53.3426 46.6473C53.6311 46.7353 54.5374 46.9813 55.5562 46.9813C59.6705 46.9813 63.0061 43.6458 63.0061 39.5314C63.0061 35.4185 59.6705 32.083 55.5562 32.083ZM55.9053 42.6498C54.2459 42.6498 52.8993 41.3047 52.8993 39.6437C52.8993 37.9843 54.2459 36.6392 55.9053 36.6392C57.5648 36.6392 58.9114 37.9843 58.9114 39.6437C58.9114 41.3047 57.5648 42.6498 55.9053 42.6498Z" fill="#333333"/>
<path d="M34.5819 53.0043C33.6452 52.9648 32.7418 53.1576 32.3881 53.2426C30.0349 53.7998 28.4696 55.1617 27.7029 55.9405C25.38 56.2821 22.8749 56.5387 20.2044 56.6602C14.4124 56.9228 9.20339 56.4871 4.74438 55.769C6.12141 58.233 7.76868 60.5255 9.64519 62.6055C12.7667 62.4764 16.1948 62.563 19.8628 63.0048C22.547 63.3297 25.0247 63.8034 27.2747 64.353C28.0718 65.191 29.5657 66.5164 31.8051 67.2194C32.209 67.3469 33.0743 67.602 33.9655 67.6399C38.007 67.81 41.4215 64.6718 41.5931 60.6303C41.7631 56.5888 38.6234 53.1743 34.5819 53.0043Z" fill="#333333" stroke="#333333" stroke-miterlimit="10"/>
</svg>
