<svg width="488" height="500" viewBox="0 0 488 500" fill="none" xmlns="http://www.w3.org/2000/svg">
<g clip-path="url(#clip0_84_405)">
<path opacity="0.5" d="M395.22 371.266L335.533 336.771C331.867 334.647 332.325 330.943 336.551 328.496L394.252 295.191C398.495 292.744 404.893 292.472 408.559 294.596L468.246 329.091C471.912 331.215 471.453 334.919 467.211 337.366L409.509 370.671C405.284 373.118 398.886 373.39 395.22 371.266Z" fill="#868894"/>
<path d="M487.983 302.821V276.992L430.129 276.907L410.137 265.353C405.555 262.702 397.545 263.042 392.25 266.1L373.582 276.873H315.694V303.433C315.679 304.447 315.963 305.444 316.509 306.299C317.055 307.153 317.84 307.829 318.766 308.241L393.438 351.453C398.037 354.104 406.047 353.764 411.342 350.705L483.52 308.989C486.676 307.239 488.153 304.945 487.983 302.821Z" fill="#6D0505"/>
<path d="M401.855 263.636C398.501 263.671 395.207 264.535 392.267 266.151L373.599 276.924H315.711V303.483C315.696 304.498 315.98 305.495 316.526 306.349C317.072 307.204 317.857 307.88 318.783 308.292L393.455 351.504C396.026 352.803 398.897 353.39 401.771 353.203L401.855 263.636Z" fill="#6D0505"/>
<path d="M322.279 276.907H315.728V303.467C315.713 304.481 315.997 305.478 316.543 306.333C317.089 307.187 317.874 307.863 318.8 308.275L322.279 310.28V276.907Z" fill="url(#paint0_linear_84_405)"/>
<path d="M394.694 352.031C399.326 353.708 404.409 353.648 409 351.861V321.716H394.694V352.031Z" fill="url(#paint1_linear_84_405)"/>
<path d="M393.54 324.996L318.867 281.801C314.285 279.15 314.862 274.511 320.157 271.453L392.335 229.72C397.63 226.661 405.64 226.321 410.222 228.989L484.894 272.2C489.477 274.851 488.899 279.473 483.605 282.532L411.461 324.265C406.149 327.324 398.139 327.664 393.54 324.996Z" fill="url(#paint2_linear_84_405)"/>
<path d="M394.897 317.23L332.257 281.02C328.405 278.794 328.863 274.919 333.327 272.353L393.811 237.383C398.258 234.817 404.961 234.545 408.814 236.754L471.453 272.965C475.289 275.191 474.848 279.082 470.367 281.648L409.883 316.602C405.453 319.167 398.733 319.388 394.897 317.23Z" fill="url(#paint3_linear_84_405)"/>
<path d="M460.49 309.635C460.424 310.681 460.117 311.698 459.593 312.606C459.069 313.514 458.342 314.288 457.469 314.868C455.772 315.837 454.448 315.055 454.448 313.169C454.515 312.122 454.822 311.105 455.346 310.197C455.87 309.29 456.597 308.515 457.469 307.935C459.132 306.916 460.49 307.698 460.49 309.635Z" fill="url(#paint4_linear_84_405)"/>
<path d="M470.197 304.095C470.142 305.144 469.839 306.165 469.314 307.075C468.789 307.984 468.057 308.757 467.177 309.329C465.48 310.297 464.156 309.516 464.156 307.63C464.211 306.581 464.514 305.56 465.039 304.65C465.564 303.74 466.297 302.968 467.177 302.396C468.84 301.308 470.197 302.09 470.197 304.095Z" fill="url(#paint5_linear_84_405)"/>
<path d="M479.905 298.403C479.849 299.452 479.547 300.473 479.022 301.382C478.497 302.292 477.764 303.064 476.884 303.636C475.187 304.605 473.88 303.823 473.88 301.937C473.937 300.89 474.238 299.871 474.76 298.962C475.281 298.053 476.009 297.279 476.884 296.703C478.564 295.684 479.905 296.466 479.905 298.403Z" fill="url(#paint6_linear_84_405)"/>
<path d="M487.983 261.614V235.786H430.129L410.154 224.231C405.572 221.563 397.562 221.903 392.267 224.962L373.599 235.752H315.711V262.311C315.689 263.325 315.969 264.323 316.516 265.176C317.063 266.03 317.853 266.701 318.783 267.103L393.455 310.314C398.054 312.965 406.064 312.642 411.359 309.567L483.537 267.85C486.676 265.964 488.153 263.687 487.983 261.614Z" fill="#6D0505"/>
<path d="M401.855 222.362C398.503 222.413 395.213 223.276 392.267 224.877L373.599 235.667H315.711V262.226C315.689 263.24 315.969 264.238 316.516 265.091C317.063 265.945 317.853 266.616 318.783 267.018L393.455 310.229C396.028 311.521 398.897 312.107 401.771 311.929L401.855 222.362Z" fill="#6D0505"/>
<path d="M322.279 235.633H315.728V262.192C315.706 263.206 315.986 264.204 316.533 265.057C317.08 265.911 317.869 266.582 318.799 266.984L322.279 269.006V235.633Z" fill="url(#paint7_linear_84_405)"/>
<path d="M394.694 310.756C399.324 312.439 404.407 312.385 409 310.603V280.442H394.694V310.756Z" fill="url(#paint8_linear_84_405)"/>
<path d="M393.54 283.704L318.867 240.493C314.285 237.842 314.862 233.203 320.157 230.144L392.267 188.547C397.562 185.489 405.572 185.149 410.154 187.8L484.826 231.011C489.409 233.662 488.832 238.301 483.537 241.359L411.461 282.991C406.149 286.049 398.139 286.389 393.54 283.704Z" fill="url(#paint9_linear_84_405)"/>
<path d="M394.897 275.956L332.257 239.745C328.405 237.519 328.863 233.645 333.327 231.079L393.811 196.109C398.258 193.543 404.961 193.271 408.814 195.497L471.453 231.708C475.289 233.934 474.848 237.808 470.367 240.374L409.883 275.344C405.453 277.91 398.733 278.182 394.897 275.956Z" fill="url(#paint10_linear_84_405)"/>
<path d="M460.49 268.411C460.434 269.46 460.132 270.481 459.607 271.391C459.082 272.3 458.349 273.073 457.469 273.645C455.772 274.613 454.448 273.832 454.448 271.946C454.504 270.897 454.807 269.876 455.332 268.966C455.857 268.056 456.589 267.284 457.469 266.712C459.132 265.658 460.49 266.44 460.49 268.411Z" fill="url(#paint11_linear_84_405)"/>
<path d="M470.197 262.753C470.131 263.799 469.824 264.816 469.3 265.724C468.776 266.632 468.049 267.407 467.177 267.986C465.48 268.955 464.156 268.173 464.156 266.287C464.222 265.241 464.529 264.224 465.053 263.316C465.577 262.408 466.304 261.633 467.177 261.054C468.84 260.034 470.197 260.816 470.197 262.753Z" fill="url(#paint12_linear_84_405)"/>
<path d="M479.905 257.128C479.853 258.178 479.552 259.201 479.027 260.111C478.502 261.021 477.767 261.793 476.884 262.362C475.187 263.331 473.88 262.549 473.88 260.663C473.933 259.615 474.232 258.594 474.754 257.685C475.276 256.775 476.006 256.002 476.884 255.429C478.564 254.427 479.905 255.208 479.905 257.128Z" fill="url(#paint13_linear_84_405)"/>
<path d="M487.983 220.289V194.461H430.146L410.154 182.906C405.572 180.255 397.562 180.578 392.267 183.653L373.599 194.427H315.711V220.986C315.696 222 315.98 222.997 316.526 223.852C317.072 224.706 317.857 225.382 318.783 225.794L393.455 269.006C398.054 271.657 406.064 271.317 411.359 268.258L483.537 226.542C486.676 224.707 488.153 222.413 487.983 220.289Z" fill="#6D0505"/>
<path d="M401.855 181.088C398.501 181.137 395.209 182.006 392.267 183.619L373.599 194.393H315.711V220.952C315.696 221.966 315.98 222.963 316.526 223.818C317.072 224.672 317.857 225.348 318.783 225.76L393.455 268.972C396.026 270.271 398.897 270.858 401.771 270.671L401.855 181.088Z" fill="#6D0505"/>
<path d="M322.279 194.359H315.728V220.918C315.713 221.932 315.997 222.929 316.543 223.784C317.089 224.638 317.874 225.314 318.8 225.726L322.279 227.732V194.359Z" fill="url(#paint14_linear_84_405)"/>
<path d="M394.694 269.499C399.326 271.176 404.409 271.116 409 269.329V239.184H394.694V269.499Z" fill="url(#paint15_linear_84_405)"/>
<path d="M393.54 242.464L318.867 199.252C314.285 196.602 314.862 191.98 320.157 188.921L392.335 147.188C397.63 144.129 405.64 143.789 410.222 146.457L484.894 189.652C489.477 192.302 488.899 196.941 483.605 200L411.461 241.733C406.149 244.792 398.139 245.115 393.54 242.464Z" fill="url(#paint16_linear_84_405)"/>
<path d="M460.49 227.103C460.424 228.149 460.117 229.166 459.593 230.074C459.069 230.982 458.342 231.757 457.469 232.336C455.772 233.288 454.448 232.523 454.448 230.637C454.515 229.591 454.822 228.574 455.346 227.666C455.87 226.758 456.597 225.983 457.469 225.404C459.132 224.384 460.49 225.166 460.49 227.103Z" fill="url(#paint17_linear_84_405)"/>
<path d="M470.197 221.478C470.142 222.527 469.839 223.548 469.314 224.458C468.789 225.368 468.057 226.14 467.177 226.712C465.48 227.681 464.156 226.899 464.156 225.013C464.211 223.964 464.514 222.943 465.039 222.033C465.564 221.123 466.297 220.351 467.177 219.779C468.84 218.777 470.197 219.558 470.197 221.478Z" fill="url(#paint18_linear_84_405)"/>
<path d="M479.905 215.871C479.849 216.92 479.547 217.941 479.022 218.851C478.497 219.76 477.764 220.532 476.884 221.104C475.187 222.073 473.88 221.291 473.88 219.405C473.937 218.358 474.238 217.339 474.76 216.43C475.281 215.521 476.009 214.748 476.884 214.172C478.564 213.152 479.905 213.934 479.905 215.871Z" fill="url(#paint19_linear_84_405)"/>
<path d="M397.969 215.735L362.992 195.514C360.837 194.274 361.108 192.116 363.586 190.671L397.358 171.147C398.631 170.438 400.052 170.036 401.508 169.974C402.963 169.912 404.413 170.192 405.742 170.79L440.719 191.011C442.857 192.251 442.603 194.41 440.108 195.854L406.37 215.327C405.101 216.054 403.678 216.469 402.218 216.54C400.758 216.611 399.302 216.335 397.969 215.735Z" fill="url(#paint20_linear_84_405)"/>
<path d="M401.278 198.743L396.442 195.956C396.153 195.786 396.187 195.48 396.527 195.276L401.194 192.574C401.376 192.487 401.576 192.441 401.779 192.441C401.982 192.441 402.182 192.487 402.365 192.574L407.201 195.361C407.49 195.531 407.456 195.837 407.116 196.041L402.466 198.743C402.284 198.841 402.08 198.892 401.872 198.892C401.665 198.892 401.461 198.841 401.278 198.743Z" fill="url(#paint21_linear_84_405)"/>
<path d="M362.992 195.463H363.094C363.248 195.336 363.413 195.223 363.586 195.123L397.358 175.599C398.631 174.89 400.052 174.488 401.508 174.426C402.963 174.364 404.413 174.644 405.742 175.242L440.617 195.412C442.603 194.002 442.705 192.014 440.719 190.909L405.742 170.688C404.413 170.09 402.963 169.81 401.508 169.872C400.052 169.934 398.631 170.336 397.358 171.045L363.586 190.569C361.108 192.048 360.837 194.223 362.992 195.463Z" fill="#6D0505"/>
<path opacity="0.5" d="M292.766 434.936L233.062 400.425C229.396 398.318 229.872 394.613 234.097 392.166L291.799 358.844C296.024 356.398 302.423 356.143 306.088 358.25L365.639 392.744C369.305 394.868 368.847 398.556 364.621 401.002L306.92 434.324C302.847 436.771 296.415 437.026 292.766 434.936Z" fill="#868894"/>
<path d="M385.512 366.457V340.629H327.692L307.7 329.074C303.101 326.423 295.091 326.746 289.796 329.805L271.128 340.595H213.257V367.154C213.242 368.155 213.522 369.139 214.063 369.982C214.603 370.826 215.379 371.491 216.295 371.895L290.967 415.106C295.549 417.757 303.56 417.434 308.871 414.359L381.032 372.642C384.206 370.875 385.682 368.666 385.512 366.457Z" fill="#6D0505"/>
<path d="M299.453 327.273C296.101 327.326 292.811 328.189 289.864 329.788L271.196 340.578H213.325V367.137C213.301 368.134 213.569 369.116 214.097 369.962C214.625 370.807 215.389 371.479 216.295 371.895L290.967 415.106C293.527 416.426 296.391 417.042 299.266 416.89L299.453 327.273Z" fill="url(#paint22_linear_84_405)"/>
<path d="M219.825 340.544H213.274V367.103C213.248 368.111 213.521 369.105 214.058 369.958C214.596 370.811 215.374 371.485 216.295 371.895L219.774 373.917L219.825 340.544Z" fill="url(#paint23_linear_84_405)"/>
<path d="M292.24 415.667C296.87 417.35 301.953 417.296 306.546 415.514V385.353H292.24V415.667Z" fill="white"/>
<path d="M291.086 388.649L216.414 345.438C211.815 342.787 212.392 338.148 217.687 335.089L289.864 293.373C295.159 290.314 303.169 289.975 307.768 292.625L382.441 335.837C387.023 338.488 386.463 343.127 381.151 346.185L308.99 387.901C303.678 390.96 295.668 391.3 291.086 388.649Z" fill="url(#paint24_linear_84_405)"/>
<path d="M292.427 380.867L229.872 344.656C226.036 342.43 226.477 338.556 230.958 335.99L291.442 301.02C295.872 298.454 302.592 298.182 306.428 300.408L369.034 336.619C372.886 338.845 372.428 342.719 367.964 345.285L307.429 380.255C302.983 382.821 296.279 383.093 292.427 380.867Z" fill="url(#paint25_linear_84_405)"/>
<path d="M358.019 373.271C357.968 374.321 357.667 375.344 357.142 376.254C356.616 377.164 355.882 377.936 354.999 378.505C353.302 379.473 351.978 378.692 351.978 376.806C352.033 375.756 352.336 374.735 352.861 373.826C353.386 372.916 354.119 372.144 354.999 371.572C356.679 370.569 358.019 371.351 358.019 373.271Z" fill="url(#paint26_linear_84_405)"/>
<path d="M367.744 367.664C367.678 368.71 367.37 369.727 366.846 370.635C366.322 371.543 365.596 372.317 364.723 372.897C363.026 373.866 361.702 373.084 361.702 371.198C361.758 370.149 362.06 369.128 362.585 368.218C363.11 367.309 363.843 366.536 364.723 365.964C366.386 364.945 367.744 365.726 367.744 367.664Z" fill="url(#paint27_linear_84_405)"/>
<path d="M377.519 362.039C377.463 363.088 377.161 364.109 376.636 365.019C376.111 365.928 375.378 366.701 374.498 367.273C372.801 368.241 371.477 367.46 371.477 365.573C371.533 364.524 371.836 363.503 372.361 362.594C372.886 361.684 373.618 360.912 374.498 360.34C376.093 359.337 377.519 360.17 377.519 362.039Z" fill="url(#paint28_linear_84_405)"/>
<path d="M385.512 324.588V298.76H327.692L307.701 287.103C303.101 284.452 295.091 284.775 289.796 287.851L271.128 298.624H213.257V325.183C213.243 326.197 213.526 327.194 214.072 328.049C214.618 328.904 215.403 329.579 216.329 329.992L291.001 373.203C295.583 375.854 303.594 375.514 308.905 372.455L381.066 330.739C384.206 329.006 385.682 326.712 385.512 324.588Z" fill="#6D0505"/>
<path d="M299.453 285.404C296.098 285.455 292.807 286.324 289.864 287.935L271.196 298.709H213.325V325.268C213.311 326.282 213.594 327.279 214.14 328.134C214.686 328.988 215.471 329.664 216.397 330.076L291.069 373.288C293.634 374.587 296.5 375.174 299.368 374.987L299.453 285.404Z" fill="url(#paint29_linear_84_405)"/>
<path d="M219.825 298.658H213.274V325.217C213.26 326.231 213.543 327.228 214.089 328.083C214.635 328.938 215.42 329.613 216.346 330.025L219.825 332.031V298.658Z" fill="url(#paint30_linear_84_405)"/>
<path d="M292.24 373.764C296.872 375.441 301.955 375.381 306.546 373.594V343.483H292.24V373.764Z" fill="white"/>
<path d="M291.086 346.763L216.414 303.551C211.815 300.901 212.392 296.279 217.687 293.22L289.796 251.419C295.091 248.36 303.101 248.02 307.7 250.671L382.373 293.883C386.955 296.534 386.395 301.173 381.083 304.231L308.922 345.964C303.678 349.091 295.668 349.414 291.086 346.763Z" fill="url(#paint31_linear_84_405)"/>
<path d="M292.427 338.998L229.872 302.787C226.036 300.561 226.477 296.67 230.958 294.104L291.442 259.15C295.872 256.585 302.592 256.296 306.428 258.522L369.034 294.732C372.886 296.958 372.428 300.833 367.964 303.399L307.429 338.369C302.983 340.935 296.279 341.207 292.427 338.998Z" fill="url(#paint32_linear_84_405)"/>
<path d="M358.019 331.402C357.964 332.451 357.661 333.472 357.136 334.382C356.611 335.291 355.879 336.063 354.999 336.635C353.302 337.587 351.978 336.805 351.978 334.936C352.044 333.89 352.351 332.873 352.875 331.965C353.399 331.057 354.126 330.283 354.999 329.703C356.679 328.683 358.019 329.465 358.019 331.402Z" fill="url(#paint33_linear_84_405)"/>
<path d="M367.744 325.777C367.688 326.827 367.385 327.848 366.86 328.757C366.335 329.667 365.603 330.439 364.723 331.011C363.026 331.98 361.702 331.198 361.702 329.312C361.755 328.26 362.057 327.235 362.582 326.323C363.107 325.41 363.841 324.635 364.723 324.061C366.386 323.076 367.744 323.857 367.744 325.777Z" fill="url(#paint34_linear_84_405)"/>
<path d="M377.519 320.17C377.453 321.216 377.146 322.234 376.622 323.141C376.098 324.049 375.371 324.824 374.498 325.404C372.801 326.372 371.477 325.59 371.477 323.704C371.544 322.658 371.851 321.641 372.375 320.733C372.899 319.825 373.626 319.051 374.498 318.471C376.093 317.451 377.519 318.233 377.519 320.17Z" fill="url(#paint35_linear_84_405)"/>
<path d="M385.512 282.702V256.873H327.692L307.7 245.319C303.101 242.668 295.091 243.008 289.796 246.066L271.128 256.856H213.257V283.415C213.235 284.43 213.515 285.427 214.062 286.281C214.61 287.134 215.399 287.805 216.329 288.207L291.001 331.419C295.583 334.07 303.594 333.73 308.905 330.671L381.066 288.955C384.206 287.103 385.682 284.826 385.512 282.702Z" fill="#6D0505"/>
<path d="M299.453 243.517C296.1 243.563 292.808 244.426 289.864 246.032L271.196 256.822H213.325V283.382C213.303 284.396 213.583 285.393 214.13 286.247C214.678 287.1 215.467 287.771 216.397 288.173L291.069 331.385C293.629 332.705 296.493 333.321 299.368 333.169L299.453 243.517Z" fill="url(#paint36_linear_84_405)"/>
<path d="M219.825 256.788H213.274V283.347C213.252 284.362 213.532 285.359 214.079 286.213C214.627 287.066 215.416 287.737 216.346 288.139L219.825 290.144V256.788Z" fill="url(#paint37_linear_84_405)"/>
<path d="M292.24 331.912C296.87 333.595 301.953 333.54 306.546 331.759V301.597H292.24V331.912Z" fill="white"/>
<path d="M291.086 304.894L216.295 261.614C211.696 258.964 212.273 254.325 217.568 251.266L289.745 209.55C295.04 206.474 303.05 206.151 307.65 208.802L382.322 252.014C386.904 254.664 386.344 259.286 381.032 262.362L308.99 304.095C303.678 307.205 295.668 307.494 291.086 304.894Z" fill="url(#paint38_linear_84_405)"/>
<path d="M381.151 257.349L308.99 298.997C303.678 302.056 295.668 302.396 291.086 299.745L216.414 256.534C215.505 256.038 214.721 255.34 214.123 254.494C212.544 257.043 213.257 259.796 216.414 261.614L291.086 304.826C295.668 307.477 303.678 307.137 308.99 304.078L381.151 262.362C385.275 259.983 386.531 256.652 384.732 254.036C383.832 255.421 382.601 256.56 381.151 257.349Z" fill="url(#paint39_linear_84_405)"/>
<path d="M358.019 289.516C357.964 290.565 357.661 291.586 357.136 292.495C356.611 293.405 355.879 294.177 354.999 294.749C353.302 295.718 351.978 294.936 351.978 293.05C352.044 292.004 352.351 290.986 352.875 290.079C353.399 289.171 354.126 288.396 354.999 287.816C356.679 286.814 358.019 287.596 358.019 289.516Z" fill="url(#paint40_linear_84_405)"/>
<path d="M367.744 283.908C367.678 284.955 367.37 285.972 366.846 286.88C366.322 287.788 365.596 288.562 364.723 289.142C363.026 290.093 361.702 289.312 361.702 287.443C361.758 286.394 362.06 285.373 362.585 284.463C363.11 283.553 363.843 282.781 364.723 282.209C366.386 281.189 367.744 282.005 367.744 283.908Z" fill="url(#paint41_linear_84_405)"/>
<path d="M377.519 278.284C377.463 279.333 377.161 280.354 376.636 281.264C376.111 282.173 375.378 282.945 374.498 283.517C372.801 284.486 371.477 283.704 371.477 281.818C371.541 280.769 371.847 279.748 372.371 278.837C372.895 277.926 373.623 277.149 374.498 276.568C376.093 275.582 377.519 276.364 377.519 278.284Z" fill="url(#paint42_linear_84_405)"/>
<path d="M295.498 279.252L260.521 259.031C258.383 257.791 258.654 255.633 261.132 254.189L294.904 234.664C296.174 233.955 297.593 233.554 299.045 233.492C300.498 233.43 301.945 233.709 303.271 234.308L338.248 254.528C340.404 255.769 340.132 257.927 337.654 259.371L303.882 278.895C302.61 279.609 301.189 280.012 299.733 280.074C298.276 280.136 296.826 279.855 295.498 279.252Z" fill="url(#paint43_linear_84_405)"/>
<path d="M298.859 262.311L294.022 259.524C293.716 259.354 293.75 259.048 294.022 258.845L298.706 256.143C298.884 256.05 299.082 256.002 299.283 256.002C299.484 256.002 299.682 256.05 299.86 256.143L304.697 258.93C305.002 259.099 304.968 259.405 304.612 259.609L299.945 262.311C299.775 262.392 299.59 262.435 299.402 262.435C299.214 262.435 299.028 262.392 298.859 262.311Z" fill="url(#paint44_linear_84_405)"/>
<path d="M260.521 259.031H260.623C260.786 258.908 260.956 258.795 261.132 258.692L294.904 239.167C296.174 238.458 297.593 238.057 299.045 237.995C300.498 237.933 301.945 238.212 303.271 238.811L338.163 258.98C340.132 257.57 340.234 255.582 338.248 254.478L303.271 234.257C301.945 233.658 300.498 233.379 299.045 233.441C297.593 233.503 296.174 233.904 294.904 234.613L261.132 254.138C258.722 255.616 258.383 257.791 260.521 259.031Z" fill="url(#paint45_linear_84_405)"/>
<path d="M268.752 352.218L238.493 334.681C237.461 333.947 236.617 332.979 236.027 331.858C235.438 330.736 235.12 329.492 235.099 328.224C235.099 325.726 236.609 324.588 238.493 325.658L268.752 343.178C269.785 343.911 270.63 344.878 271.22 346C271.809 347.122 272.127 348.367 272.146 349.635C272.129 352.167 270.602 353.373 268.752 352.218Z" fill="url(#paint46_linear_84_405)"/>
<path d="M271.451 350.552L241.191 333.067C240.16 332.329 239.315 331.359 238.725 330.234C238.136 329.11 237.818 327.863 237.797 326.593C237.796 326.215 237.842 325.839 237.933 325.472C236.321 324.894 235.099 326.032 235.099 328.275C235.12 329.543 235.438 330.787 236.027 331.909C236.617 333.031 237.461 333.998 238.493 334.733L268.752 352.218C269.039 352.438 269.38 352.578 269.74 352.621C270.099 352.665 270.463 352.61 270.795 352.465C271.126 352.319 271.412 352.086 271.623 351.792C271.834 351.497 271.962 351.151 271.994 350.79C271.807 350.725 271.625 350.646 271.451 350.552Z" fill="url(#paint47_linear_84_405)"/>
<path opacity="0.5" d="M190.295 498.556L130.609 464.061C126.943 461.937 127.401 458.233 131.627 455.786L189.328 422.481C193.554 420.034 199.952 419.762 203.618 421.886L263.305 456.381C266.97 458.505 266.512 462.209 262.286 464.656L204.585 497.961C200.359 500.408 193.961 500.68 190.295 498.556Z" fill="#868894"/>
<path d="M283.059 430.111V404.35H225.222L205.23 392.795C200.648 390.145 192.637 390.484 187.342 393.543L168.674 404.316H110.786V430.875C110.772 431.89 111.055 432.886 111.602 433.741C112.148 434.596 112.932 435.272 113.858 435.684L188.615 478.896C193.197 481.546 201.208 481.207 206.503 478.148L278.68 436.432C281.752 434.529 283.228 432.235 283.059 430.111Z" fill="#6D0505"/>
<path d="M196.931 390.909C193.577 390.958 190.285 391.827 187.342 393.441L168.674 404.214H110.786V430.773C110.772 431.788 111.055 432.784 111.602 433.639C112.148 434.494 112.932 435.17 113.858 435.582L188.615 478.794C191.179 480.094 194.046 480.681 196.914 480.493L196.931 390.909Z" fill="url(#paint48_linear_84_405)"/>
<path d="M117.354 404.18H110.803V430.739C110.789 431.754 111.072 432.75 111.618 433.605C112.165 434.46 112.949 435.136 113.875 435.548L117.354 437.553V404.18Z" fill="url(#paint49_linear_84_405)"/>
<path d="M189.769 479.32C194.402 480.998 199.484 480.938 204.076 479.15V449.006H189.769V479.32Z" fill="white"/>
<path d="M188.632 452.286L113.875 409.074C109.293 406.423 109.87 401.801 115.165 398.743L187.342 357.01C192.637 353.951 200.648 353.611 205.23 356.279L279.902 399.473C284.484 402.124 283.907 406.763 278.612 409.822L206.435 451.555C201.225 454.614 193.214 454.936 188.632 452.286Z" fill="url(#paint50_linear_84_405)"/>
<path d="M189.973 444.52L127.333 408.309C123.481 406.083 123.939 402.192 128.402 399.626L188.887 364.673C193.333 362.107 200.037 361.818 203.889 364.044L266.529 400.255C270.364 402.481 269.923 406.355 265.443 408.921L204.975 443.891C200.529 446.457 193.808 446.729 189.973 444.52Z" fill="url(#paint51_linear_84_405)"/>
<path d="M255.566 436.925C255.5 437.971 255.192 438.988 254.668 439.896C254.144 440.804 253.417 441.578 252.545 442.158C250.848 443.127 249.524 442.345 249.524 440.459C249.59 439.412 249.897 438.395 250.421 437.487C250.945 436.579 251.672 435.805 252.545 435.225C254.208 434.206 255.566 434.936 255.566 436.925Z" fill="url(#paint52_linear_84_405)"/>
<path d="M265.273 431.3C265.217 432.349 264.915 433.37 264.39 434.28C263.865 435.189 263.132 435.962 262.252 436.534C260.555 437.502 259.231 436.72 259.231 434.834C259.287 433.785 259.59 432.764 260.115 431.855C260.64 430.945 261.372 430.173 262.252 429.601C263.915 428.598 265.273 429.38 265.273 431.3Z" fill="url(#paint53_linear_84_405)"/>
<path d="M274.98 425.692C274.924 426.739 274.623 427.758 274.101 428.667C273.579 429.577 272.852 430.35 271.977 430.926C270.28 431.895 268.956 431.113 268.956 429.227C269.011 428.178 269.314 427.157 269.839 426.247C270.364 425.338 271.097 424.565 271.977 423.993C273.64 423.042 274.98 423.755 274.98 425.692Z" fill="url(#paint54_linear_84_405)"/>
<path d="M283.059 388.224V362.396H225.222L205.23 350.841C200.648 348.19 192.637 348.53 187.342 351.589L168.674 362.379H110.786V388.938C110.764 389.952 111.045 390.95 111.592 391.803C112.139 392.657 112.928 393.328 113.858 393.73L188.615 436.941C193.197 439.592 201.208 439.269 206.503 436.194L278.68 394.477C281.752 392.642 283.228 390.348 283.059 388.224Z" fill="#6D0505"/>
<path d="M196.931 349.04C193.578 349.083 190.286 349.947 187.342 351.555L168.674 362.345H110.786V388.904C110.764 389.918 111.045 390.916 111.592 391.769C112.139 392.623 112.928 393.294 113.858 393.696L188.615 436.908C191.174 438.23 194.039 438.846 196.914 438.692L196.931 349.04Z" fill="url(#paint55_linear_84_405)"/>
<path d="M117.354 362.311H110.803V388.87C110.781 389.884 111.062 390.882 111.609 391.735C112.156 392.589 112.945 393.26 113.875 393.662L117.354 395.667V362.311Z" fill="url(#paint56_linear_84_405)"/>
<path d="M189.769 437.434C194.4 439.117 199.482 439.063 204.076 437.281V407.12H189.769V437.434Z" fill="white"/>
<path d="M188.632 410.416L113.875 367.205C109.293 364.554 109.87 359.915 115.165 356.856L187.342 315.14C192.637 312.064 200.648 311.742 205.23 314.392L279.902 357.604C284.484 360.255 283.907 364.877 278.612 367.952L206.435 409.669C201.225 412.727 193.214 413.067 188.632 410.416Z" fill="url(#paint57_linear_84_405)"/>
<path d="M189.973 402.651L127.333 366.44C123.481 364.214 123.939 360.34 128.402 357.774L188.887 322.787C193.333 320.221 200.037 319.949 203.889 322.175L266.529 358.471C270.364 360.68 269.923 364.571 265.443 367.137L204.975 402.09C200.529 404.571 193.808 404.86 189.973 402.651Z" fill="url(#paint58_linear_84_405)"/>
<path d="M255.566 395.038C255.509 396.087 255.205 397.107 254.681 398.017C254.156 398.926 253.424 399.699 252.545 400.272C250.848 401.24 249.524 400.459 249.524 398.573C249.59 397.526 249.897 396.509 250.421 395.601C250.945 394.693 251.672 393.919 252.545 393.339C254.208 392.336 255.566 393.118 255.566 395.038Z" fill="url(#paint59_linear_84_405)"/>
<path d="M265.273 389.431C265.207 390.477 264.9 391.494 264.376 392.402C263.852 393.31 263.125 394.084 262.252 394.664C260.555 395.616 259.231 394.834 259.231 392.965C259.298 391.918 259.605 390.901 260.129 389.994C260.653 389.086 261.38 388.311 262.252 387.731C263.915 386.712 265.273 387.494 265.273 389.431Z" fill="url(#paint60_linear_84_405)"/>
<path d="M274.98 383.806C274.928 384.854 274.629 385.875 274.106 386.784C273.584 387.694 272.854 388.467 271.977 389.04C270.28 390.009 268.956 389.227 268.956 387.341C269.009 386.289 269.31 385.264 269.835 384.352C270.361 383.439 271.094 382.664 271.977 382.09C273.64 381.105 274.98 381.886 274.98 383.806Z" fill="url(#paint61_linear_84_405)"/>
<path d="M283.059 346.338V320.527H225.222L205.23 308.972C200.648 306.321 192.637 306.644 187.342 309.72L168.674 320.493H110.786V347.052C110.772 348.067 111.055 349.063 111.602 349.918C112.148 350.773 112.932 351.448 113.858 351.861L188.615 395.055C193.197 397.706 201.208 397.383 206.503 394.325L278.68 352.591C281.752 350.756 283.228 348.479 283.059 346.338Z" fill="#6D0505"/>
<path d="M196.931 307.154C193.577 307.203 190.285 308.072 187.342 309.686L168.674 320.459H110.786V347.018C110.772 348.032 111.055 349.029 111.602 349.884C112.148 350.739 112.932 351.414 113.858 351.827L188.615 395.021C191.174 396.344 194.039 396.959 196.914 396.805L196.931 307.154Z" fill="url(#paint62_linear_84_405)"/>
<path d="M117.354 320.425H110.803V346.984C110.789 347.998 111.072 348.995 111.618 349.85C112.165 350.705 112.949 351.38 113.875 351.793L117.354 353.798V320.425Z" fill="url(#paint63_linear_84_405)"/>
<path d="M189.769 395.565C194.402 397.243 199.484 397.182 204.076 395.395V365.268H189.769V395.565Z" fill="white"/>
<path d="M188.632 368.53L113.875 325.319C109.293 322.668 109.87 318.046 115.165 314.97L187.342 273.254C192.637 270.195 200.648 269.856 205.23 272.506L279.902 315.718C284.484 318.369 283.907 323.008 278.612 326.066L206.435 367.782C201.225 370.858 193.214 371.181 188.632 368.53Z" fill="url(#paint64_linear_84_405)"/>
<path d="M278.697 320.986L206.52 362.702C201.225 365.777 193.214 366.1 188.632 363.45L113.875 320.238C112.974 319.738 112.192 319.048 111.584 318.216C110.006 320.748 110.736 323.501 113.875 325.319L188.632 368.53C193.214 371.181 201.225 370.858 206.52 367.783L278.697 326.066C282.804 323.687 284.06 320.357 282.278 317.757C281.364 319.108 280.135 320.216 278.697 320.986Z" fill="url(#paint65_linear_84_405)"/>
<path d="M255.566 353.152C255.502 354.202 255.196 355.222 254.672 356.133C254.148 357.044 253.42 357.821 252.545 358.403C250.848 359.354 249.524 358.573 249.524 356.704C249.58 355.654 249.882 354.633 250.407 353.724C250.932 352.814 251.665 352.042 252.545 351.47C254.208 350.45 255.566 351.232 255.566 353.152Z" fill="url(#paint66_linear_84_405)"/>
<path d="M265.273 347.545C265.207 348.591 264.9 349.608 264.376 350.516C263.852 351.424 263.125 352.198 262.252 352.778C260.555 353.747 259.231 352.965 259.231 351.079C259.298 350.032 259.605 349.015 260.129 348.108C260.653 347.2 261.38 346.425 262.252 345.845C263.915 344.877 265.273 345.625 265.273 347.545Z" fill="url(#paint67_linear_84_405)"/>
<path d="M274.98 341.937C274.924 342.984 274.623 344.003 274.101 344.912C273.579 345.821 272.852 346.595 271.977 347.171C270.28 348.122 268.956 347.341 268.956 345.471C269.011 344.422 269.314 343.401 269.839 342.492C270.364 341.582 271.097 340.81 271.977 340.238C273.64 339.218 274.98 340 274.98 341.937Z" fill="url(#paint68_linear_84_405)"/>
<path d="M193.045 342.889L158.068 322.668C155.912 321.427 156.184 319.269 158.662 317.825L192.434 298.301C193.708 297.594 195.13 297.196 196.585 297.137C198.041 297.078 199.49 297.36 200.817 297.961L235.795 318.182C237.95 319.422 237.678 321.58 235.201 323.025L201.411 342.549C200.14 343.255 198.721 343.654 197.268 343.713C195.815 343.772 194.369 343.49 193.045 342.889Z" fill="url(#paint69_linear_84_405)"/>
<path d="M196.388 325.964L191.551 323.161C191.263 322.991 191.297 322.702 191.636 322.498L196.303 319.796C196.485 319.705 196.685 319.657 196.889 319.657C197.092 319.657 197.292 319.705 197.474 319.796L202.311 322.6C202.599 322.77 202.565 323.059 202.226 323.263L197.627 325.913C197.441 326.024 197.23 326.086 197.014 326.095C196.798 326.104 196.583 326.059 196.388 325.964Z" fill="url(#paint70_linear_84_405)"/>
<path d="M158.068 322.668H158.169L158.662 322.311L192.434 302.787C193.708 302.08 195.13 301.681 196.585 301.622C198.041 301.563 199.49 301.846 200.817 302.447L235.693 322.6C237.678 321.189 237.78 319.201 235.795 318.114L200.817 297.893C199.49 297.292 198.041 297.009 196.585 297.068C195.13 297.127 193.708 297.526 192.434 298.233L158.594 317.825C156.184 319.269 155.912 321.427 158.068 322.668Z" fill="url(#paint71_linear_84_405)"/>
<path d="M104.168 222.549L63.2338 198.98L102.946 177.196L109.327 187.63L104.168 222.549Z" fill="url(#paint72_linear_84_405)"/>
<path d="M289.27 56.0068L248.54 32.6423C248.54 32.6423 250.067 56.0238 250.067 56.0748C250.067 56.1258 273.436 63.3135 273.436 63.3135L289.27 56.0068Z" fill="url(#paint73_linear_84_405)"/>
<path d="M81.6473 137.723C84.3506 136.1 87.3315 134.994 90.4383 134.46C94.5452 112.88 109.548 89.9575 127.418 79.6261C132.023 76.8212 137.194 75.0797 142.556 74.5284C145.017 48.3432 163.159 18.6236 185.221 5.86233C196.744 -0.79867 207.198 -1.59731 214.92 2.46386L215.294 2.68476L215.871 3.02461L255.328 25.7434L247.369 32.0475C254.514 35.1911 259.045 43.2115 259.045 55.0892C259.045 76.9923 243.686 103.619 224.746 114.562L81.6812 197.264C67.4426 205.489 55.9193 198.827 55.9193 182.379C55.9193 165.93 67.4087 145.947 81.6473 137.723Z" fill="url(#paint74_linear_84_405)"/>
<path d="M257.823 45.4545L187.325 4.6729C198.017 -0.917585 207.691 -1.37638 214.92 2.4469L215.294 2.6678L215.871 3.00765L255.328 25.7434L247.369 32.0476C252.341 34.2396 256.041 38.8275 257.823 45.4545Z" fill="url(#paint75_linear_84_405)"/>
<path d="M156.15 140.204L100.553 108.054C107.443 96.1597 116.93 85.6924 127.418 79.6261C128.81 78.8275 130.184 78.1138 131.542 77.5021L198.068 115.973L156.15 140.204Z" fill="url(#paint76_linear_84_405)"/>
<path d="M243.992 28.3942L226.087 38.7425L177.856 10.8581C180.191 9.02166 182.652 7.35228 185.221 5.86233C188.806 3.74719 192.659 2.12406 196.676 1.0365L243.992 28.3942Z" fill="url(#paint77_linear_84_405)"/>
<path d="M104.982 101.104L152.501 128.564L141.334 140.969L96.7854 115.208C99.094 110.273 101.837 105.553 104.982 101.104Z" fill="url(#paint78_linear_84_405)"/>
<path d="M122.259 161.121C124.97 159.501 127.955 158.395 131.067 157.859C135.174 136.279 150.159 113.356 168.046 103.025C172.651 100.22 177.823 98.4782 183.185 97.9269C185.628 71.7757 203.787 42.0391 225.85 29.2948C249.609 15.582 268.803 26.695 268.803 54.1206C268.803 55.0552 268.803 55.9898 268.803 56.9244C286.147 48.87 299.707 57.9609 299.707 78.5216C299.707 100.425 284.348 127.052 265.409 137.995L122.327 220.697C108.105 228.921 96.5817 222.26 96.5817 205.811C96.5817 189.363 108.037 169.346 122.259 161.121Z" fill="url(#paint79_linear_84_405)"/>
<path d="M271.756 63.4325L260.996 68.4282L261.556 56.5336C261.556 55.701 261.556 54.8344 261.556 54.0527C261.556 43.4665 258.366 35.8029 252.579 32.4384C246.792 29.0739 238.544 30.1615 229.396 35.4631C209.71 46.831 192.536 74.5455 190.363 98.5217L189.786 104.571L183.745 105.047C179.455 105.518 175.326 106.946 171.661 109.227C156.031 118.267 141.928 139.269 138.144 159.167L137.193 164.146L132.204 164.945C129.965 165.339 127.818 166.145 125.874 167.324C113.858 174.274 103.71 191.878 103.71 205.76C103.71 210.96 105.152 214.766 107.664 216.211C110.175 217.655 114.198 217.009 118.695 214.41L261.76 131.708C278.392 122.09 292.461 97.7231 292.461 78.4537C292.461 70.9091 290.237 65.1487 286.351 62.6678C284.636 61.6234 282.655 61.0982 280.649 61.1555C277.555 61.2648 274.522 62.0415 271.756 63.4325Z" fill="#6D0505"/>
<path d="M197.44 136.941C197.374 138.185 197.014 139.394 196.392 140.472C195.77 141.55 194.902 142.465 193.859 143.144C191.891 144.299 190.278 143.365 190.278 141.088C190.347 139.842 190.706 138.631 191.328 137.55C191.95 136.47 192.817 135.551 193.859 134.868C195.93 133.73 197.44 134.647 197.44 136.941Z" fill="url(#paint80_linear_84_405)"/>
<path d="M208.963 130.28C208.899 131.524 208.542 132.735 207.919 133.813C207.296 134.892 206.427 135.806 205.383 136.483C203.414 137.638 201.802 136.703 201.802 134.427C201.87 133.181 202.229 131.97 202.851 130.889C203.473 129.809 204.341 128.89 205.383 128.207C207.368 127.069 208.963 127.986 208.963 130.28Z" fill="url(#paint81_linear_84_405)"/>
<path d="M220.487 123.619C220.42 124.865 220.061 126.077 219.439 127.158C218.817 128.238 217.949 129.157 216.906 129.839C214.937 130.977 213.325 130.042 213.325 127.766C213.394 126.521 213.755 125.309 214.376 124.229C214.998 123.149 215.865 122.23 216.906 121.546C218.891 120.408 220.487 121.342 220.487 123.619Z" fill="url(#paint82_linear_84_405)"/>
<path opacity="0.5" d="M37.2852 415.072L9.96198 399.15C7.65393 397.825 7.94239 395.497 10.6068 393.951L36.6403 378.76C38.0073 378.001 39.532 377.572 41.0934 377.507C42.6549 377.443 44.2099 377.743 45.6349 378.386L72.9582 394.308C75.2662 395.633 74.9777 397.961 72.3133 399.507L46.2798 414.698C44.9142 415.461 43.3891 415.892 41.8269 415.956C40.2648 416.021 38.7092 415.719 37.2852 415.072Z" fill="#868894"/>
<path d="M82.9031 364.486V357.604H46.7041C44.9169 356.794 42.9648 356.415 41.0047 356.498C39.0446 356.58 37.1313 357.122 35.4184 358.08L36.5045 357.621H0.0169425V364.962C0.00847315 365.6 0.18728 366.227 0.531178 366.765C0.875076 367.302 1.36897 367.727 1.95166 367.986L36.216 387.952C38.0033 388.762 39.9553 389.141 41.9154 389.059C43.8755 388.976 45.7888 388.434 47.5017 387.477L80.1538 368.428C82.0885 367.256 83.0219 365.828 82.9031 364.486Z" fill="#12203C"/>
<path d="M41.494 356.449C39.3748 356.48 37.2951 357.028 35.4353 358.046L36.5215 357.587H0.0339332V364.928C0.0254639 365.566 0.204219 366.193 0.548117 366.731C0.892015 367.268 1.38591 367.693 1.9686 367.953L36.233 387.919C37.8565 388.754 39.6709 389.146 41.494 389.057V356.449Z" fill="#6D0505"/>
<path d="M4.15786 357.57H0.0339332V364.911C0.0254639 365.549 0.204219 366.176 0.548117 366.714C0.892015 367.251 1.38591 367.676 1.9686 367.935L4.15786 369.21V357.57Z" fill="#12203C"/>
<path d="M36.9458 388.258C39.8639 389.312 43.0638 389.276 45.9574 388.156V378.539H36.9458V388.258Z" fill="white"/>
<path d="M36.2161 380.561L1.95168 360.663C-0.933386 358.964 -0.577029 356.075 2.76625 354.138L35.4184 335.089C37.1313 334.132 39.0447 333.59 41.0047 333.507C42.9648 333.425 44.9169 333.804 46.7041 334.614L80.9685 354.58C83.8535 356.279 83.4971 359.167 80.1538 361.105L47.5017 380.153C45.7835 381.1 43.8673 381.63 41.9073 381.701C39.9473 381.772 37.998 381.381 36.2161 380.561Z" fill="url(#paint83_linear_84_405)"/>
<path d="M35.096 352.285C34.0123 352.835 32.8146 353.121 31.6 353.121C30.3853 353.121 29.1876 352.835 28.1039 352.285C27.6846 352.139 27.3211 351.866 27.0638 351.504C26.8066 351.141 26.6684 350.708 26.6684 350.263C26.6684 349.819 26.8066 349.385 27.0638 349.023C27.3211 348.661 27.6846 348.387 28.1039 348.241C29.1876 347.692 30.3853 347.406 31.6 347.406C32.8146 347.406 34.0123 347.692 35.096 348.241C35.5153 348.387 35.8788 348.661 36.136 349.023C36.3933 349.385 36.5315 349.819 36.5315 350.263C36.5315 350.708 36.3933 351.141 36.136 351.504C35.8788 351.866 35.5153 352.139 35.096 352.285Z" fill="#6D0505"/>
<path d="M46.3138 358.845C45.2301 359.394 44.0324 359.68 42.8177 359.68C41.603 359.68 40.4054 359.394 39.3217 358.845C38.9024 358.698 38.5389 358.425 38.2817 358.063C38.0244 357.701 37.8862 357.267 37.8862 356.822C37.8862 356.378 38.0244 355.944 38.2817 355.582C38.5389 355.22 38.9024 354.946 39.3217 354.8C40.4054 354.251 41.603 353.965 42.8177 353.965C44.0324 353.965 45.2301 354.251 46.3138 354.8C46.7331 354.946 47.0966 355.22 47.3538 355.582C47.6111 355.944 47.7493 356.378 47.7493 356.822C47.7493 357.267 47.6111 357.701 47.3538 358.063C47.0966 358.425 46.7331 358.698 46.3138 358.845Z" fill="#6D0505"/>
<path d="M57.5316 365.404C56.4479 365.953 55.2503 366.239 54.0356 366.239C52.8209 366.239 51.6232 365.953 50.5395 365.404C50.1202 365.257 49.7567 364.984 49.4994 364.622C49.2422 364.26 49.104 363.826 49.104 363.382C49.104 362.937 49.2422 362.503 49.4994 362.141C49.7567 361.779 50.1202 361.506 50.5395 361.359C51.6232 360.81 52.8209 360.524 54.0356 360.524C55.2503 360.524 56.4479 360.81 57.5316 361.359C57.9509 361.506 58.3144 361.779 58.5717 362.141C58.8289 362.503 58.9671 362.937 58.9671 363.382C58.9671 363.826 58.8289 364.26 58.5717 364.622C58.3144 364.984 57.9509 365.257 57.5316 365.404Z" fill="#6D0505"/>
<path opacity="0.5" d="M396.951 482.906L369.628 467.001C367.319 465.658 367.608 463.33 370.272 461.784L396.306 446.593C397.676 445.834 399.203 445.406 400.768 445.341C402.332 445.276 403.89 445.577 405.317 446.219L432.624 462.124C434.932 463.466 434.643 465.794 431.979 467.324L405.945 482.515C404.582 483.284 403.058 483.72 401.495 483.788C399.932 483.856 398.375 483.553 396.951 482.906Z" fill="#868894"/>
<path d="M442.569 432.319V425.522H406.37C404.584 424.71 402.632 424.328 400.672 424.408C398.712 424.487 396.798 425.026 395.084 425.981L396.17 425.539H359.683V432.88C359.672 433.519 359.85 434.147 360.194 434.685C360.538 435.223 361.033 435.647 361.617 435.905L395.882 455.871C397.669 456.681 399.621 457.06 401.581 456.977C403.541 456.894 405.454 456.353 407.167 455.395L439.819 436.347C441.754 435.106 442.688 433.662 442.569 432.319Z" fill="#12203C"/>
<path d="M401.143 424.299C399.025 424.326 396.946 424.869 395.084 425.879L396.17 425.438H359.683V432.778C359.672 433.417 359.85 434.045 360.194 434.583C360.538 435.121 361.033 435.545 361.617 435.803L395.882 455.769C397.498 456.605 399.309 456.992 401.126 456.89L401.143 424.299Z" fill="#6D0505"/>
<path d="M363.807 425.421H359.683V432.761C359.672 433.4 359.85 434.028 360.194 434.566C360.538 435.104 361.033 435.529 361.617 435.786L363.807 437.06V425.421Z" fill="#12203C"/>
<path d="M396.611 456.092C399.53 457.145 402.729 457.109 405.623 455.99V446.389H396.611V456.092Z" fill="white"/>
<path d="M395.882 448.53L361.617 428.564C358.732 426.865 359.089 423.976 362.432 422.039L395.084 402.991C396.797 402.033 398.71 401.491 400.67 401.409C402.63 401.326 404.582 401.705 406.37 402.515L440.634 422.481C443.536 424.18 443.163 427.069 439.819 429.006L407.167 448.054C405.454 449.012 403.541 449.554 401.581 449.636C399.621 449.719 397.669 449.34 395.882 448.53Z" fill="url(#paint84_linear_84_405)"/>
<path d="M394.762 420.136C393.679 420.689 392.481 420.978 391.266 420.978C390.05 420.978 388.852 420.689 387.77 420.136C387.348 419.994 386.982 419.724 386.722 419.363C386.463 419.001 386.323 418.567 386.323 418.122C386.323 417.677 386.463 417.244 386.722 416.882C386.982 416.521 387.348 416.25 387.77 416.109C388.852 415.555 390.05 415.267 391.266 415.267C392.481 415.267 393.679 415.555 394.762 416.109C395.175 416.258 395.532 416.532 395.785 416.892C396.038 417.253 396.173 417.682 396.173 418.122C396.173 418.563 396.038 418.992 395.785 419.352C395.532 419.713 395.175 419.986 394.762 420.136Z" fill="#6D0505"/>
<path d="M405.979 426.678C404.898 427.235 403.699 427.526 402.483 427.526C401.267 427.526 400.069 427.235 398.987 426.678C398.566 426.536 398.2 426.266 397.94 425.904C397.681 425.543 397.541 425.109 397.541 424.664C397.541 424.219 397.681 423.786 397.94 423.424C398.2 423.063 398.566 422.792 398.987 422.651C400.069 422.093 401.267 421.802 402.483 421.802C403.699 421.802 404.898 422.093 405.979 422.651C406.401 422.792 406.767 423.063 407.026 423.424C407.286 423.786 407.426 424.219 407.426 424.664C407.426 425.109 407.286 425.543 407.026 425.904C406.767 426.266 406.401 426.536 405.979 426.678Z" fill="#6D0505"/>
<path d="M417.197 433.237C416.113 433.787 414.916 434.073 413.701 434.073C412.486 434.073 411.289 433.787 410.205 433.237C409.786 433.091 409.422 432.818 409.165 432.455C408.908 432.093 408.77 431.66 408.77 431.215C408.77 430.77 408.908 430.337 409.165 429.975C409.422 429.612 409.786 429.339 410.205 429.193C411.289 428.643 412.486 428.357 413.701 428.357C414.916 428.357 416.113 428.643 417.197 429.193C417.617 429.339 417.98 429.612 418.237 429.975C418.494 430.337 418.633 430.77 418.633 431.215C418.633 431.66 418.494 432.093 418.237 432.455C417.98 432.818 417.617 433.091 417.197 433.237Z" fill="#6D0505"/>
<path opacity="0.5" d="M353.845 149.193L326.606 133.271C324.298 131.946 324.587 129.618 327.251 128.071L353.285 112.88C354.654 112.122 356.182 111.693 357.746 111.628C359.31 111.563 360.868 111.864 362.296 112.506L389.619 128.428C391.91 129.754 391.622 132.082 388.957 133.628L362.924 148.819C361.548 149.595 360.007 150.034 358.429 150.099C356.851 150.164 355.28 149.853 353.845 149.193Z" fill="#868894"/>
<path d="M399.462 98.6066V91.8097H363.263C361.476 90.9997 359.524 90.6207 357.564 90.7034C355.604 90.786 353.691 91.3279 351.978 92.2855L353.064 91.8267H316.576V99.1674C316.566 99.8062 316.744 100.434 317.088 100.972C317.432 101.51 317.927 101.935 318.511 102.192L352.775 122.158C354.563 122.968 356.515 123.347 358.475 123.264C360.435 123.182 362.348 122.64 364.061 121.682L396.73 102.634C398.648 101.376 399.581 99.949 399.462 98.6066Z" fill="#12203C"/>
<path d="M358.036 90.5692C355.919 90.6112 353.842 91.1588 351.978 92.1665L353.064 91.7077H316.576V99.0484C316.566 99.6873 316.744 100.315 317.088 100.853C317.432 101.391 317.927 101.816 318.511 102.073L352.775 122.039C354.392 122.875 356.203 123.263 358.019 123.161L358.036 90.5692Z" fill="#6D0505"/>
<path d="M320.7 91.6907H316.576V99.0314C316.566 99.6702 316.744 100.298 317.088 100.836C317.432 101.374 317.927 101.799 318.511 102.056L320.7 103.33V91.6907Z" fill="#12203C"/>
<path d="M353.505 122.379C356.423 123.432 359.623 123.396 362.517 122.277V112.676H353.505V122.379Z" fill="white"/>
<path d="M352.775 114.749L318.511 94.7834C315.626 93.0841 315.982 90.1955 319.326 88.2583L352.063 69.2099C353.775 68.2523 355.689 67.7104 357.649 67.6278C359.609 67.5452 361.561 67.9241 363.348 68.7341L397.613 88.7001C400.515 90.3993 400.141 93.2881 396.798 95.2252L364.146 114.274C362.422 115.245 360.494 115.795 358.518 115.877C356.542 115.96 354.574 115.573 352.775 114.749Z" fill="url(#paint85_linear_84_405)"/>
<path d="M351.655 86.4062C350.573 86.9596 349.375 87.2481 348.159 87.2481C346.944 87.2481 345.746 86.9596 344.663 86.4062C344.244 86.2601 343.88 85.9869 343.623 85.6245C343.366 85.2622 343.228 84.8286 343.228 84.3841C343.228 83.9395 343.366 83.506 343.623 83.1436C343.88 82.7813 344.244 82.5081 344.663 82.362C345.747 81.8126 346.945 81.5262 348.159 81.5262C349.374 81.5262 350.572 81.8126 351.655 82.362C352.075 82.5081 352.438 82.7813 352.695 83.1436C352.953 83.506 353.091 83.9395 353.091 84.3841C353.091 84.8286 352.953 85.2622 352.695 85.6245C352.438 85.9869 352.075 86.2601 351.655 86.4062Z" fill="#6D0505"/>
<path d="M362.873 92.9651C361.789 93.5146 360.592 93.8009 359.377 93.8009C358.162 93.8009 356.965 93.5146 355.881 92.9651C355.462 92.819 355.098 92.5458 354.841 92.1835C354.584 91.8211 354.446 91.3876 354.446 90.943C354.446 90.4985 354.584 90.0649 354.841 89.7026C355.098 89.3403 355.462 89.0671 355.881 88.921C356.965 88.3715 358.162 88.0852 359.377 88.0852C360.592 88.0852 361.789 88.3715 362.873 88.921C363.292 89.0671 363.656 89.3403 363.913 89.7026C364.17 90.0649 364.309 90.4985 364.309 90.943C364.309 91.3876 364.17 91.8211 363.913 92.1835C363.656 92.5458 363.292 92.819 362.873 92.9651Z" fill="#6D0505"/>
<path d="M374.125 99.5242C373.041 100.074 371.844 100.36 370.629 100.36C369.414 100.36 368.216 100.074 367.133 99.5242C366.713 99.3781 366.35 99.1049 366.093 98.7426C365.836 98.3802 365.697 97.9467 365.697 97.5021C365.697 97.0576 365.836 96.624 366.093 96.2617C366.35 95.8993 366.713 95.6261 367.133 95.48C368.216 94.9306 369.414 94.6443 370.629 94.6443C371.844 94.6443 373.041 94.9306 374.125 95.48C374.544 95.6261 374.908 95.8993 375.165 96.2617C375.422 96.624 375.56 97.0576 375.56 97.5021C375.56 97.9467 375.422 98.3802 375.165 98.7426C374.908 99.1049 374.544 99.3781 374.125 99.5242Z" fill="#6D0505"/>
</g>
<defs>
<linearGradient id="paint0_linear_84_405" x1="319.003" y1="276.907" x2="319.003" y2="310.28" gradientUnits="userSpaceOnUse">
<stop stop-color="#12203C"/>
<stop offset="1" stop-color="#FF0000"/>
</linearGradient>
<linearGradient id="paint1_linear_84_405" x1="401.847" y1="321.716" x2="401.847" y2="353.247" gradientUnits="userSpaceOnUse">
<stop stop-color="#12203C"/>
<stop offset="1" stop-color="#FF0000"/>
</linearGradient>
<linearGradient id="paint2_linear_84_405" x1="401.881" y1="227.188" x2="401.881" y2="326.797" gradientUnits="userSpaceOnUse">
<stop offset="0.015625" stop-color="#FF0000"/>
<stop offset="0.8751" stop-color="#12203C"/>
</linearGradient>
<linearGradient id="paint3_linear_84_405" x1="401.851" y1="235.262" x2="401.851" y2="318.702" gradientUnits="userSpaceOnUse">
<stop stop-color="#12203C"/>
<stop offset="1" stop-color="#FF0000"/>
</linearGradient>
<linearGradient id="paint4_linear_84_405" x1="457.469" y1="307.487" x2="457.469" y2="315.285" gradientUnits="userSpaceOnUse">
<stop offset="0.015625" stop-color="#FF0000"/>
<stop offset="0.8751" stop-color="#12203C"/>
</linearGradient>
<linearGradient id="paint5_linear_84_405" x1="467.177" y1="301.904" x2="467.177" y2="309.746" gradientUnits="userSpaceOnUse">
<stop offset="0.015625" stop-color="#FF0000"/>
<stop offset="0.8751" stop-color="#12203C"/>
</linearGradient>
<linearGradient id="paint6_linear_84_405" x1="476.893" y1="296.255" x2="476.893" y2="304.053" gradientUnits="userSpaceOnUse">
<stop offset="0.015625" stop-color="#FF0000"/>
<stop offset="0.8751" stop-color="#12203C"/>
</linearGradient>
<linearGradient id="paint7_linear_84_405" x1="319.003" y1="235.633" x2="319.003" y2="269.006" gradientUnits="userSpaceOnUse">
<stop stop-color="#12203C"/>
<stop offset="1" stop-color="#FF0000"/>
</linearGradient>
<linearGradient id="paint8_linear_84_405" x1="401.847" y1="280.442" x2="401.847" y2="311.98" gradientUnits="userSpaceOnUse">
<stop stop-color="#12203C"/>
<stop offset="1" stop-color="#FF0000"/>
</linearGradient>
<linearGradient id="paint9_linear_84_405" x1="401.847" y1="186.013" x2="401.847" y2="285.519" gradientUnits="userSpaceOnUse">
<stop offset="0.015625" stop-color="#FF0000"/>
<stop offset="0.8751" stop-color="#12203C"/>
</linearGradient>
<linearGradient id="paint10_linear_84_405" x1="401.851" y1="193.991" x2="401.851" y2="277.462" gradientUnits="userSpaceOnUse">
<stop stop-color="#12203C"/>
<stop offset="1" stop-color="#FF0000"/>
</linearGradient>
<linearGradient id="paint11_linear_84_405" x1="457.469" y1="266.242" x2="457.469" y2="274.062" gradientUnits="userSpaceOnUse">
<stop offset="0.015625" stop-color="#FF0000"/>
<stop offset="0.8751" stop-color="#12203C"/>
</linearGradient>
<linearGradient id="paint12_linear_84_405" x1="467.177" y1="260.605" x2="467.177" y2="268.403" gradientUnits="userSpaceOnUse">
<stop offset="0.015625" stop-color="#FF0000"/>
<stop offset="0.8751" stop-color="#12203C"/>
</linearGradient>
<linearGradient id="paint13_linear_84_405" x1="476.893" y1="254.991" x2="476.893" y2="262.779" gradientUnits="userSpaceOnUse">
<stop offset="0.015625" stop-color="#FF0000"/>
<stop offset="0.8751" stop-color="#12203C"/>
</linearGradient>
<linearGradient id="paint14_linear_84_405" x1="319.003" y1="194.359" x2="319.003" y2="227.732" gradientUnits="userSpaceOnUse">
<stop stop-color="#12203C"/>
<stop offset="1" stop-color="#FF0000"/>
</linearGradient>
<linearGradient id="paint15_linear_84_405" x1="401.847" y1="239.184" x2="401.847" y2="270.715" gradientUnits="userSpaceOnUse">
<stop stop-color="#12203C"/>
<stop offset="1" stop-color="#FF0000"/>
</linearGradient>
<linearGradient id="paint16_linear_84_405" x1="401.881" y1="144.656" x2="401.881" y2="244.258" gradientUnits="userSpaceOnUse">
<stop offset="0.015625" stop-color="#FF0000"/>
<stop offset="0.8751" stop-color="#12203C"/>
</linearGradient>
<linearGradient id="paint17_linear_84_405" x1="457.469" y1="224.955" x2="457.469" y2="232.746" gradientUnits="userSpaceOnUse">
<stop offset="0.015625" stop-color="#FF0000"/>
<stop offset="0.8751" stop-color="#12203C"/>
</linearGradient>
<linearGradient id="paint18_linear_84_405" x1="467.177" y1="219.341" x2="467.177" y2="227.129" gradientUnits="userSpaceOnUse">
<stop offset="0.015625" stop-color="#FF0000"/>
<stop offset="0.8751" stop-color="#12203C"/>
</linearGradient>
<linearGradient id="paint19_linear_84_405" x1="476.893" y1="213.723" x2="476.893" y2="221.521" gradientUnits="userSpaceOnUse">
<stop offset="0.015625" stop-color="#FF0000"/>
<stop offset="0.8751" stop-color="#12203C"/>
</linearGradient>
<linearGradient id="paint20_linear_84_405" x1="401.851" y1="169.966" x2="401.851" y2="216.551" gradientUnits="userSpaceOnUse">
<stop stop-color="#12203C"/>
<stop offset="1" stop-color="#FF0000"/>
</linearGradient>
<linearGradient id="paint21_linear_84_405" x1="401.821" y1="192.441" x2="401.821" y2="198.892" gradientUnits="userSpaceOnUse">
<stop offset="0.015625" stop-color="#FF0000"/>
<stop offset="0.8751" stop-color="#12203C"/>
</linearGradient>
<linearGradient id="paint22_linear_84_405" x1="256.388" y1="327.273" x2="256.388" y2="416.913" gradientUnits="userSpaceOnUse">
<stop stop-color="#FF0000"/>
<stop offset="1" stop-color="#F06826"/>
</linearGradient>
<linearGradient id="paint23_linear_84_405" x1="216.549" y1="340.544" x2="216.549" y2="373.917" gradientUnits="userSpaceOnUse">
<stop stop-color="#12203C"/>
<stop offset="1" stop-color="#FF0000"/>
</linearGradient>
<linearGradient id="paint24_linear_84_405" x1="299.423" y1="290.839" x2="299.423" y2="390.436" gradientUnits="userSpaceOnUse">
<stop offset="0.229167" stop-color="#FF0000"/>
<stop offset="0.958333" stop-color="#F06826"/>
</linearGradient>
<linearGradient id="paint25_linear_84_405" x1="299.457" y1="298.901" x2="299.457" y2="382.373" gradientUnits="userSpaceOnUse">
<stop offset="0.015625" stop-color="#FF0000"/>
<stop offset="0.8751" stop-color="#12203C"/>
</linearGradient>
<linearGradient id="paint26_linear_84_405" x1="354.999" y1="371.134" x2="354.999" y2="378.922" gradientUnits="userSpaceOnUse">
<stop stop-color="#12203C"/>
<stop offset="1" stop-color="#FF0000"/>
</linearGradient>
<linearGradient id="paint27_linear_84_405" x1="364.723" y1="365.516" x2="364.723" y2="373.314" gradientUnits="userSpaceOnUse">
<stop stop-color="#12203C"/>
<stop offset="1" stop-color="#FF0000"/>
</linearGradient>
<linearGradient id="paint28_linear_84_405" x1="374.498" y1="359.911" x2="374.498" y2="367.69" gradientUnits="userSpaceOnUse">
<stop stop-color="#12203C"/>
<stop offset="1" stop-color="#FF0000"/>
</linearGradient>
<linearGradient id="paint29_linear_84_405" x1="256.389" y1="285.404" x2="256.389" y2="375.021" gradientUnits="userSpaceOnUse">
<stop stop-color="#FF0000"/>
<stop offset="1" stop-color="#F06826"/>
</linearGradient>
<linearGradient id="paint30_linear_84_405" x1="216.549" y1="298.658" x2="216.549" y2="332.031" gradientUnits="userSpaceOnUse">
<stop stop-color="#12203C"/>
<stop offset="1" stop-color="#FF0000"/>
</linearGradient>
<linearGradient id="paint31_linear_84_405" x1="299.389" y1="248.885" x2="299.389" y2="348.551" gradientUnits="userSpaceOnUse">
<stop offset="0.229167" stop-color="#FF0000"/>
<stop offset="0.958333" stop-color="#F06826"/>
</linearGradient>
<linearGradient id="paint32_linear_84_405" x1="299.457" y1="257.023" x2="299.457" y2="340.49" gradientUnits="userSpaceOnUse">
<stop offset="0.015625" stop-color="#FF0000"/>
<stop offset="0.8751" stop-color="#12203C"/>
</linearGradient>
<linearGradient id="paint33_linear_84_405" x1="354.999" y1="329.254" x2="354.999" y2="337.042" gradientUnits="userSpaceOnUse">
<stop stop-color="#12203C"/>
<stop offset="1" stop-color="#FF0000"/>
</linearGradient>
<linearGradient id="paint34_linear_84_405" x1="364.723" y1="323.634" x2="364.723" y2="331.428" gradientUnits="userSpaceOnUse">
<stop stop-color="#12203C"/>
<stop offset="1" stop-color="#FF0000"/>
</linearGradient>
<linearGradient id="paint35_linear_84_405" x1="374.498" y1="318.022" x2="374.498" y2="325.82" gradientUnits="userSpaceOnUse">
<stop stop-color="#12203C"/>
<stop offset="1" stop-color="#FF0000"/>
</linearGradient>
<linearGradient id="paint36_linear_84_405" x1="256.388" y1="243.517" x2="256.388" y2="333.192" gradientUnits="userSpaceOnUse">
<stop stop-color="#FF0000"/>
<stop offset="1" stop-color="#F06826"/>
</linearGradient>
<linearGradient id="paint37_linear_84_405" x1="216.549" y1="256.788" x2="216.549" y2="290.144" gradientUnits="userSpaceOnUse">
<stop stop-color="#12203C"/>
<stop offset="1" stop-color="#FF0000"/>
</linearGradient>
<linearGradient id="paint38_linear_84_405" x1="299.304" y1="207.01" x2="299.304" y2="306.655" gradientUnits="userSpaceOnUse">
<stop offset="0.229167" stop-color="#FF0000"/>
<stop offset="0.958333" stop-color="#F06826"/>
</linearGradient>
<linearGradient id="paint39_linear_84_405" x1="299.422" y1="254.036" x2="299.422" y2="306.612" gradientUnits="userSpaceOnUse">
<stop stop-color="#12203C"/>
<stop offset="1" stop-color="#FF0000"/>
</linearGradient>
<linearGradient id="paint40_linear_84_405" x1="354.999" y1="287.378" x2="354.999" y2="295.166" gradientUnits="userSpaceOnUse">
<stop stop-color="#12203C"/>
<stop offset="1" stop-color="#FF0000"/>
</linearGradient>
<linearGradient id="paint41_linear_84_405" x1="364.723" y1="281.767" x2="364.723" y2="289.548" gradientUnits="userSpaceOnUse">
<stop stop-color="#12203C"/>
<stop offset="1" stop-color="#FF0000"/>
</linearGradient>
<linearGradient id="paint42_linear_84_405" x1="374.498" y1="276.141" x2="374.498" y2="283.934" gradientUnits="userSpaceOnUse">
<stop stop-color="#12203C"/>
<stop offset="1" stop-color="#FF0000"/>
</linearGradient>
<linearGradient id="paint43_linear_84_405" x1="299.392" y1="233.483" x2="299.392" y2="280.083" gradientUnits="userSpaceOnUse">
<stop offset="0.015625" stop-color="#FF0000"/>
<stop offset="0.8751" stop-color="#12203C"/>
</linearGradient>
<linearGradient id="paint44_linear_84_405" x1="299.355" y1="256.002" x2="299.355" y2="262.435" gradientUnits="userSpaceOnUse">
<stop stop-color="#12203C"/>
<stop offset="1" stop-color="#FF0000"/>
</linearGradient>
<linearGradient id="paint45_linear_84_405" x1="299.396" y1="233.432" x2="299.396" y2="259.031" gradientUnits="userSpaceOnUse">
<stop stop-color="#12203C"/>
<stop offset="1" stop-color="#FF0000"/>
</linearGradient>
<linearGradient id="paint46_linear_84_405" x1="253.623" y1="325.256" x2="253.623" y2="352.658" gradientUnits="userSpaceOnUse">
<stop offset="0.015625" stop-color="#FF0000"/>
<stop offset="0.8751" stop-color="#12203C"/>
</linearGradient>
<linearGradient id="paint47_linear_84_405" x1="253.546" y1="325.323" x2="253.546" y2="352.636" gradientUnits="userSpaceOnUse">
<stop stop-color="#12203C"/>
<stop offset="1" stop-color="#FF0000"/>
</linearGradient>
<linearGradient id="paint48_linear_84_405" x1="153.858" y1="390.909" x2="153.858" y2="480.527" gradientUnits="userSpaceOnUse">
<stop stop-color="#FF0000"/>
<stop offset="1" stop-color="#F06826"/>
</linearGradient>
<linearGradient id="paint49_linear_84_405" x1="114.079" y1="404.18" x2="114.079" y2="437.553" gradientUnits="userSpaceOnUse">
<stop stop-color="#12203C"/>
<stop offset="1" stop-color="#FF0000"/>
</linearGradient>
<linearGradient id="paint50_linear_84_405" x1="196.889" y1="354.478" x2="196.889" y2="454.08" gradientUnits="userSpaceOnUse">
<stop offset="0.229167" stop-color="#FF0000"/>
<stop offset="0.958333" stop-color="#F06826"/>
</linearGradient>
<linearGradient id="paint51_linear_84_405" x1="196.927" y1="362.545" x2="196.927" y2="446.012" gradientUnits="userSpaceOnUse">
<stop offset="0.015625" stop-color="#FF0000"/>
<stop offset="0.8751" stop-color="#12203C"/>
</linearGradient>
<linearGradient id="paint52_linear_84_405" x1="252.545" y1="434.767" x2="252.545" y2="442.575" gradientUnits="userSpaceOnUse">
<stop stop-color="#12203C"/>
<stop offset="1" stop-color="#FF0000"/>
</linearGradient>
<linearGradient id="paint53_linear_84_405" x1="262.252" y1="429.163" x2="262.252" y2="436.95" gradientUnits="userSpaceOnUse">
<stop stop-color="#12203C"/>
<stop offset="1" stop-color="#FF0000"/>
</linearGradient>
<linearGradient id="paint54_linear_84_405" x1="271.968" y1="423.574" x2="271.968" y2="431.343" gradientUnits="userSpaceOnUse">
<stop stop-color="#12203C"/>
<stop offset="1" stop-color="#FF0000"/>
</linearGradient>
<linearGradient id="paint55_linear_84_405" x1="153.858" y1="349.04" x2="153.858" y2="438.715" gradientUnits="userSpaceOnUse">
<stop stop-color="#FF0000"/>
<stop offset="1" stop-color="#F06826"/>
</linearGradient>
<linearGradient id="paint56_linear_84_405" x1="114.078" y1="362.311" x2="114.078" y2="395.667" gradientUnits="userSpaceOnUse">
<stop stop-color="#12203C"/>
<stop offset="1" stop-color="#FF0000"/>
</linearGradient>
<linearGradient id="paint57_linear_84_405" x1="196.889" y1="312.6" x2="196.889" y2="412.203" gradientUnits="userSpaceOnUse">
<stop offset="0.229167" stop-color="#FF0000"/>
<stop offset="0.958333" stop-color="#F06826"/>
</linearGradient>
<linearGradient id="paint58_linear_84_405" x1="196.927" y1="320.669" x2="196.927" y2="404.144" gradientUnits="userSpaceOnUse">
<stop offset="0.015625" stop-color="#FF0000"/>
<stop offset="0.8751" stop-color="#12203C"/>
</linearGradient>
<linearGradient id="paint59_linear_84_405" x1="252.545" y1="392.901" x2="252.545" y2="400.689" gradientUnits="userSpaceOnUse">
<stop stop-color="#12203C"/>
<stop offset="1" stop-color="#FF0000"/>
</linearGradient>
<linearGradient id="paint60_linear_84_405" x1="262.252" y1="387.283" x2="262.252" y2="395.071" gradientUnits="userSpaceOnUse">
<stop stop-color="#12203C"/>
<stop offset="1" stop-color="#FF0000"/>
</linearGradient>
<linearGradient id="paint61_linear_84_405" x1="271.968" y1="381.663" x2="271.968" y2="389.457" gradientUnits="userSpaceOnUse">
<stop stop-color="#12203C"/>
<stop offset="1" stop-color="#FF0000"/>
</linearGradient>
<linearGradient id="paint62_linear_84_405" x1="153.858" y1="307.154" x2="153.858" y2="396.829" gradientUnits="userSpaceOnUse">
<stop stop-color="#FF0000"/>
<stop offset="1" stop-color="#F06826"/>
</linearGradient>
<linearGradient id="paint63_linear_84_405" x1="114.079" y1="320.425" x2="114.079" y2="353.798" gradientUnits="userSpaceOnUse">
<stop stop-color="#12203C"/>
<stop offset="1" stop-color="#FF0000"/>
</linearGradient>
<linearGradient id="paint64_linear_84_405" x1="196.889" y1="270.72" x2="196.889" y2="370.322" gradientUnits="userSpaceOnUse">
<stop offset="0.229167" stop-color="#FF0000"/>
<stop offset="0.958333" stop-color="#F06826"/>
</linearGradient>
<linearGradient id="paint65_linear_84_405" x1="196.923" y1="317.757" x2="196.923" y2="370.323" gradientUnits="userSpaceOnUse">
<stop stop-color="#12203C"/>
<stop offset="1" stop-color="#FF0000"/>
</linearGradient>
<linearGradient id="paint66_linear_84_405" x1="252.545" y1="351.021" x2="252.545" y2="358.809" gradientUnits="userSpaceOnUse">
<stop stop-color="#12203C"/>
<stop offset="1" stop-color="#FF0000"/>
</linearGradient>
<linearGradient id="paint67_linear_84_405" x1="262.252" y1="345.422" x2="262.252" y2="353.195" gradientUnits="userSpaceOnUse">
<stop stop-color="#12203C"/>
<stop offset="1" stop-color="#FF0000"/>
</linearGradient>
<linearGradient id="paint68_linear_84_405" x1="271.968" y1="339.789" x2="271.968" y2="347.577" gradientUnits="userSpaceOnUse">
<stop stop-color="#12203C"/>
<stop offset="1" stop-color="#FF0000"/>
</linearGradient>
<linearGradient id="paint69_linear_84_405" x1="196.931" y1="297.129" x2="196.931" y2="343.721" gradientUnits="userSpaceOnUse">
<stop offset="0.015625" stop-color="#FF0000"/>
<stop offset="0.8751" stop-color="#12203C"/>
</linearGradient>
<linearGradient id="paint70_linear_84_405" x1="196.931" y1="319.657" x2="196.931" y2="326.096" gradientUnits="userSpaceOnUse">
<stop stop-color="#12203C"/>
<stop offset="1" stop-color="#FF0000"/>
</linearGradient>
<linearGradient id="paint71_linear_84_405" x1="196.92" y1="297.061" x2="196.92" y2="322.668" gradientUnits="userSpaceOnUse">
<stop stop-color="#12203C"/>
<stop offset="1" stop-color="#FF0000"/>
</linearGradient>
<linearGradient id="paint72_linear_84_405" x1="86.2804" y1="177.196" x2="86.2804" y2="222.549" gradientUnits="userSpaceOnUse">
<stop stop-color="#FF0000"/>
<stop offset="1" stop-color="#F06826"/>
</linearGradient>
<linearGradient id="paint73_linear_84_405" x1="268.905" y1="32.6423" x2="268.905" y2="63.3135" gradientUnits="userSpaceOnUse">
<stop stop-color="#12203C"/>
<stop offset="1" stop-color="#FF0000"/>
</linearGradient>
<linearGradient id="paint74_linear_84_405" x1="157.482" y1="-0.0126953" x2="157.482" y2="200.788" gradientUnits="userSpaceOnUse">
<stop stop-color="#FF0000"/>
<stop offset="1" stop-color="#F06826"/>
</linearGradient>
<linearGradient id="paint75_linear_84_405" x1="222.574" y1="-0.0423584" x2="222.574" y2="45.4545" gradientUnits="userSpaceOnUse">
<stop stop-color="#12203C"/>
<stop offset="1" stop-color="#FF0000"/>
</linearGradient>
<linearGradient id="paint76_linear_84_405" x1="149.311" y1="77.5021" x2="149.311" y2="140.204" gradientUnits="userSpaceOnUse">
<stop stop-color="#12203C"/>
<stop offset="1" stop-color="#FF0000"/>
</linearGradient>
<linearGradient id="paint77_linear_84_405" x1="210.924" y1="1.0365" x2="210.924" y2="38.7425" gradientUnits="userSpaceOnUse">
<stop stop-color="#FF0000"/>
<stop offset="1" stop-color="#F06826"/>
</linearGradient>
<linearGradient id="paint78_linear_84_405" x1="124.643" y1="101.104" x2="124.643" y2="140.969" gradientUnits="userSpaceOnUse">
<stop stop-color="#FF0000"/>
<stop offset="1" stop-color="#F06826"/>
</linearGradient>
<linearGradient id="paint79_linear_84_405" x1="198.144" y1="23.4205" x2="198.144" y2="224.221" gradientUnits="userSpaceOnUse">
<stop stop-color="#FF0000"/>
<stop offset="1" stop-color="#F06826"/>
</linearGradient>
<linearGradient id="paint80_linear_84_405" x1="193.859" y1="134.38" x2="193.859" y2="143.64" gradientUnits="userSpaceOnUse">
<stop stop-color="#12203C"/>
<stop offset="1" stop-color="#FF0000"/>
</linearGradient>
<linearGradient id="paint81_linear_84_405" x1="205.383" y1="127.719" x2="205.383" y2="136.979" gradientUnits="userSpaceOnUse">
<stop stop-color="#12203C"/>
<stop offset="1" stop-color="#FF0000"/>
</linearGradient>
<linearGradient id="paint82_linear_84_405" x1="216.906" y1="121.061" x2="216.906" y2="130.324" gradientUnits="userSpaceOnUse">
<stop stop-color="#12203C"/>
<stop offset="1" stop-color="#FF0000"/>
</linearGradient>
<linearGradient id="paint83_linear_84_405" x1="41.4601" y1="333.496" x2="41.4601" y2="381.709" gradientUnits="userSpaceOnUse">
<stop offset="0.015625" stop-color="#FF0000"/>
<stop offset="0.8751" stop-color="#12203C"/>
</linearGradient>
<linearGradient id="paint84_linear_84_405" x1="401.129" y1="401.397" x2="401.129" y2="449.648" gradientUnits="userSpaceOnUse">
<stop offset="0.015625" stop-color="#FF0000"/>
<stop offset="0.8751" stop-color="#12203C"/>
</linearGradient>
<linearGradient id="paint85_linear_84_405" x1="358.065" y1="67.6167" x2="358.065" y2="115.888" gradientUnits="userSpaceOnUse">
<stop offset="0.015625" stop-color="#FF0000"/>
<stop offset="0.8751" stop-color="#12203C"/>
</linearGradient>
<clipPath id="clip0_84_405">
<rect width="488" height="500" fill="white"/>
</clipPath>
</defs>
</svg>
