<svg width="66" height="83" viewBox="0 0 66 83" fill="none" xmlns="http://www.w3.org/2000/svg">
<path d="M27.2138 0.00270326C26.7252 0.0542221 26.273 0.286591 25.9452 0.654707C25.6174 1.02282 25.4374 1.50041 25.44 1.99462V7.22338C24.1564 7.67813 22.9511 8.19842 21.8306 8.82105L18.2625 5.23146C18.0785 5.04579 17.86 4.89846 17.6193 4.79794C17.3786 4.69742 17.1206 4.64568 16.86 4.64568C16.5994 4.64568 16.3414 4.69742 16.1007 4.79794C15.86 4.89846 15.6415 5.04579 15.4575 5.23146L8.1975 12.5351C7.83102 12.9081 7.62549 13.4113 7.62549 13.9357C7.62549 14.4601 7.83102 14.9633 8.1975 15.3363L11.7863 18.9466C11.1693 20.079 10.6448 21.2873 10.1981 22.5777H4.98C4.45489 22.5777 3.9513 22.7876 3.57999 23.1612C3.20867 23.5347 3.00005 24.0413 3 24.5696V35.1931C3.00006 35.7214 3.20869 36.228 3.58 36.6015C3.95131 36.9751 4.45489 37.1849 4.98 37.185H10.1981C10.6439 38.4684 11.1722 39.6684 11.7863 40.7954L8.1975 44.4056C7.83102 44.7786 7.62548 45.2819 7.62548 45.8063C7.62548 46.3307 7.83102 46.8339 8.1975 47.2068L15.4575 54.5105C15.6415 54.6962 15.86 54.8434 16.1007 54.944C16.3414 55.0445 16.5994 55.0963 16.86 55.0963C17.1206 55.0963 17.3786 55.0445 17.6193 54.944C17.86 54.8434 18.0785 54.6962 18.2625 54.5105L21.8306 50.9209C22.9554 51.5413 24.1583 52.069 25.44 52.5186V57.7681C25.44 58.2963 25.6487 58.803 26.02 59.1766C26.3913 59.5501 26.8949 59.7599 27.42 59.76H37.98C38.5051 59.7599 39.0087 59.5501 39.38 59.1766C39.7513 58.803 39.96 58.2963 39.96 57.7681V52.5186C41.2417 52.069 42.4446 51.5413 43.5694 50.9209L47.1375 54.5105C47.3215 54.6962 47.54 54.8434 47.7807 54.944C48.0214 55.0445 48.2794 55.0963 48.54 55.0963C48.8006 55.0963 49.0586 55.0445 49.2993 54.944C49.54 54.8434 49.7585 54.6962 49.9425 54.5105L57.2025 47.2068C57.569 46.8339 57.7745 46.3307 57.7745 45.8063C57.7745 45.2819 57.569 44.7786 57.2025 44.4056L53.6138 40.7954C54.2278 39.6684 54.7561 38.4684 55.2019 37.185H60.42C60.9451 37.1849 61.4487 36.9751 61.82 36.6015C62.1913 36.228 62.3999 35.7214 62.4 35.1931V24.5696C62.4 24.0413 62.1913 23.5347 61.82 23.1612C61.4487 22.7876 60.9451 22.5777 60.42 22.5777H55.2019C54.7552 21.2873 54.2307 20.079 53.6138 18.9466L57.2025 15.3363C57.569 14.9633 57.7745 14.4601 57.7745 13.9357C57.7745 13.4113 57.569 12.9081 57.2025 12.5351L49.9425 5.23146C49.7585 5.04579 49.54 4.89846 49.2993 4.79794C49.0586 4.69742 48.8006 4.64568 48.54 4.64568C48.2794 4.64568 48.0214 4.69742 47.7807 4.79794C47.54 4.89846 47.3215 5.04579 47.1375 5.23146L43.5694 8.82105C42.4489 8.19842 41.2436 7.67813 39.96 7.22338V1.99462C39.9599 1.46635 39.7513 0.95972 39.38 0.586175C39.0087 0.212631 38.5051 0.00275608 37.98 0.00270326H27.42C27.3513 -0.000901088 27.2825 -0.000901088 27.2138 0.00270326ZM29.4 3.9865H36V8.61355C36.001 9.05808 36.1497 9.4895 36.4225 9.83918C36.6954 10.1888 37.0766 10.4367 37.5056 10.5432C39.3131 10.9959 41.1648 11.9362 42.9094 12.9916C43.2887 13.2172 43.732 13.3091 44.1691 13.2528C44.6061 13.1964 45.012 12.995 45.3225 12.6804L48.54 9.44351L52.995 13.9461L49.7775 17.1829C49.4681 17.4977 49.2717 17.9073 49.2194 18.3469C49.1671 18.7865 49.2619 19.2312 49.4888 19.6106C50.5321 21.3562 51.449 23.2166 51.9019 25.0468C52.0078 25.4784 52.2541 25.8619 52.6017 26.1364C52.9493 26.4109 53.3781 26.5605 53.82 26.5615H58.44V33.2012H53.82C53.3809 33.201 52.9542 33.3477 52.6069 33.6181C52.2597 33.8885 52.0117 34.2674 51.9019 34.6951C51.449 36.5253 50.5321 38.3858 49.4888 40.1314C49.2619 40.5108 49.1671 40.9554 49.2194 41.395C49.2717 41.8346 49.468 42.2442 49.7775 42.559L52.995 45.8166L48.54 50.2984L45.3225 47.0616C45.012 46.747 44.6061 46.5455 44.169 46.4892C43.732 46.4328 43.2887 46.5247 42.9094 46.7503C41.1742 47.8 39.3249 48.7223 37.5056 49.178C37.0732 49.2854 36.6894 49.5363 36.4162 49.8902C36.143 50.2441 35.9963 50.6803 36 51.1284V55.7762H29.4V51.1284C29.4037 50.6803 29.257 50.2441 28.9838 49.8902C28.7106 49.5363 28.3268 49.2854 27.8944 49.178C26.0752 48.7224 24.2258 47.8 22.4906 46.7503C22.1113 46.5247 21.668 46.4328 21.231 46.4892C20.7939 46.5455 20.388 46.747 20.0775 47.0616L16.86 50.2984L12.405 45.8166L15.6225 42.559C15.932 42.2442 16.1283 41.8346 16.1806 41.395C16.2329 40.9554 16.1381 40.5108 15.9113 40.1314C14.8679 38.3858 13.951 36.5253 13.4981 34.6951C13.3883 34.2674 13.1403 33.8885 12.7931 33.6181C12.4458 33.3477 12.0191 33.201 11.58 33.2012H6.96V26.5615H11.58C12.0219 26.5605 12.4507 26.4109 12.7983 26.1364C13.1459 25.8619 13.3922 25.4784 13.4981 25.0468C13.951 23.2166 14.8679 21.3562 15.9113 19.6106C16.1381 19.2312 16.2329 18.7865 16.1806 18.3469C16.1283 17.9073 15.932 17.4977 15.6225 17.1829L12.405 13.9461L16.86 9.44351L20.0775 12.6804C20.388 12.995 20.7939 13.1964 21.2309 13.2528C21.668 13.3091 22.1113 13.2172 22.4906 12.9916C24.2352 11.9362 26.0869 10.9959 27.8944 10.5432C28.3234 10.4367 28.7046 10.1888 28.9775 9.83918C29.2503 9.4895 29.399 9.05808 29.4 8.61355V3.9865ZM32.7 17.2659C28.7139 17.2659 25.44 20.5595 25.44 24.5696C25.44 25.7904 25.8017 26.8339 26.3063 27.7442C24.5267 28.7964 23.18 30.2923 22.3463 32.0392C21.1483 34.5492 20.82 37.4495 20.82 40.5049C20.82 41.0332 21.0287 41.5398 21.4 41.9133C21.7713 42.2869 22.2749 42.4967 22.8 42.4968H42.6C43.1251 42.4967 43.6287 42.2869 44 41.9133C44.3713 41.5398 44.58 41.0332 44.58 40.5049C44.58 37.4495 44.2517 34.5492 43.0538 32.0392C42.22 30.2923 40.8733 28.7964 39.0938 27.7442C39.5983 26.8339 39.96 25.7904 39.96 24.5696C39.96 20.5595 36.6861 17.2659 32.7 17.2659ZM32.7 21.2497C34.546 21.2497 36 22.7125 36 24.5696C36 25.1313 35.3037 26.4189 34.5975 27.1217C34.3496 27.3673 34.1704 27.6743 34.078 28.0118C33.9855 28.3492 33.9831 28.7052 34.0709 29.0439C34.1588 29.3826 34.3337 29.692 34.5783 29.941C34.8228 30.19 35.1282 30.3698 35.4638 30.4623C37.6159 31.0639 38.6995 32.1143 39.4856 33.7614C40.0655 34.9763 40.3372 36.6574 40.4756 38.5129H24.9244C25.0628 36.6574 25.3345 34.9763 25.9144 33.7614C26.7005 32.1143 27.7841 31.0639 29.9363 30.4623C30.2718 30.3698 30.5772 30.19 30.8217 29.941C31.0663 29.692 31.2412 29.3826 31.3291 29.0439C31.4169 28.7052 31.4145 28.3492 31.322 28.0118C31.2296 27.6743 31.0504 27.3673 30.8025 27.1217C30.0963 26.4189 29.4 25.1313 29.4 24.5696C29.4 22.7125 30.854 21.2497 32.7 21.2497Z" fill="#12203C"/>
</svg>
