<svg width="62" height="62" viewBox="0 0 62 62" fill="none" xmlns="http://www.w3.org/2000/svg">
<path d="M12.7153 45.697C12.9344 46.1252 13.0567 46.5327 12.9869 46.6025C12.8091 46.7804 7.08907 46.7205 6.29724 46.5319C4.11198 46.0126 1.79534 44.0821 0.709367 41.8736C0.0927578 40.6214 0.0605469 40.4373 0.0605469 38.2217C0.0605469 36.1133 0.112375 35.7755 0.603047 34.7289C1.63707 32.523 3.61852 30.9286 6.10409 30.303C6.62879 30.1707 7.12213 29.9597 7.19987 29.8346C7.27773 29.7087 7.36432 29.024 7.39205 28.3134C7.56545 23.9001 10.4613 20.0104 14.5046 18.7618C16.6899 18.0871 19.4346 18.2532 21.8102 19.2033C22.5645 19.5045 22.4796 19.5697 24.0732 17.4801C25.0152 16.244 26.9199 14.7077 28.4786 13.9248C30.1607 13.0802 31.9106 12.6905 34.002 12.6959C39.8499 12.7101 44.8898 16.3674 46.7533 21.9498C47.3485 23.7338 47.3191 24.2325 46.6165 24.2477C46.31 24.254 45.4323 24.4229 44.6656 24.6223L43.2712 24.986L41.9985 23.7142C38.4118 20.1267 32.5576 19.3518 27.5804 21.8043C25.5927 22.7848 23.9946 24.1915 22.788 26.0246C21.9283 27.3322 20.8307 29.7704 20.8307 30.3755C20.8307 30.8054 20.483 31.0199 18.9976 31.507C14.3991 33.0148 11.7152 36.4978 11.7179 40.9542C11.7179 42.5761 12.1361 44.5602 12.7153 45.697ZM57.3453 36.2849L56.1915 35.8711L56.0628 34.2937C55.5916 28.5263 49.7519 25.0745 43.8933 27.1025L42.6823 27.5208L41.3309 26.1024C38.8748 23.5221 37.1177 22.7579 33.5972 22.7392C31.1179 22.7258 30.083 22.9582 28.0336 23.9842C26.0754 24.9656 24.2431 27.3636 23.2538 30.2406C23.0357 30.8735 22.8569 31.5884 22.8569 31.8278C22.8569 32.5929 22.3957 32.9227 20.8978 33.2302C17.8885 33.8486 15.6005 35.5281 14.7371 37.7544C14.384 38.6624 14.2822 39.339 14.284 40.7511C14.2911 45.1681 16.3771 48.1444 20.122 49.08C20.9005 49.274 25.4051 49.3249 39.5748 49.2972L58.0148 49.2614L58.845 48.8181C60.6092 47.8735 61.7238 45.9706 61.907 43.588C62.1885 39.9439 60.6396 37.4656 57.3453 36.2849Z" fill="#12203C"/>
</svg>
